  0
SECTION
  2
HEADER
  9
$ACADVER
  1
AC1009
  9
$EXTMIN
 10
0.0
 20
0.0
 30
0.0
  9
$EXTMAX
 10
1000.0
 20
1000.0
 30
0.0
  9
$FILLMODE
 70
 0
  9
$SPLFRAME
 70
 1
  0
ENDSEC
  0
SECTION
  2
TABLES
  0
TABLE
  2
LAYER
 70
1
  0
LAYER
  2
0
 70
     0
 62
     7
  6
CONTINUOUS
  0
ENDTAB
  0
ENDSEC
  0
SECTION
  2
ENTITIES
  0
POLYLINE
  8
0
 62
     253
 66
     1
 10
0
 20
0
 30
0.0
 70
     1
 40
0
 41
0
  0
VERTEX
  8
0
 10
1.34397
 20
4.57053
 30
0.0
 40
0
 41
0
  0
VERTEX
  8
0
 10
0.472711
 20
4.57053
 30
0.0
 40
0
 41
0
  0
VERTEX
  8
0
 10
0.472711
 20
5.41585
 30
0.0
 40
0
 41
0
  0
VERTEX
  8
0
 10
0
 20
5.41585
 30
0.0
 40
0
 41
0
  0
VERTEX
  8
0
 10
0
 20
3.19937
 30
0.0
 40
0
 41
0
  0
VERTEX
  8
0
 10
0.472711
 20
3.19937
 30
0.0
 40
0
 41
0
  0
VERTEX
  8
0
 10
0.472711
 20
4.09961
 30
0.0
 40
0
 41
0
  0
VERTEX
  8
0
 10
1.34397
 20
4.09961
 30
0.0
 40
0
 41
0
  0
VERTEX
  8
0
 10
1.34397
 20
3.19937
 30
0.0
 40
0
 41
0
  0
VERTEX
  8
0
 10
1.81668
 20
3.19937
 30
0.0
 40
0
 41
0
  0
VERTEX
  8
0
 10
1.81668
 20
5.41585
 30
0.0
 40
0
 41
0
  0
VERTEX
  8
0
 10
1.34397
 20
5.41585
 30
0.0
 40
0
 41
0
  0
VERTEX
  8
0
 10
1.34397
 20
4.57053
 30
0.0
 40
0
 41
0
  0
SEQEND
 8
0
  0
POLYLINE
  8
0
 62
     253
 66
     1
 10
0
 20
0
 30
0.0
 70
     1
 40
0
 41
0
  0
VERTEX
  8
0
 10
6.96365
 20
5.41585
 30
0.0
 40
0
 41
0
  0
VERTEX
  8
0
 10
6.49094
 20
5.41585
 30
0.0
 40
0
 41
0
  0
VERTEX
  8
0
 10
6.49094
 20
3.19937
 30
0.0
 40
0
 41
0
  0
VERTEX
  8
0
 10
6.96365
 20
3.19937
 30
0.0
 40
0
 41
0
  0
VERTEX
  8
0
 10
6.96365
 20
3.73144
 30
0.0
 40
0
 41
0
  0
VERTEX
  8
0
 10
8.34782
 20
3.14811
 30
0.0
 40
0
 41
0
  0
VERTEX
  8
0
 10
8.34782
 20
3.73812
 30
0.0
 40
0
 41
0
  0
VERTEX
  8
0
 10
7.03771
 20
4.25364
 30
0.0
 40
0
 41
0
  0
VERTEX
  8
0
 10
7.03321
 20
4.25543
 30
0.0
 40
0
 41
0
  0
VERTEX
  8
0
 10
7.02203
 20
4.26633
 30
0.0
 40
0
 41
0
  0
VERTEX
  8
0
 10
7.01665
 20
4.28424
 30
0.0
 40
0
 41
0
  0
VERTEX
  8
0
 10
7.0216
 20
4.30236
 30
0.0
 40
0
 41
0
  0
VERTEX
  8
0
 10
7.03256
 20
4.31347
 30
0.0
 40
0
 41
0
  0
VERTEX
  8
0
 10
7.037
 20
4.31532
 30
0.0
 40
0
 41
0
  0
VERTEX
  8
0
 10
8.34782
 20
4.8674
 30
0.0
 40
0
 41
0
  0
VERTEX
  8
0
 10
8.34782
 20
5.41585
 30
0.0
 40
0
 41
0
  0
VERTEX
  8
0
 10
6.96365
 20
4.87115
 30
0.0
 40
0
 41
0
  0
VERTEX
  8
0
 10
6.96365
 20
5.41585
 30
0.0
 40
0
 41
0
  0
SEQEND
 8
0
  0
POLYLINE
  8
0
 62
     253
 66
     1
 10
0
 20
0
 30
0.0
 70
     1
 40
0
 41
0
  0
VERTEX
  8
0
 10
8.58763
 20
4.69314
 30
0.0
 40
0
 41
0
  0
VERTEX
  8
0
 10
8.58763
 20
3.19937
 30
0.0
 40
0
 41
0
  0
VERTEX
  8
0
 10
9.06033
 20
3.19937
 30
0.0
 40
0
 41
0
  0
VERTEX
  8
0
 10
9.06033
 20
4.09961
 30
0.0
 40
0
 41
0
  0
VERTEX
  8
0
 10
10.4063
 20
4.09961
 30
0.0
 40
0
 41
0
  0
VERTEX
  8
0
 10
10.4063
 20
4.57053
 30
0.0
 40
0
 41
0
  0
VERTEX
  8
0
 10
9.06033
 20
4.57053
 30
0.0
 40
0
 41
0
  0
VERTEX
  8
0
 10
9.06033
 20
4.66124
 30
0.0
 40
0
 41
0
  0
VERTEX
  8
0
 10
9.06033
 20
4.68946
 30
0.0
 40
0
 41
0
  0
VERTEX
  8
0
 10
9.08306
 20
4.77399
 30
0.0
 40
0
 41
0
  0
VERTEX
  8
0
 10
9.14512
 20
4.8661
 30
0.0
 40
0
 41
0
  0
VERTEX
  8
0
 10
9.23714
 20
4.92817
 30
0.0
 40
0
 41
0
  0
VERTEX
  8
0
 10
9.32167
 20
4.95096
 30
0.0
 40
0
 41
0
  0
VERTEX
  8
0
 10
9.34987
 20
4.95096
 30
0.0
 40
0
 41
0
  0
VERTEX
  8
0
 10
10.4063
 20
4.95096
 30
0.0
 40
0
 41
0
  0
VERTEX
  8
0
 10
10.4063
 20
5.41585
 30
0.0
 40
0
 41
0
  0
VERTEX
  8
0
 10
9.31033
 20
5.41585
 30
0.0
 40
0
 41
0
  0
VERTEX
  8
0
 10
9.2749
 20
5.41585
 30
0.0
 40
0
 41
0
  0
VERTEX
  8
0
 10
9.16868
 20
5.40186
 30
0.0
 40
0
 41
0
  0
VERTEX
  8
0
 10
9.03375
 20
5.36083
 30
0.0
 40
0
 41
0
  0
VERTEX
  8
0
 10
8.90935
 20
5.29443
 30
0.0
 40
0
 41
0
  0
VERTEX
  8
0
 10
8.82428
 20
5.22922
 30
0.0
 40
0
 41
0
  0
VERTEX
  8
0
 10
8.79926
 20
5.20415
 30
0.0
 40
0
 41
0
  0
VERTEX
  8
0
 10
8.77419
 20
5.17914
 30
0.0
 40
0
 41
0
  0
VERTEX
  8
0
 10
8.70899
 20
5.09413
 30
0.0
 40
0
 41
0
  0
VERTEX
  8
0
 10
8.64258
 20
4.96972
 30
0.0
 40
0
 41
0
  0
VERTEX
  8
0
 10
8.60161
 20
4.83479
 30
0.0
 40
0
 41
0
  0
VERTEX
  8
0
 10
8.58763
 20
4.72857
 30
0.0
 40
0
 41
0
  0
VERTEX
  8
0
 10
8.58763
 20
4.69314
 30
0.0
 40
0
 41
0
  0
SEQEND
 8
0
  0
POLYLINE
  8
0
 62
     253
 66
     1
 10
0
 20
0
 30
0.0
 70
     1
 40
0
 41
0
  0
VERTEX
  8
0
 10
12.0273
 20
5.41585
 30
0.0
 40
0
 41
0
  0
VERTEX
  8
0
 10
12.0273
 20
4.09939
 30
0.0
 40
0
 41
0
  0
VERTEX
  8
0
 10
12.0273
 20
4.07997
 30
0.0
 40
0
 41
0
  0
VERTEX
  8
0
 10
12.0194
 20
4.0216
 30
0.0
 40
0
 41
0
  0
VERTEX
  8
0
 10
11.9969
 20
3.94911
 30
0.0
 40
0
 41
0
  0
VERTEX
  8
0
 10
11.9613
 20
3.88351
 30
0.0
 40
0
 41
0
  0
VERTEX
  8
0
 10
11.9142
 20
3.82633
 30
0.0
 40
0
 41
0
  0
VERTEX
  8
0
 10
11.857
 20
3.77919
 30
0.0
 40
0
 41
0
  0
VERTEX
  8
0
 10
11.7914
 20
3.7436
 30
0.0
 40
0
 41
0
  0
VERTEX
  8
0
 10
11.719
 20
3.72108
 30
0.0
 40
0
 41
0
  0
VERTEX
  8
0
 10
11.6606
 20
3.71322
 30
0.0
 40
0
 41
0
  0
VERTEX
  8
0
 10
11.6412
 20
3.71322
 30
0.0
 40
0
 41
0
  0
VERTEX
  8
0
 10
11.4816
 20
3.71322
 30
0.0
 40
0
 41
0
  0
VERTEX
  8
0
 10
11.4621
 20
3.71322
 30
0.0
 40
0
 41
0
  0
VERTEX
  8
0
 10
11.4037
 20
3.72108
 30
0.0
 40
0
 41
0
  0
VERTEX
  8
0
 10
11.3312
 20
3.7436
 30
0.0
 40
0
 41
0
  0
VERTEX
  8
0
 10
11.2656
 20
3.77919
 30
0.0
 40
0
 41
0
  0
VERTEX
  8
0
 10
11.2085
 20
3.82633
 30
0.0
 40
0
 41
0
  0
VERTEX
  8
0
 10
11.1613
 20
3.88351
 30
0.0
 40
0
 41
0
  0
VERTEX
  8
0
 10
11.1258
 20
3.94911
 30
0.0
 40
0
 41
0
  0
VERTEX
  8
0
 10
11.1033
 20
4.0216
 30
0.0
 40
0
 41
0
  0
VERTEX
  8
0
 10
11.0954
 20
4.07997
 30
0.0
 40
0
 41
0
  0
VERTEX
  8
0
 10
11.0954
 20
4.09939
 30
0.0
 40
0
 41
0
  0
VERTEX
  8
0
 10
11.0954
 20
5.41585
 30
0.0
 40
0
 41
0
  0
VERTEX
  8
0
 10
10.6227
 20
5.41585
 30
0.0
 40
0
 41
0
  0
VERTEX
  8
0
 10
10.6227
 20
4.00364
 30
0.0
 40
0
 41
0
  0
VERTEX
  8
0
 10
10.6227
 20
3.96425
 30
0.0
 40
0
 41
0
  0
VERTEX
  8
0
 10
10.6383
 20
3.84603
 30
0.0
 40
0
 41
0
  0
VERTEX
  8
0
 10
10.6839
 20
3.69586
 30
0.0
 40
0
 41
0
  0
VERTEX
  8
0
 10
10.7578
 20
3.5574
 30
0.0
 40
0
 41
0
  0
VERTEX
  8
0
 10
10.8304
 20
3.46278
 30
0.0
 40
0
 41
0
  0
VERTEX
  8
0
 10
10.8583
 20
3.4349
 30
0.0
 40
0
 41
0
  0
VERTEX
  8
0
 10
10.8861
 20
3.40707
 30
0.0
 40
0
 41
0
  0
VERTEX
  8
0
 10
10.9808
 20
3.33447
 30
0.0
 40
0
 41
0
  0
VERTEX
  8
0
 10
11.1193
 20
3.26058
 30
0.0
 40
0
 41
0
  0
VERTEX
  8
0
 10
11.2694
 20
3.21496
 30
0.0
 40
0
 41
0
  0
VERTEX
  8
0
 10
11.3876
 20
3.19937
 30
0.0
 40
0
 41
0
  0
VERTEX
  8
0
 10
11.4271
 20
3.19937
 30
0.0
 40
0
 41
0
  0
VERTEX
  8
0
 10
11.6958
 20
3.19937
 30
0.0
 40
0
 41
0
  0
VERTEX
  8
0
 10
11.7351
 20
3.19937
 30
0.0
 40
0
 41
0
  0
VERTEX
  8
0
 10
11.8533
 20
3.215
 30
0.0
 40
0
 41
0
  0
VERTEX
  8
0
 10
12.0035
 20
3.26064
 30
0.0
 40
0
 41
0
  0
VERTEX
  8
0
 10
12.1419
 20
3.33453
 30
0.0
 40
0
 41
0
  0
VERTEX
  8
0
 10
12.2365
 20
3.40713
 30
0.0
 40
0
 41
0
  0
VERTEX
  8
0
 10
12.2644
 20
3.43494
 30
0.0
 40
0
 41
0
  0
VERTEX
  8
0
 10
12.2923
 20
3.46283
 30
0.0
 40
0
 41
0
  0
VERTEX
  8
0
 10
12.3649
 20
3.55746
 30
0.0
 40
0
 41
0
  0
VERTEX
  8
0
 10
12.4388
 20
3.6959
 30
0.0
 40
0
 41
0
  0
VERTEX
  8
0
 10
12.4844
 20
3.84603
 30
0.0
 40
0
 41
0
  0
VERTEX
  8
0
 10
12.5
 20
3.96425
 30
0.0
 40
0
 41
0
  0
VERTEX
  8
0
 10
12.5
 20
4.00364
 30
0.0
 40
0
 41
0
  0
VERTEX
  8
0
 10
12.5
 20
5.41585
 30
0.0
 40
0
 41
0
  0
VERTEX
  8
0
 10
12.0273
 20
5.41585
 30
0.0
 40
0
 41
0
  0
SEQEND
 8
0
  0
POLYLINE
  8
0
 62
     253
 66
     1
 10
0
 20
0
 30
0.0
 70
     1
 40
0
 41
0
  0
VERTEX
  8
0
 10
3.12825
 20
5.44
 30
0.0
 40
0
 41
0
  0
VERTEX
  8
0
 10
3.09028
 20
5.44
 30
0.0
 40
0
 41
0
  0
VERTEX
  8
0
 10
2.9764
 20
5.42193
 30
0.0
 40
0
 41
0
  0
VERTEX
  8
0
 10
2.85254
 20
5.36757
 30
0.0
 40
0
 41
0
  0
VERTEX
  8
0
 10
2.75657
 20
5.27696
 30
0.0
 40
0
 41
0
  0
VERTEX
  8
0
 10
2.70107
 20
5.18354
 30
0.0
 40
0
 41
0
  0
VERTEX
  8
0
 10
2.68864
 20
5.15012
 30
0.0
 40
0
 41
0
  0
VERTEX
  8
0
 10
1.97157
 20
3.19937
 30
0.0
 40
0
 41
0
  0
VERTEX
  8
0
 10
2.5549
 20
3.19937
 30
0.0
 40
0
 41
0
  0
VERTEX
  8
0
 10
3.11074
 20
4.87592
 30
0.0
 40
0
 41
0
  0
VERTEX
  8
0
 10
3.11193
 20
4.8795
 30
0.0
 40
0
 41
0
  0
VERTEX
  8
0
 10
3.12022
 20
4.88867
 30
0.0
 40
0
 41
0
  0
VERTEX
  8
0
 10
3.13428
 20
4.8929
 30
0.0
 40
0
 41
0
  0
VERTEX
  8
0
 10
3.14839
 20
4.88867
 30
0.0
 40
0
 41
0
  0
VERTEX
  8
0
 10
3.15668
 20
4.8795
 30
0.0
 40
0
 41
0
  0
VERTEX
  8
0
 10
3.15793
 20
4.87592
 30
0.0
 40
0
 41
0
  0
VERTEX
  8
0
 10
3.69792
 20
3.19937
 30
0.0
 40
0
 41
0
  0
VERTEX
  8
0
 10
4.28125
 20
3.19937
 30
0.0
 40
0
 41
0
  0
VERTEX
  8
0
 10
3.56418
 20
5.15012
 30
0.0
 40
0
 41
0
  0
VERTEX
  8
0
 10
3.55171
 20
5.18349
 30
0.0
 40
0
 41
0
  0
VERTEX
  8
0
 10
3.49636
 20
5.27692
 30
0.0
 40
0
 41
0
  0
VERTEX
  8
0
 10
3.40115
 20
5.36751
 30
0.0
 40
0
 41
0
  0
VERTEX
  8
0
 10
3.27843
 20
5.42188
 30
0.0
 40
0
 41
0
  0
VERTEX
  8
0
 10
3.16581
 20
5.44
 30
0.0
 40
0
 41
0
  0
VERTEX
  8
0
 10
3.12825
 20
5.44
 30
0.0
 40
0
 41
0
  0
SEQEND
 8
0
  0
POLYLINE
  8
0
 62
     253
 66
     1
 10
0
 20
0
 30
0.0
 70
     1
 40
0
 41
0
  0
VERTEX
  8
0
 10
6.27604
 20
4.16542
 30
0.0
 40
0
 41
0
  0
VERTEX
  8
0
 10
6.27604
 20
4.19407
 30
0.0
 40
0
 41
0
  0
VERTEX
  8
0
 10
6.24832
 20
4.28
 30
0.0
 40
0
 41
0
  0
VERTEX
  8
0
 10
6.18375
 20
4.37549
 30
0.0
 40
0
 41
0
  0
VERTEX
  8
0
 10
6.16531
 20
4.39458
 30
0.0
 40
0
 41
0
  0
VERTEX
  8
0
 10
6.14486
 20
4.41569
 30
0.0
 40
0
 41
0
  0
VERTEX
  8
0
 10
6.07297
 20
4.46864
 30
0.0
 40
0
 41
0
  0
VERTEX
  8
0
 10
5.96007
 20
4.52154
 30
0.0
 40
0
 41
0
  0
VERTEX
  8
0
 10
5.82671
 20
4.55317
 30
0.0
 40
0
 41
0
  0
VERTEX
  8
0
 10
5.71126
 20
4.56369
 30
0.0
 40
0
 41
0
  0
VERTEX
  8
0
 10
5.67279
 20
4.56364
 30
0.0
 40
0
 41
0
  0
VERTEX
  8
0
 10
4.97168
 20
4.56364
 30
0.0
 40
0
 41
0
  0
VERTEX
  8
0
 10
4.95578
 20
4.565
 30
0.0
 40
0
 41
0
  0
VERTEX
  8
0
 10
4.90875
 20
4.57617
 30
0.0
 40
0
 41
0
  0
VERTEX
  8
0
 10
4.86388
 20
4.60146
 30
0.0
 40
0
 41
0
  0
VERTEX
  8
0
 10
4.83692
 20
4.63954
 30
0.0
 40
0
 41
0
  0
VERTEX
  8
0
 10
4.82801
 20
4.67774
 30
0.0
 40
0
 41
0
  0
VERTEX
  8
0
 10
4.82801
 20
4.69043
 30
0.0
 40
0
 41
0
  0
VERTEX
  8
0
 10
4.82801
 20
4.94488
 30
0.0
 40
0
 41
0
  0
VERTEX
  8
0
 10
6.23731
 20
4.94488
 30
0.0
 40
0
 41
0
  0
VERTEX
  8
0
 10
6.23731
 20
5.41585
 30
0.0
 40
0
 41
0
  0
VERTEX
  8
0
 10
4.32064
 20
5.41585
 30
0.0
 40
0
 41
0
  0
VERTEX
  8
0
 10
4.32064
 20
4.59467
 30
0.0
 40
0
 41
0
  0
VERTEX
  8
0
 10
4.32064
 20
4.56961
 30
0.0
 40
0
 41
0
  0
VERTEX
  8
0
 10
4.33089
 20
4.49436
 30
0.0
 40
0
 41
0
  0
VERTEX
  8
0
 10
4.36165
 20
4.40457
 30
0.0
 40
0
 41
0
  0
VERTEX
  8
0
 10
4.41303
 20
4.32531
 30
0.0
 40
0
 41
0
  0
VERTEX
  8
0
 10
4.46533
 20
4.27171
 30
0.0
 40
0
 41
0
  0
VERTEX
  8
0
 10
4.48492
 20
4.25657
 30
0.0
 40
0
 41
0
  0
VERTEX
  8
0
 10
4.51226
 20
4.23546
 30
0.0
 40
0
 41
0
  0
VERTEX
  8
0
 10
4.67269
 20
4.16146
 30
0.0
 40
0
 41
0
  0
VERTEX
  8
0
 10
4.86453
 20
4.12978
 30
0.0
 40
0
 41
0
  0
VERTEX
  8
0
 10
4.90761
 20
4.12978
 30
0.0
 40
0
 41
0
  0
VERTEX
  8
0
 10
5.66803
 20
4.12375
 30
0.0
 40
0
 41
0
  0
VERTEX
  8
0
 10
5.68246
 20
4.12375
 30
0.0
 40
0
 41
0
  0
VERTEX
  8
0
 10
5.72592
 20
4.11626
 30
0.0
 40
0
 41
0
  0
VERTEX
  8
0
 10
5.75732
 20
4.09358
 30
0.0
 40
0
 41
0
  0
VERTEX
  8
0
 10
5.77024
 20
4.05588
 30
0.0
 40
0
 41
0
  0
VERTEX
  8
0
 10
5.77279
 20
4.01628
 30
0.0
 40
0
 41
0
  0
VERTEX
  8
0
 10
5.77279
 20
4.00304
 30
0.0
 40
0
 41
0
  0
VERTEX
  8
0
 10
5.77279
 20
3.84
 30
0.0
 40
0
 41
0
  0
VERTEX
  8
0
 10
5.77279
 20
3.83279
 30
0.0
 40
0
 41
0
  0
VERTEX
  8
0
 10
5.77235
 20
3.81108
 30
0.0
 40
0
 41
0
  0
VERTEX
  8
0
 10
5.77051
 20
3.78207
 30
0.0
 40
0
 41
0
  0
VERTEX
  8
0
 10
5.76611
 20
3.75407
 30
0.0
 40
0
 41
0
  0
VERTEX
  8
0
 10
5.75831
 20
3.72808
 30
0.0
 40
0
 41
0
  0
VERTEX
  8
0
 10
5.74599
 20
3.70508
 30
0.0
 40
0
 41
0
  0
VERTEX
  8
0
 10
5.72819
 20
3.68614
 30
0.0
 40
0
 41
0
  0
VERTEX
  8
0
 10
5.70389
 20
3.67219
 30
0.0
 40
0
 41
0
  0
VERTEX
  8
0
 10
5.68012
 20
3.66531
 30
0.0
 40
0
 41
0
  0
VERTEX
  8
0
 10
5.6721
 20
3.66428
 30
0.0
 40
0
 41
0
  0
VERTEX
  8
0
 10
4.92876
 20
3.66428
 30
0.0
 40
0
 41
0
  0
VERTEX
  8
0
 10
4.92068
 20
3.66531
 30
0.0
 40
0
 41
0
  0
VERTEX
  8
0
 10
4.89692
 20
3.67219
 30
0.0
 40
0
 41
0
  0
VERTEX
  8
0
 10
4.87261
 20
3.68614
 30
0.0
 40
0
 41
0
  0
VERTEX
  8
0
 10
4.85476
 20
3.70508
 30
0.0
 40
0
 41
0
  0
VERTEX
  8
0
 10
4.84244
 20
3.72808
 30
0.0
 40
0
 41
0
  0
VERTEX
  8
0
 10
4.83464
 20
3.75407
 30
0.0
 40
0
 41
0
  0
VERTEX
  8
0
 10
4.83024
 20
3.78207
 30
0.0
 40
0
 41
0
  0
VERTEX
  8
0
 10
4.8284
 20
3.81108
 30
0.0
 40
0
 41
0
  0
VERTEX
  8
0
 10
4.82801
 20
3.83279
 30
0.0
 40
0
 41
0
  0
VERTEX
  8
0
 10
4.82801
 20
3.84
 30
0.0
 40
0
 41
0
  0
VERTEX
  8
0
 10
4.82801
 20
3.87022
 30
0.0
 40
0
 41
0
  0
VERTEX
  8
0
 10
4.32226
 20
3.87022
 30
0.0
 40
0
 41
0
  0
VERTEX
  8
0
 10
4.32064
 20
3.67031
 30
0.0
 40
0
 41
0
  0
VERTEX
  8
0
 10
4.32064
 20
3.66883
 30
0.0
 40
0
 41
0
  0
VERTEX
  8
0
 10
4.32064
 20
3.66542
 30
0.0
 40
0
 41
0
  0
VERTEX
  8
0
 10
4.32064
 20
3.66428
 30
0.0
 40
0
 41
0
  0
VERTEX
  8
0
 10
4.32064
 20
3.6371
 30
0.0
 40
0
 41
0
  0
VERTEX
  8
0
 10
4.33111
 20
3.55539
 30
0.0
 40
0
 41
0
  0
VERTEX
  8
0
 10
4.36268
 20
3.46099
 30
0.0
 40
0
 41
0
  0
VERTEX
  8
0
 10
4.41521
 20
3.38108
 30
0.0
 40
0
 41
0
  0
VERTEX
  8
0
 10
4.48882
 20
3.31569
 30
0.0
 40
0
 41
0
  0
VERTEX
  8
0
 10
4.58344
 20
3.26486
 30
0.0
 40
0
 41
0
  0
VERTEX
  8
0
 10
4.69906
 20
3.22851
 30
0.0
 40
0
 41
0
  0
VERTEX
  8
0
 10
4.83572
 20
3.20671
 30
0.0
 40
0
 41
0
  0
VERTEX
  8
0
 10
4.954
 20
3.19937
 30
0.0
 40
0
 41
0
  0
VERTEX
  8
0
 10
4.99343
 20
3.19937
 30
0.0
 40
0
 41
0
  0
VERTEX
  8
0
 10
5.56396
 20
3.19937
 30
0.0
 40
0
 41
0
  0
VERTEX
  8
0
 10
5.60385
 20
3.19937
 30
0.0
 40
0
 41
0
  0
VERTEX
  8
0
 10
5.72347
 20
3.20665
 30
0.0
 40
0
 41
0
  0
VERTEX
  8
0
 10
5.86496
 20
3.22846
 30
0.0
 40
0
 41
0
  0
VERTEX
  8
0
 10
5.98742
 20
3.26481
 30
0.0
 40
0
 41
0
  0
VERTEX
  8
0
 10
6.0899
 20
3.31569
 30
0.0
 40
0
 41
0
  0
VERTEX
  8
0
 10
6.17133
 20
3.38108
 30
0.0
 40
0
 41
0
  0
VERTEX
  8
0
 10
6.23079
 20
3.46099
 30
0.0
 40
0
 41
0
  0
VERTEX
  8
0
 10
6.26725
 20
3.55539
 30
0.0
 40
0
 41
0
  0
VERTEX
  8
0
 10
6.27962
 20
3.6371
 30
0.0
 40
0
 41
0
  0
VERTEX
  8
0
 10
6.27968
 20
3.66428
 30
0.0
 40
0
 41
0
  0
VERTEX
  8
0
 10
6.27968
 20
3.66581
 30
0.0
 40
0
 41
0
  0
VERTEX
  8
0
 10
6.27968
 20
3.66922
 30
0.0
 40
0
 41
0
  0
VERTEX
  8
0
 10
6.27968
 20
3.67031
 30
0.0
 40
0
 41
0
  0
VERTEX
  8
0
 10
6.278
 20
3.87022
 30
0.0
 40
0
 41
0
  0
VERTEX
  8
0
 10
6.27604
 20
4.16542
 30
0.0
 40
0
 41
0
  0
SEQEND
 8
0
  0
POLYLINE
  8
0
 62
     253
 66
     1
 10
0
 20
0
 30
0.0
 70
     1
 40
0
 41
0
  0
VERTEX
  8
0
 10
0.492839
 20
2.35656
 30
0.0
 40
0
 41
0
  0
VERTEX
  8
0
 10
0.492839
 20
2.35346
 30
0.0
 40
0
 41
0
  0
VERTEX
  8
0
 10
0.491374
 20
2.3226
 30
0.0
 40
0
 41
0
  0
VERTEX
  8
0
 10
0.491049
 20
2.3195
 30
0.0
 40
0
 41
0
  0
VERTEX
  8
0
 10
0.490831
 20
2.3176
 30
0.0
 40
0
 41
0
  0
VERTEX
  8
0
 10
0.4866
 20
2.29872
 30
0.0
 40
0
 41
0
  0
VERTEX
  8
0
 10
0.485949
 20
2.29688
 30
0.0
 40
0
 41
0
  0
VERTEX
  8
0
 10
0.485514
 20
2.29574
 30
0.0
 40
0
 41
0
  0
VERTEX
  8
0
 10
0.477919
 20
2.28618
 30
0.0
 40
0
 41
0
  0
VERTEX
  8
0
 10
0.476887
 20
2.28554
 30
0.0
 40
0
 41
0
  0
VERTEX
  8
0
 10
0.475749
 20
2.285
 30
0.0
 40
0
 41
0
  0
VERTEX
  8
0
 10
0.463921
 20
2.28239
 30
0.0
 40
0
 41
0
  0
VERTEX
  8
0
 10
0.462728
 20
2.28239
 30
0.0
 40
0
 41
0
  0
VERTEX
  8
0
 10
0.461372
 20
2.28244
 30
0.0
 40
0
 41
0
  0
VERTEX
  8
0
 10
0.44846
 20
2.28424
 30
0.0
 40
0
 41
0
  0
VERTEX
  8
0
 10
0.447211
 20
2.28456
 30
0.0
 40
0
 41
0
  0
VERTEX
  8
0
 10
0.427897
 20
2.28928
 30
0.0
 40
0
 41
0
  0
VERTEX
  8
0
 10
0.426107
 20
2.28971
 30
0.0
 40
0
 41
0
  0
VERTEX
  8
0
 10
0.406412
 20
2.29363
 30
0.0
 40
0
 41
0
  0
VERTEX
  8
0
 10
0.404297
 20
2.29394
 30
0.0
 40
0
 41
0
  0
VERTEX
  8
0
 10
0.40191
 20
2.29432
 30
0.0
 40
0
 41
0
  0
VERTEX
  8
0
 10
0.378201
 20
2.29622
 30
0.0
 40
0
 41
0
  0
VERTEX
  8
0
 10
0.375814
 20
2.29617
 30
0.0
 40
0
 41
0
  0
VERTEX
  8
0
 10
0.372721
 20
2.29617
 30
0.0
 40
0
 41
0
  0
VERTEX
  8
0
 10
0.342611
 20
2.29172
 30
0.0
 40
0
 41
0
  0
VERTEX
  8
0
 10
0.339681
 20
2.29085
 30
0.0
 40
0
 41
0
  0
VERTEX
  8
0
 10
0.336372
 20
2.28988
 30
0.0
 40
0
 41
0
  0
VERTEX
  8
0
 10
0.305231
 20
2.27593
 30
0.0
 40
0
 41
0
  0
VERTEX
  8
0
 10
0.3023
 20
2.27414
 30
0.0
 40
0
 41
0
  0
VERTEX
  8
0
 10
0.298665
 20
2.27203
 30
0.0
 40
0
 41
0
  0
VERTEX
  8
0
 10
0.264974
 20
2.24696
 30
0.0
 40
0
 41
0
  0
VERTEX
  8
0
 10
0.261882
 20
2.24408
 30
0.0
 40
0
 41
0
  0
VERTEX
  8
0
 10
0.257867
 20
2.2405
 30
0.0
 40
0
 41
0
  0
VERTEX
  8
0
 10
0.220269
 20
2.20199
 30
0.0
 40
0
 41
0
  0
VERTEX
  8
0
 10
0.216797
 20
2.19792
 30
0.0
 40
0
 41
0
  0
VERTEX
  8
0
 10
0.216797
 20
1.84842
 30
0.0
 40
0
 41
0
  0
VERTEX
  8
0
 10
0.216743
 20
1.84744
 30
0.0
 40
0
 41
0
  0
VERTEX
  8
0
 10
0.212349
 20
1.83865
 30
0.0
 40
0
 41
0
  0
VERTEX
  8
0
 10
0.211589
 20
1.838
 30
0.0
 40
0
 41
0
  0
VERTEX
  8
0
 10
0.210286
 20
1.83703
 30
0.0
 40
0
 41
0
  0
VERTEX
  8
0
 10
0.195529
 20
1.8304
 30
0.0
 40
0
 41
0
  0
VERTEX
  8
0
 10
0.193956
 20
1.83008
 30
0.0
 40
0
 41
0
  0
VERTEX
  8
0
 10
0.191189
 20
1.82949
 30
0.0
 40
0
 41
0
  0
VERTEX
  8
0
 10
0.163574
 20
1.82557
 30
0.0
 40
0
 41
0
  0
VERTEX
  8
0
 10
0.160807
 20
1.82542
 30
0.0
 40
0
 41
0
  0
VERTEX
  8
0
 10
0.157335
 20
1.82519
 30
0.0
 40
0
 41
0
  0
VERTEX
  8
0
 10
0.120877
 20
1.82383
 30
0.0
 40
0
 41
0
  0
VERTEX
  8
0
 10
0.108724
 20
1.82383
 30
0.0
 40
0
 41
0
  0
VERTEX
  8
0
 10
0.0957032
 20
1.82383
 30
0.0
 40
0
 41
0
  0
VERTEX
  8
0
 10
0.0600043
 20
1.82503
 30
0.0
 40
0
 41
0
  0
VERTEX
  8
0
 10
0.0566407
 20
1.82542
 30
0.0
 40
0
 41
0
  0
VERTEX
  8
0
 10
0.0538194
 20
1.82557
 30
0.0
 40
0
 41
0
  0
VERTEX
  8
0
 10
0.0262588
 20
1.82949
 30
0.0
 40
0
 41
0
  0
VERTEX
  8
0
 10
0.023546
 20
1.83008
 30
0.0
 40
0
 41
0
  0
VERTEX
  8
0
 10
0.0219185
 20
1.8304
 30
0.0
 40
0
 41
0
  0
VERTEX
  8
0
 10
0.00710721
 20
1.83703
 30
0.0
 40
0
 41
0
  0
VERTEX
  8
0
 10
0.00585938
 20
1.838
 30
0.0
 40
0
 41
0
  0
VERTEX
  8
0
 10
0.00504557
 20
1.83865
 30
0.0
 40
0
 41
0
  0
VERTEX
  8
0
 10
0.000705296
 20
1.84744
 30
0.0
 40
0
 41
0
  0
VERTEX
  8
0
 10
0.000705296
 20
1.84842
 30
0.0
 40
0
 41
0
  0
VERTEX
  8
0
 10
0.000705296
 20
2.40875
 30
0.0
 40
0
 41
0
  0
VERTEX
  8
0
 10
0.000705296
 20
2.40972
 30
0.0
 40
0
 41
0
  0
VERTEX
  8
0
 10
0.00428603
 20
2.41846
 30
0.0
 40
0
 41
0
  0
VERTEX
  8
0
 10
0.00499132
 20
2.41917
 30
0.0
 40
0
 41
0
  0
VERTEX
  8
0
 10
0.00602214
 20
2.42014
 30
0.0
 40
0
 41
0
  0
VERTEX
  8
0
 10
0.0183919
 20
2.42676
 30
0.0
 40
0
 41
0
  0
VERTEX
  8
0
 10
0.0198025
 20
2.42708
 30
0.0
 40
0
 41
0
  0
VERTEX
  8
0
 10
0.0221354
 20
2.42774
 30
0.0
 40
0
 41
0
  0
VERTEX
  8
0
 10
0.0461154
 20
2.43158
 30
0.0
 40
0
 41
0
  0
VERTEX
  8
0
 10
0.0485568
 20
2.43175
 30
0.0
 40
0
 41
0
  0
VERTEX
  8
0
 10
0.0514865
 20
2.43201
 30
0.0
 40
0
 41
0
  0
VERTEX
  8
0
 10
0.0825738
 20
2.43332
 30
0.0
 40
0
 41
0
  0
VERTEX
  8
0
 10
0.0929363
 20
2.43332
 30
0.0
 40
0
 41
0
  0
VERTEX
  8
0
 10
0.104275
 20
2.43332
 30
0.0
 40
0
 41
0
  0
VERTEX
  8
0
 10
0.135417
 20
2.43218
 30
0.0
 40
0
 41
0
  0
VERTEX
  8
0
 10
0.138455
 20
2.43175
 30
0.0
 40
0
 41
0
  0
VERTEX
  8
0
 10
0.140842
 20
2.43164
 30
0.0
 40
0
 41
0
  0
VERTEX
  8
0
 10
0.164333
 20
2.42774
 30
0.0
 40
0
 41
0
  0
VERTEX
  8
0
 10
0.166667
 20
2.42708
 30
0.0
 40
0
 41
0
  0
VERTEX
  8
0
 10
0.167969
 20
2.42676
 30
0.0
 40
0
 41
0
  0
VERTEX
  8
0
 10
0.179796
 20
2.42014
 30
0.0
 40
0
 41
0
  0
VERTEX
  8
0
 10
0.180826
 20
2.41917
 30
0.0
 40
0
 41
0
  0
VERTEX
  8
0
 10
0.181478
 20
2.41846
 30
0.0
 40
0
 41
0
  0
VERTEX
  8
0
 10
0.185058
 20
2.40972
 30
0.0
 40
0
 41
0
  0
VERTEX
  8
0
 10
0.185113
 20
2.40875
 30
0.0
 40
0
 41
0
  0
VERTEX
  8
0
 10
0.185113
 20
2.33897
 30
0.0
 40
0
 41
0
  0
VERTEX
  8
0
 10
0.189507
 20
2.34369
 30
0.0
 40
0
 41
0
  0
VERTEX
  8
0
 10
0.236817
 20
2.3871
 30
0.0
 40
0
 41
0
  0
VERTEX
  8
0
 10
0.241863
 20
2.39106
 30
0.0
 40
0
 41
0
  0
VERTEX
  8
0
 10
0.245822
 20
2.39415
 30
0.0
 40
0
 41
0
  0
VERTEX
  8
0
 10
0.288086
 20
2.42106
 30
0.0
 40
0
 41
0
  0
VERTEX
  8
0
 10
0.292589
 20
2.42333
 30
0.0
 40
0
 41
0
  0
VERTEX
  8
0
 10
0.296386
 20
2.42529
 30
0.0
 40
0
 41
0
  0
VERTEX
  8
0
 10
0.336589
 20
2.43918
 30
0.0
 40
0
 41
0
  0
VERTEX
  8
0
 10
0.340821
 20
2.44
 30
0.0
 40
0
 41
0
  0
VERTEX
  8
0
 10
0.344781
 20
2.44081
 30
0.0
 40
0
 41
0
  0
VERTEX
  8
0
 10
0.377875
 20
2.44467
 30
0.0
 40
0
 41
0
  0
VERTEX
  8
0
 10
0.388943
 20
2.44467
 30
0.0
 40
0
 41
0
  0
VERTEX
  8
0
 10
0.394965
 20
2.44467
 30
0.0
 40
0
 41
0
  0
VERTEX
  8
0
 10
0.410861
 20
2.44401
 30
0.0
 40
0
 41
0
  0
VERTEX
  8
0
 10
0.413032
 20
2.44374
 30
0.0
 40
0
 41
0
  0
VERTEX
  8
0
 10
0.415147
 20
2.44353
 30
0.0
 40
0
 41
0
  0
VERTEX
  8
0
 10
0.437338
 20
2.44103
 30
0.0
 40
0
 41
0
  0
VERTEX
  8
0
 10
0.439671
 20
2.44065
 30
0.0
 40
0
 41
0
  0
VERTEX
  8
0
 10
0.441678
 20
2.44038
 30
0.0
 40
0
 41
0
  0
VERTEX
  8
0
 10
0.461751
 20
2.43614
 30
0.0
 40
0
 41
0
  0
VERTEX
  8
0
 10
0.463758
 20
2.4356
 30
0.0
 40
0
 41
0
  0
VERTEX
  8
0
 10
0.465061
 20
2.43533
 30
0.0
 40
0
 41
0
  0
VERTEX
  8
0
 10
0.477647
 20
2.43039
 30
0.0
 40
0
 41
0
  0
VERTEX
  8
0
 10
0.478842
 20
2.42969
 30
0.0
 40
0
 41
0
  0
VERTEX
  8
0
 10
0.479546
 20
2.42925
 30
0.0
 40
0
 41
0
  0
VERTEX
  8
0
 10
0.485297
 20
2.42339
 30
0.0
 40
0
 41
0
  0
VERTEX
  8
0
 10
0.485732
 20
2.42269
 30
0.0
 40
0
 41
0
  0
VERTEX
  8
0
 10
0.486111
 20
2.42188
 30
0.0
 40
0
 41
0
  0
VERTEX
  8
0
 10
0.489367
 20
2.41319
 30
0.0
 40
0
 41
0
  0
VERTEX
  8
0
 10
0.489583
 20
2.41228
 30
0.0
 40
0
 41
0
  0
VERTEX
  8
0
 10
0.489908
 20
2.41064
 30
0.0
 40
0
 41
0
  0
VERTEX
  8
0
 10
0.492079
 20
2.39421
 30
0.0
 40
0
 41
0
  0
VERTEX
  8
0
 10
0.492188
 20
2.39253
 30
0.0
 40
0
 41
0
  0
VERTEX
  8
0
 10
0.492242
 20
2.39031
 30
0.0
 40
0
 41
0
  0
VERTEX
  8
0
 10
0.492839
 20
2.36501
 30
0.0
 40
0
 41
0
  0
VERTEX
  8
0
 10
0.492839
 20
2.35656
 30
0.0
 40
0
 41
0
  0
SEQEND
 8
0
  0
POLYLINE
  8
0
 62
     253
 66
     1
 10
0
 20
0
 30
0.0
 70
     1
 40
0
 41
0
  0
VERTEX
  8
0
 10
1.24105
 20
1.84614
 30
0.0
 40
0
 41
0
  0
VERTEX
  8
0
 10
1.24105
 20
1.84272
 30
0.0
 40
0
 41
0
  0
VERTEX
  8
0
 10
1.23378
 20
1.83296
 30
0.0
 40
0
 41
0
  0
VERTEX
  8
0
 10
1.23248
 20
1.83231
 30
0.0
 40
0
 41
0
  0
VERTEX
  8
0
 10
1.23036
 20
1.83128
 30
0.0
 40
0
 41
0
  0
VERTEX
  8
0
 10
1.20774
 20
1.82525
 30
0.0
 40
0
 41
0
  0
VERTEX
  8
0
 10
1.2054
 20
1.82508
 30
0.0
 40
0
 41
0
  0
VERTEX
  8
0
 10
1.20085
 20
1.82471
 30
0.0
 40
0
 41
0
  0
VERTEX
  8
0
 10
1.15527
 20
1.82286
 30
0.0
 40
0
 41
0
  0
VERTEX
  8
0
 10
1.15072
 20
1.82292
 30
0.0
 40
0
 41
0
  0
VERTEX
  8
0
 10
1.146
 20
1.82286
 30
0.0
 40
0
 41
0
  0
VERTEX
  8
0
 10
1.09912
 20
1.82465
 30
0.0
 40
0
 41
0
  0
VERTEX
  8
0
 10
1.09446
 20
1.82508
 30
0.0
 40
0
 41
0
  0
VERTEX
  8
0
 10
1.09223
 20
1.82525
 30
0.0
 40
0
 41
0
  0
VERTEX
  8
0
 10
1.0714
 20
1.83128
 30
0.0
 40
0
 41
0
  0
VERTEX
  8
0
 10
1.0695
 20
1.83231
 30
0.0
 40
0
 41
0
  0
VERTEX
  8
0
 10
1.06831
 20
1.83306
 30
0.0
 40
0
 41
0
  0
VERTEX
  8
0
 10
1.06212
 20
1.84478
 30
0.0
 40
0
 41
0
  0
VERTEX
  8
0
 10
1.06218
 20
1.84614
 30
0.0
 40
0
 41
0
  0
VERTEX
  8
0
 10
1.06218
 20
1.89085
 30
0.0
 40
0
 41
0
  0
VERTEX
  8
0
 10
1.05404
 20
1.88456
 30
0.0
 40
0
 41
0
  0
VERTEX
  8
0
 10
1.01063
 20
1.85753
 30
0.0
 40
0
 41
0
  0
VERTEX
  8
0
 10
0.963976
 20
1.83658
 30
0.0
 40
0
 41
0
  0
VERTEX
  8
0
 10
0.954264
 20
1.83333
 30
0.0
 40
0
 41
0
  0
VERTEX
  8
0
 10
0.943414
 20
1.82975
 30
0.0
 40
0
 41
0
  0
VERTEX
  8
0
 10
0.887804
 20
1.81739
 30
0.0
 40
0
 41
0
  0
VERTEX
  8
0
 10
0.831054
 20
1.81239
 30
0.0
 40
0
 41
0
  0
VERTEX
  8
0
 10
0.819661
 20
1.8125
 30
0.0
 40
0
 41
0
  0
VERTEX
  8
0
 10
0.810221
 20
1.81244
 30
0.0
 40
0
 41
0
  0
VERTEX
  8
0
 10
0.716635
 20
1.82215
 30
0.0
 40
0
 41
0
  0
VERTEX
  8
0
 10
0.707411
 20
1.82417
 30
0.0
 40
0
 41
0
  0
VERTEX
  8
0
 10
0.699599
 20
1.82585
 30
0.0
 40
0
 41
0
  0
VERTEX
  8
0
 10
0.625706
 20
1.85465
 30
0.0
 40
0
 41
0
  0
VERTEX
  8
0
 10
0.618869
 20
1.85872
 30
0.0
 40
0
 41
0
  0
VERTEX
  8
0
 10
0.612901
 20
1.86225
 30
0.0
 40
0
 41
0
  0
VERTEX
  8
0
 10
0.586317
 20
1.88368
 30
0.0
 40
0
 41
0
  0
VERTEX
  8
0
 10
0.564344
 20
1.90983
 30
0.0
 40
0
 41
0
  0
VERTEX
  8
0
 10
0.56071
 20
1.91564
 30
0.0
 40
0
 41
0
  0
VERTEX
  8
0
 10
0.557129
 20
1.92165
 30
0.0
 40
0
 41
0
  0
VERTEX
  8
0
 10
0.54476
 20
1.95378
 30
0.0
 40
0
 41
0
  0
VERTEX
  8
0
 10
0.539714
 20
1.98785
 30
0.0
 40
0
 41
0
  0
VERTEX
  8
0
 10
0.539876
 20
1.99479
 30
0.0
 40
0
 41
0
  0
VERTEX
  8
0
 10
0.539714
 20
2.00244
 30
0.0
 40
0
 41
0
  0
VERTEX
  8
0
 10
0.546061
 20
2.03956
 30
0.0
 40
0
 41
0
  0
VERTEX
  8
0
 10
0.561686
 20
2.07383
 30
0.0
 40
0
 41
0
  0
VERTEX
  8
0
 10
0.566135
 20
2.08003
 30
0.0
 40
0
 41
0
  0
VERTEX
  8
0
 10
0.571235
 20
2.08664
 30
0.0
 40
0
 41
0
  0
VERTEX
  8
0
 10
0.601346
 20
2.11501
 30
0.0
 40
0
 41
0
  0
VERTEX
  8
0
 10
0.636664
 20
2.13656
 30
0.0
 40
0
 41
0
  0
VERTEX
  8
0
 10
0.644368
 20
2.13971
 30
0.0
 40
0
 41
0
  0
VERTEX
  8
0
 10
0.654676
 20
2.1441
 30
0.0
 40
0
 41
0
  0
VERTEX
  8
0
 10
0.762696
 20
2.17324
 30
0.0
 40
0
 41
0
  0
VERTEX
  8
0
 10
0.773872
 20
2.17458
 30
0.0
 40
0
 41
0
  0
VERTEX
  8
0
 10
0.788738
 20
2.17665
 30
0.0
 40
0
 41
0
  0
VERTEX
  8
0
 10
0.938585
 20
2.18608
 30
0.0
 40
0
 41
0
  0
VERTEX
  8
0
 10
0.953668
 20
2.18593
 30
0.0
 40
0
 41
0
  0
VERTEX
  8
0
 10
1.02843
 20
2.18593
 30
0.0
 40
0
 41
0
  0
VERTEX
  8
0
 10
1.02843
 20
2.21978
 30
0.0
 40
0
 41
0
  0
VERTEX
  8
0
 10
1.02848
 20
2.22374
 30
0.0
 40
0
 41
0
  0
VERTEX
  8
0
 10
1.02241
 20
2.26238
 30
0.0
 40
0
 41
0
  0
VERTEX
  8
0
 10
1.02116
 20
2.26606
 30
0.0
 40
0
 41
0
  0
VERTEX
  8
0
 10
1.01997
 20
2.26932
 30
0.0
 40
0
 41
0
  0
VERTEX
  8
0
 10
0.999783
 20
2.29693
 30
0.0
 40
0
 41
0
  0
VERTEX
  8
0
 10
0.997071
 20
2.29904
 30
0.0
 40
0
 41
0
  0
VERTEX
  8
0
 10
0.993707
 20
2.30149
 30
0.0
 40
0
 41
0
  0
VERTEX
  8
0
 10
0.956326
 20
2.31776
 30
0.0
 40
0
 41
0
  0
VERTEX
  8
0
 10
0.952311
 20
2.31853
 30
0.0
 40
0
 41
0
  0
VERTEX
  8
0
 10
0.94656
 20
2.31972
 30
0.0
 40
0
 41
0
  0
VERTEX
  8
0
 10
0.888835
 20
2.32493
 30
0.0
 40
0
 41
0
  0
VERTEX
  8
0
 10
0.883029
 20
2.32482
 30
0.0
 40
0
 41
0
  0
VERTEX
  8
0
 10
0.874892
 20
2.32493
 30
0.0
 40
0
 41
0
  0
VERTEX
  8
0
 10
0.794271
 20
2.3176
 30
0.0
 40
0
 41
0
  0
VERTEX
  8
0
 10
0.78635
 20
2.31603
 30
0.0
 40
0
 41
0
  0
VERTEX
  8
0
 10
0.779949
 20
2.31478
 30
0.0
 40
0
 41
0
  0
VERTEX
  8
0
 10
0.717231
 20
2.29844
 30
0.0
 40
0
 41
0
  0
VERTEX
  8
0
 10
0.711046
 20
2.29644
 30
0.0
 40
0
 41
0
  0
VERTEX
  8
0
 10
0.705567
 20
2.29471
 30
0.0
 40
0
 41
0
  0
VERTEX
  8
0
 10
0.660101
 20
2.27849
 30
0.0
 40
0
 41
0
  0
VERTEX
  8
0
 10
0.656467
 20
2.27696
 30
0.0
 40
0
 41
0
  0
VERTEX
  8
0
 10
0.653646
 20
2.27572
 30
0.0
 40
0
 41
0
  0
VERTEX
  8
0
 10
0.623807
 20
2.26844
 30
0.0
 40
0
 41
0
  0
VERTEX
  8
0
 10
0.620714
 20
2.26824
 30
0.0
 40
0
 41
0
  0
VERTEX
  8
0
 10
0.619249
 20
2.26824
 30
0.0
 40
0
 41
0
  0
VERTEX
  8
0
 10
0.605197
 20
2.27192
 30
0.0
 40
0
 41
0
  0
VERTEX
  8
0
 10
0.60395
 20
2.27262
 30
0.0
 40
0
 41
0
  0
VERTEX
  8
0
 10
0.602701
 20
2.27344
 30
0.0
 40
0
 41
0
  0
VERTEX
  8
0
 10
0.592665
 20
2.28396
 30
0.0
 40
0
 41
0
  0
VERTEX
  8
0
 10
0.59196
 20
2.28521
 30
0.0
 40
0
 41
0
  0
VERTEX
  8
0
 10
0.591092
 20
2.28678
 30
0.0
 40
0
 41
0
  0
VERTEX
  8
0
 10
0.584907
 20
2.3036
 30
0.0
 40
0
 41
0
  0
VERTEX
  8
0
 10
0.584581
 20
2.30533
 30
0.0
 40
0
 41
0
  0
VERTEX
  8
0
 10
0.584147
 20
2.30751
 30
0.0
 40
0
 41
0
  0
VERTEX
  8
0
 10
0.582032
 20
2.32949
 30
0.0
 40
0
 41
0
  0
VERTEX
  8
0
 10
0.582086
 20
2.33165
 30
0.0
 40
0
 41
0
  0
VERTEX
  8
0
 10
0.581922
 20
2.33431
 30
0.0
 40
0
 41
0
  0
VERTEX
  8
0
 10
0.585504
 20
2.3604
 30
0.0
 40
0
 41
0
  0
VERTEX
  8
0
 10
0.586372
 20
2.3629
 30
0.0
 40
0
 41
0
  0
VERTEX
  8
0
 10
0.587185
 20
2.36501
 30
0.0
 40
0
 41
0
  0
VERTEX
  8
0
 10
0.600857
 20
2.38243
 30
0.0
 40
0
 41
0
  0
VERTEX
  8
0
 10
0.602701
 20
2.38374
 30
0.0
 40
0
 41
0
  0
VERTEX
  8
0
 10
0.605903
 20
2.3859
 30
0.0
 40
0
 41
0
  0
VERTEX
  8
0
 10
0.640679
 20
2.40267
 30
0.0
 40
0
 41
0
  0
VERTEX
  8
0
 10
0.644368
 20
2.40386
 30
0.0
 40
0
 41
0
  0
VERTEX
  8
0
 10
0.650119
 20
2.40597
 30
0.0
 40
0
 41
0
  0
VERTEX
  8
0
 10
0.708876
 20
2.42333
 30
0.0
 40
0
 41
0
  0
VERTEX
  8
0
 10
0.714899
 20
2.42469
 30
0.0
 40
0
 41
0
  0
VERTEX
  8
0
 10
0.722168
 20
2.42638
 30
0.0
 40
0
 41
0
  0
VERTEX
  8
0
 10
0.795682
 20
2.43924
 30
0.0
 40
0
 41
0
  0
VERTEX
  8
0
 10
0.803114
 20
2.44011
 30
0.0
 40
0
 41
0
  0
VERTEX
  8
0
 10
0.811253
 20
2.44114
 30
0.0
 40
0
 41
0
  0
VERTEX
  8
0
 10
0.893337
 20
2.44607
 30
0.0
 40
0
 41
0
  0
VERTEX
  8
0
 10
0.901585
 20
2.44601
 30
0.0
 40
0
 41
0
  0
VERTEX
  8
0
 10
0.914497
 20
2.44624
 30
0.0
 40
0
 41
0
  0
VERTEX
  8
0
 10
1.04319
 20
2.43554
 30
0.0
 40
0
 41
0
  0
VERTEX
  8
0
 10
1.05593
 20
2.43321
 30
0.0
 40
0
 41
0
  0
VERTEX
  8
0
 10
1.06521
 20
2.43158
 30
0.0
 40
0
 41
0
  0
VERTEX
  8
0
 10
1.11046
 20
2.4184
 30
0.0
 40
0
 41
0
  0
VERTEX
  8
0
 10
1.15321
 20
2.3986
 30
0.0
 40
0
 41
0
  0
VERTEX
  8
0
 10
1.16135
 20
2.39367
 30
0.0
 40
0
 41
0
  0
VERTEX
  8
0
 10
1.16791
 20
2.38954
 30
0.0
 40
0
 41
0
  0
VERTEX
  8
0
 10
1.19651
 20
2.36367
 30
0.0
 40
0
 41
0
  0
VERTEX
  8
0
 10
1.21832
 20
2.33192
 30
0.0
 40
0
 41
0
  0
VERTEX
  8
0
 10
1.22157
 20
2.32482
 30
0.0
 40
0
 41
0
  0
VERTEX
  8
0
 10
1.22488
 20
2.31694
 30
0.0
 40
0
 41
0
  0
VERTEX
  8
0
 10
1.23627
 20
2.27588
 30
0.0
 40
0
 41
0
  0
VERTEX
  8
0
 10
1.24061
 20
2.23346
 30
0.0
 40
0
 41
0
  0
VERTEX
  8
0
 10
1.2404
 20
2.22487
 30
0.0
 40
0
 41
0
  0
VERTEX
  8
0
 10
1.24105
 20
1.84614
 30
0.0
 40
0
 41
0
  0
SEQEND
 8
0
  0
POLYLINE
  8
0
 62
     253
 66
     1
 10
0
 20
0
 30
0.0
 70
     1
 40
0
 41
0
  0
VERTEX
  8
0
 10
1.02865
 20
2.08572
 30
0.0
 40
0
 41
0
  0
VERTEX
  8
0
 10
0.946018
 20
2.08572
 30
0.0
 40
0
 41
0
  0
VERTEX
  8
0
 10
0.938531
 20
2.08583
 30
0.0
 40
0
 41
0
  0
VERTEX
  8
0
 10
0.86404
 20
2.08111
 30
0.0
 40
0
 41
0
  0
VERTEX
  8
0
 10
0.856662
 20
2.08008
 30
0.0
 40
0
 41
0
  0
VERTEX
  8
0
 10
0.851454
 20
2.07943
 30
0.0
 40
0
 41
0
  0
VERTEX
  8
0
 10
0.801215
 20
2.06532
 30
0.0
 40
0
 41
0
  0
VERTEX
  8
0
 10
0.796442
 20
2.06315
 30
0.0
 40
0
 41
0
  0
VERTEX
  8
0
 10
0.793024
 20
2.06168
 30
0.0
 40
0
 41
0
  0
VERTEX
  8
0
 10
0.76454
 20
2.03879
 30
0.0
 40
0
 41
0
  0
VERTEX
  8
0
 10
0.762369
 20
2.03575
 30
0.0
 40
0
 41
0
  0
VERTEX
  8
0
 10
0.760579
 20
2.03304
 30
0.0
 40
0
 41
0
  0
VERTEX
  8
0
 10
0.751844
 20
2.00233
 30
0.0
 40
0
 41
0
  0
VERTEX
  8
0
 10
0.751953
 20
1.99908
 30
0.0
 40
0
 41
0
  0
VERTEX
  8
0
 10
0.75179
 20
1.99343
 30
0.0
 40
0
 41
0
  0
VERTEX
  8
0
 10
0.759711
 20
1.96729
 30
0.0
 40
0
 41
0
  0
VERTEX
  8
0
 10
0.777615
 20
1.94667
 30
0.0
 40
0
 41
0
  0
VERTEX
  8
0
 10
0.782497
 20
1.94374
 30
0.0
 40
0
 41
0
  0
VERTEX
  8
0
 10
0.787597
 20
1.94043
 30
0.0
 40
0
 41
0
  0
VERTEX
  8
0
 10
0.818956
 20
1.92865
 30
0.0
 40
0
 41
0
  0
VERTEX
  8
0
 10
0.858236
 20
1.92361
 30
0.0
 40
0
 41
0
  0
VERTEX
  8
0
 10
0.867296
 20
1.92356
 30
0.0
 40
0
 41
0
  0
VERTEX
  8
0
 10
0.874457
 20
1.9235
 30
0.0
 40
0
 41
0
  0
VERTEX
  8
0
 10
0.944011
 20
1.93772
 30
0.0
 40
0
 41
0
  0
VERTEX
  8
0
 10
0.950629
 20
1.94054
 30
0.0
 40
0
 41
0
  0
VERTEX
  8
0
 10
0.957628
 20
1.94379
 30
0.0
 40
0
 41
0
  0
VERTEX
  8
0
 10
1.02252
 20
1.98525
 30
0.0
 40
0
 41
0
  0
VERTEX
  8
0
 10
1.02843
 20
1.99024
 30
0.0
 40
0
 41
0
  0
VERTEX
  8
0
 10
1.02865
 20
2.08572
 30
0.0
 40
0
 41
0
  0
SEQEND
 8
0
  0
POLYLINE
  8
0
 62
     253
 66
     1
 10
0
 20
0
 30
0.0
 70
     1
 40
0
 41
0
  0
VERTEX
  8
0
 10
0.952908
 20
2.68343
 30
0.0
 40
0
 41
0
  0
VERTEX
  8
0
 10
0.953939
 20
2.68463
 30
0.0
 40
0
 41
0
  0
VERTEX
  8
0
 10
0.9662
 20
2.69467
 30
0.0
 40
0
 41
0
  0
VERTEX
  8
0
 10
0.967611
 20
2.69542
 30
0.0
 40
0
 41
0
  0
VERTEX
  8
0
 10
0.969239
 20
2.69635
 30
0.0
 40
0
 41
0
  0
VERTEX
  8
0
 10
0.987142
 20
2.7029
 30
0.0
 40
0
 41
0
  0
VERTEX
  8
0
 10
0.98904
 20
2.70324
 30
0.0
 40
0
 41
0
  0
VERTEX
  8
0
 10
0.991699
 20
2.70383
 30
0.0
 40
0
 41
0
  0
VERTEX
  8
0
 10
1.01899
 20
2.70731
 30
0.0
 40
0
 41
0
  0
VERTEX
  8
0
 10
1.02176
 20
2.70742
 30
0.0
 40
0
 41
0
  0
VERTEX
  8
0
 10
1.02501
 20
2.70763
 30
0.0
 40
0
 41
0
  0
VERTEX
  8
0
 10
1.05865
 20
2.70865
 30
0.0
 40
0
 41
0
  0
VERTEX
  8
0
 10
1.06988
 20
2.70865
 30
0.0
 40
0
 41
0
  0
VERTEX
  8
0
 10
1.07509
 20
2.70871
 30
0.0
 40
0
 41
0
  0
VERTEX
  8
0
 10
1.12717
 20
2.70665
 30
0.0
 40
0
 41
0
  0
VERTEX
  8
0
 10
1.13238
 20
2.70617
 30
0.0
 40
0
 41
0
  0
VERTEX
  8
0
 10
1.13515
 20
2.706
 30
0.0
 40
0
 41
0
  0
VERTEX
  8
0
 10
1.16243
 20
2.69988
 30
0.0
 40
0
 41
0
  0
VERTEX
  8
0
 10
1.16509
 20
2.69883
 30
0.0
 40
0
 41
0
  0
VERTEX
  8
0
 10
1.16672
 20
2.69808
 30
0.0
 40
0
 41
0
  0
VERTEX
  8
0
 10
1.17421
 20
2.68935
 30
0.0
 40
0
 41
0
  0
VERTEX
  8
0
 10
1.17405
 20
2.68842
 30
0.0
 40
0
 41
0
  0
VERTEX
  8
0
 10
1.17372
 20
2.68713
 30
0.0
 40
0
 41
0
  0
VERTEX
  8
0
 10
1.16661
 20
2.676
 30
0.0
 40
0
 41
0
  0
VERTEX
  8
0
 10
1.16553
 20
2.67518
 30
0.0
 40
0
 41
0
  0
VERTEX
  8
0
 10
0.998861
 20
2.52935
 30
0.0
 40
0
 41
0
  0
VERTEX
  8
0
 10
0.997775
 20
2.52838
 30
0.0
 40
0
 41
0
  0
VERTEX
  8
0
 10
0.986274
 20
2.51969
 30
0.0
 40
0
 41
0
  0
VERTEX
  8
0
 10
0.985081
 20
2.51893
 30
0.0
 40
0
 41
0
  0
VERTEX
  8
0
 10
0.98367
 20
2.51818
 30
0.0
 40
0
 41
0
  0
VERTEX
  8
0
 10
0.969021
 20
2.51264
 30
0.0
 40
0
 41
0
  0
VERTEX
  8
0
 10
0.967503
 20
2.51232
 30
0.0
 40
0
 41
0
  0
VERTEX
  8
0
 10
0.965224
 20
2.51183
 30
0.0
 40
0
 41
0
  0
VERTEX
  8
0
 10
0.9426
 20
2.50868
 30
0.0
 40
0
 41
0
  0
VERTEX
  8
0
 10
0.940321
 20
2.50851
 30
0.0
 40
0
 41
0
  0
VERTEX
  8
0
 10
0.937608
 20
2.50836
 30
0.0
 40
0
 41
0
  0
VERTEX
  8
0
 10
0.908365
 20
2.50726
 30
0.0
 40
0
 41
0
  0
VERTEX
  8
0
 10
0.898654
 20
2.50726
 30
0.0
 40
0
 41
0
  0
VERTEX
  8
0
 10
0.89464
 20
2.50726
 30
0.0
 40
0
 41
0
  0
VERTEX
  8
0
 10
0.854872
 20
2.50885
 30
0.0
 40
0
 41
0
  0
VERTEX
  8
0
 10
0.850911
 20
2.50917
 30
0.0
 40
0
 41
0
  0
VERTEX
  8
0
 10
0.848796
 20
2.50928
 30
0.0
 40
0
 41
0
  0
VERTEX
  8
0
 10
0.828342
 20
2.51421
 30
0.0
 40
0
 41
0
  0
VERTEX
  8
0
 10
0.826443
 20
2.51508
 30
0.0
 40
0
 41
0
  0
VERTEX
  8
0
 10
0.825412
 20
2.51557
 30
0.0
 40
0
 41
0
  0
VERTEX
  8
0
 10
0.820637
 20
2.52442
 30
0.0
 40
0
 41
0
  0
VERTEX
  8
0
 10
0.820856
 20
2.5255
 30
0.0
 40
0
 41
0
  0
VERTEX
  8
0
 10
0.821235
 20
2.52692
 30
0.0
 40
0
 41
0
  0
VERTEX
  8
0
 10
0.828831
 20
2.53901
 30
0.0
 40
0
 41
0
  0
VERTEX
  8
0
 10
0.829915
 20
2.53999
 30
0.0
 40
0
 41
0
  0
VERTEX
  8
0
 10
0.952908
 20
2.68343
 30
0.0
 40
0
 41
0
  0
SEQEND
 8
0
  0
POLYLINE
  8
0
 62
     253
 66
     1
 10
0
 20
0
 30
0.0
 70
     1
 40
0
 41
0
  0
VERTEX
  8
0
 10
2.18457
 20
1.84804
 30
0.0
 40
0
 41
0
  0
VERTEX
  8
0
 10
2.18457
 20
1.847
 30
0.0
 40
0
 41
0
  0
VERTEX
  8
0
 10
2.18104
 20
1.83729
 30
0.0
 40
0
 41
0
  0
VERTEX
  8
0
 10
2.18033
 20
1.83649
 30
0.0
 40
0
 41
0
  0
VERTEX
  8
0
 10
2.17931
 20
1.8355
 30
0.0
 40
0
 41
0
  0
VERTEX
  8
0
 10
2.16699
 20
1.82889
 30
0.0
 40
0
 41
0
  0
VERTEX
  8
0
 10
2.16564
 20
1.82856
 30
0.0
 40
0
 41
0
  0
VERTEX
  8
0
 10
2.16336
 20
1.82796
 30
0.0
 40
0
 41
0
  0
VERTEX
  8
0
 10
2.14003
 20
1.82428
 30
0.0
 40
0
 41
0
  0
VERTEX
  8
0
 10
2.13769
 20
1.82417
 30
0.0
 40
0
 41
0
  0
VERTEX
  8
0
 10
2.13476
 20
1.824
 30
0.0
 40
0
 41
0
  0
VERTEX
  8
0
 10
2.10439
 20
1.82292
 30
0.0
 40
0
 41
0
  0
VERTEX
  8
0
 10
2.09429
 20
1.82292
 30
0.0
 40
0
 41
0
  0
VERTEX
  8
0
 10
2.08311
 20
1.82292
 30
0.0
 40
0
 41
0
  0
VERTEX
  8
0
 10
2.0524
 20
1.824
 30
0.0
 40
0
 41
0
  0
VERTEX
  8
0
 10
2.04958
 20
1.82417
 30
0.0
 40
0
 41
0
  0
VERTEX
  8
0
 10
2.04719
 20
1.82433
 30
0.0
 40
0
 41
0
  0
VERTEX
  8
0
 10
2.02382
 20
1.82796
 30
0.0
 40
0
 41
0
  0
VERTEX
  8
0
 10
2.02154
 20
1.82856
 30
0.0
 40
0
 41
0
  0
VERTEX
  8
0
 10
2.02007
 20
1.82894
 30
0.0
 40
0
 41
0
  0
VERTEX
  8
0
 10
2.00722
 20
1.83556
 30
0.0
 40
0
 41
0
  0
VERTEX
  8
0
 10
2.00612
 20
1.83649
 30
0.0
 40
0
 41
0
  0
VERTEX
  8
0
 10
2.00532
 20
1.83724
 30
0.0
 40
0
 41
0
  0
VERTEX
  8
0
 10
2.00131
 20
1.84694
 30
0.0
 40
0
 41
0
  0
VERTEX
  8
0
 10
2.00136
 20
1.84804
 30
0.0
 40
0
 41
0
  0
VERTEX
  8
0
 10
2.00136
 20
1.91054
 30
0.0
 40
0
 41
0
  0
VERTEX
  8
0
 10
1.99192
 20
1.90306
 30
0.0
 40
0
 41
0
  0
VERTEX
  8
0
 10
1.94179
 20
1.8699
 30
0.0
 40
0
 41
0
  0
VERTEX
  8
0
 10
1.88824
 20
1.84272
 30
0.0
 40
0
 41
0
  0
VERTEX
  8
0
 10
1.87706
 20
1.83822
 30
0.0
 40
0
 41
0
  0
VERTEX
  8
0
 10
1.86556
 20
1.83382
 30
0.0
 40
0
 41
0
  0
VERTEX
  8
0
 10
1.80626
 20
1.81853
 30
0.0
 40
0
 41
0
  0
VERTEX
  8
0
 10
1.74528
 20
1.81233
 30
0.0
 40
0
 41
0
  0
VERTEX
  8
0
 10
1.73301
 20
1.8125
 30
0.0
 40
0
 41
0
  0
VERTEX
  8
0
 10
1.72037
 20
1.81218
 30
0.0
 40
0
 41
0
  0
VERTEX
  8
0
 10
1.65761
 20
1.81782
 30
0.0
 40
0
 41
0
  0
VERTEX
  8
0
 10
1.59651
 20
1.83296
 30
0.0
 40
0
 41
0
  0
VERTEX
  8
0
 10
1.58469
 20
1.8374
 30
0.0
 40
0
 41
0
  0
VERTEX
  8
0
 10
1.57525
 20
1.8411
 30
0.0
 40
0
 41
0
  0
VERTEX
  8
0
 10
1.53142
 20
1.86529
 30
0.0
 40
0
 41
0
  0
VERTEX
  8
0
 10
1.49263
 20
1.89697
 30
0.0
 40
0
 41
0
  0
VERTEX
  8
0
 10
1.48574
 20
1.90429
 30
0.0
 40
0
 41
0
  0
VERTEX
  8
0
 10
1.47933
 20
1.9114
 30
0.0
 40
0
 41
0
  0
VERTEX
  8
0
 10
1.45253
 20
1.95042
 30
0.0
 40
0
 41
0
  0
VERTEX
  8
0
 10
1.43306
 20
1.9936
 30
0.0
 40
0
 41
0
  0
VERTEX
  8
0
 10
1.43033
 20
2.00271
 30
0.0
 40
0
 41
0
  0
VERTEX
  8
0
 10
1.4274
 20
2.01232
 30
0.0
 40
0
 41
0
  0
VERTEX
  8
0
 10
1.41308
 20
2.11117
 30
0.0
 40
0
 41
0
  0
VERTEX
  8
0
 10
1.41314
 20
2.12115
 30
0.0
 40
0
 41
0
  0
VERTEX
  8
0
 10
1.41292
 20
2.1326
 30
0.0
 40
0
 41
0
  0
VERTEX
  8
0
 10
1.41813
 20
2.1894
 30
0.0
 40
0
 41
0
  0
VERTEX
  8
0
 10
1.43121
 20
2.24485
 30
0.0
 40
0
 41
0
  0
VERTEX
  8
0
 10
1.435
 20
2.25564
 30
0.0
 40
0
 41
0
  0
VERTEX
  8
0
 10
1.44006
 20
2.27013
 30
0.0
 40
0
 41
0
  0
VERTEX
  8
0
 10
1.46186
 20
2.31125
 30
0.0
 40
0
 41
0
  0
VERTEX
  8
0
 10
1.50011
 20
2.35867
 30
0.0
 40
0
 41
0
  0
VERTEX
  8
0
 10
1.54807
 20
2.39626
 30
0.0
 40
0
 41
0
  0
VERTEX
  8
0
 10
1.58951
 20
2.41749
 30
0.0
 40
0
 41
0
  0
VERTEX
  8
0
 10
1.60406
 20
2.42231
 30
0.0
 40
0
 41
0
  0
VERTEX
  8
0
 10
1.61567
 20
2.42626
 30
0.0
 40
0
 41
0
  0
VERTEX
  8
0
 10
1.67529
 20
2.43989
 30
0.0
 40
0
 41
0
  0
VERTEX
  8
0
 10
1.73622
 20
2.44515
 30
0.0
 40
0
 41
0
  0
VERTEX
  8
0
 10
1.74854
 20
2.44488
 30
0.0
 40
0
 41
0
  0
VERTEX
  8
0
 10
1.75846
 20
2.44504
 30
0.0
 40
0
 41
0
  0
VERTEX
  8
0
 10
1.85613
 20
2.42904
 30
0.0
 40
0
 41
0
  0
VERTEX
  8
0
 10
1.8655
 20
2.42572
 30
0.0
 40
0
 41
0
  0
VERTEX
  8
0
 10
1.87478
 20
2.42231
 30
0.0
 40
0
 41
0
  0
VERTEX
  8
0
 10
1.96164
 20
2.37537
 30
0.0
 40
0
 41
0
  0
VERTEX
  8
0
 10
1.96967
 20
2.36947
 30
0.0
 40
0
 41
0
  0
VERTEX
  8
0
 10
1.96967
 20
2.67269
 30
0.0
 40
0
 41
0
  0
VERTEX
  8
0
 10
1.96967
 20
2.67378
 30
0.0
 40
0
 41
0
  0
VERTEX
  8
0
 10
1.97364
 20
2.68326
 30
0.0
 40
0
 41
0
  0
VERTEX
  8
0
 10
1.97439
 20
2.68397
 30
0.0
 40
0
 41
0
  0
VERTEX
  8
0
 10
1.97558
 20
2.68506
 30
0.0
 40
0
 41
0
  0
VERTEX
  8
0
 10
1.9899
 20
2.69217
 30
0.0
 40
0
 41
0
  0
VERTEX
  8
0
 10
1.99154
 20
2.69249
 30
0.0
 40
0
 41
0
  0
VERTEX
  8
0
 10
1.99425
 20
2.69319
 30
0.0
 40
0
 41
0
  0
VERTEX
  8
0
 10
2.02186
 20
2.69764
 30
0.0
 40
0
 41
0
  0
VERTEX
  8
0
 10
2.02468
 20
2.69781
 30
0.0
 40
0
 41
0
  0
VERTEX
  8
0
 10
2.02815
 20
2.69814
 30
0.0
 40
0
 41
0
  0
VERTEX
  8
0
 10
2.06461
 20
2.69971
 30
0.0
 40
0
 41
0
  0
VERTEX
  8
0
 10
2.07676
 20
2.69971
 30
0.0
 40
0
 41
0
  0
VERTEX
  8
0
 10
2.08979
 20
2.69971
 30
0.0
 40
0
 41
0
  0
VERTEX
  8
0
 10
2.12549
 20
2.69814
 30
0.0
 40
0
 41
0
  0
VERTEX
  8
0
 10
2.12885
 20
2.69781
 30
0.0
 40
0
 41
0
  0
VERTEX
  8
0
 10
2.13157
 20
2.69764
 30
0.0
 40
0
 41
0
  0
VERTEX
  8
0
 10
2.15875
 20
2.69319
 30
0.0
 40
0
 41
0
  0
VERTEX
  8
0
 10
2.16146
 20
2.69249
 30
0.0
 40
0
 41
0
  0
VERTEX
  8
0
 10
2.16303
 20
2.69217
 30
0.0
 40
0
 41
0
  0
VERTEX
  8
0
 10
2.1774
 20
2.68506
 30
0.0
 40
0
 41
0
  0
VERTEX
  8
0
 10
2.17865
 20
2.68397
 30
0.0
 40
0
 41
0
  0
VERTEX
  8
0
 10
2.17942
 20
2.68326
 30
0.0
 40
0
 41
0
  0
VERTEX
  8
0
 10
2.18381
 20
2.67378
 30
0.0
 40
0
 41
0
  0
VERTEX
  8
0
 10
2.18386
 20
2.67269
 30
0.0
 40
0
 41
0
  0
VERTEX
  8
0
 10
2.18457
 20
1.84804
 30
0.0
 40
0
 41
0
  0
SEQEND
 8
0
  0
POLYLINE
  8
0
 62
     253
 66
     1
 10
0
 20
0
 30
0.0
 70
     1
 40
0
 41
0
  0
VERTEX
  8
0
 10
1.96957
 20
2.22304
 30
0.0
 40
0
 41
0
  0
VERTEX
  8
0
 10
1.96283
 20
2.22944
 30
0.0
 40
0
 41
0
  0
VERTEX
  8
0
 10
1.88861
 20
2.2839
 30
0.0
 40
0
 41
0
  0
VERTEX
  8
0
 10
1.88053
 20
2.28836
 30
0.0
 40
0
 41
0
  0
VERTEX
  8
0
 10
1.87369
 20
2.2921
 30
0.0
 40
0
 41
0
  0
VERTEX
  8
0
 10
1.8374
 20
2.30524
 30
0.0
 40
0
 41
0
  0
VERTEX
  8
0
 10
1.803
 20
2.31093
 30
0.0
 40
0
 41
0
  0
VERTEX
  8
0
 10
1.79156
 20
2.31093
 30
0.0
 40
0
 41
0
  0
VERTEX
  8
0
 10
1.78526
 20
2.31114
 30
0.0
 40
0
 41
0
  0
VERTEX
  8
0
 10
1.72428
 20
2.29824
 30
0.0
 40
0
 41
0
  0
VERTEX
  8
0
 10
1.71864
 20
2.29551
 30
0.0
 40
0
 41
0
  0
VERTEX
  8
0
 10
1.71376
 20
2.29312
 30
0.0
 40
0
 41
0
  0
VERTEX
  8
0
 10
1.67275
 20
2.25831
 30
0.0
 40
0
 41
0
  0
VERTEX
  8
0
 10
1.6696
 20
2.25385
 30
0.0
 40
0
 41
0
  0
VERTEX
  8
0
 10
1.66644
 20
2.24951
 30
0.0
 40
0
 41
0
  0
VERTEX
  8
0
 10
1.6435
 20
2.2015
 30
0.0
 40
0
 41
0
  0
VERTEX
  8
0
 10
1.64208
 20
2.19635
 30
0.0
 40
0
 41
0
  0
VERTEX
  8
0
 10
1.64057
 20
2.19108
 30
0.0
 40
0
 41
0
  0
VERTEX
  8
0
 10
1.63297
 20
2.13687
 30
0.0
 40
0
 41
0
  0
VERTEX
  8
0
 10
1.63303
 20
2.13135
 30
0.0
 40
0
 41
0
  0
VERTEX
  8
0
 10
1.63297
 20
2.1256
 30
0.0
 40
0
 41
0
  0
VERTEX
  8
0
 10
1.63949
 20
2.06847
 30
0.0
 40
0
 41
0
  0
VERTEX
  8
0
 10
1.64085
 20
2.06282
 30
0.0
 40
0
 41
0
  0
VERTEX
  8
0
 10
1.64199
 20
2.05757
 30
0.0
 40
0
 41
0
  0
VERTEX
  8
0
 10
1.66308
 20
2.00797
 30
0.0
 40
0
 41
0
  0
VERTEX
  8
0
 10
1.66612
 20
2.00342
 30
0.0
 40
0
 41
0
  0
VERTEX
  8
0
 10
1.66911
 20
1.99908
 30
0.0
 40
0
 41
0
  0
VERTEX
  8
0
 10
1.70828
 20
1.96425
 30
0.0
 40
0
 41
0
  0
VERTEX
  8
0
 10
1.713
 20
1.96175
 30
0.0
 40
0
 41
0
  0
VERTEX
  8
0
 10
1.71875
 20
1.95899
 30
0.0
 40
0
 41
0
  0
VERTEX
  8
0
 10
1.7806
 20
1.9459
 30
0.0
 40
0
 41
0
  0
VERTEX
  8
0
 10
1.787
 20
1.94613
 30
0.0
 40
0
 41
0
  0
VERTEX
  8
0
 10
1.79785
 20
1.94613
 30
0.0
 40
0
 41
0
  0
VERTEX
  8
0
 10
1.82682
 20
1.95008
 30
0.0
 40
0
 41
0
  0
VERTEX
  8
0
 10
1.8304
 20
1.95085
 30
0.0
 40
0
 41
0
  0
VERTEX
  8
0
 10
1.8341
 20
1.95171
 30
0.0
 40
0
 41
0
  0
VERTEX
  8
0
 10
1.87001
 20
1.96457
 30
0.0
 40
0
 41
0
  0
VERTEX
  8
0
 10
1.87343
 20
1.96625
 30
0.0
 40
0
 41
0
  0
VERTEX
  8
0
 10
1.87739
 20
1.96826
 30
0.0
 40
0
 41
0
  0
VERTEX
  8
0
 10
1.91504
 20
1.99149
 30
0.0
 40
0
 41
0
  0
VERTEX
  8
0
 10
1.91863
 20
1.99414
 30
0.0
 40
0
 41
0
  0
VERTEX
  8
0
 10
1.92247
 20
1.99707
 30
0.0
 40
0
 41
0
  0
VERTEX
  8
0
 10
1.96479
 20
2.0325
 30
0.0
 40
0
 41
0
  0
VERTEX
  8
0
 10
1.9694
 20
2.03668
 30
0.0
 40
0
 41
0
  0
VERTEX
  8
0
 10
1.96957
 20
2.22304
 30
0.0
 40
0
 41
0
  0
SEQEND
 8
0
  0
POLYLINE
  8
0
 62
     253
 66
     1
 10
0
 20
0
 30
0.0
 70
     1
 40
0
 41
0
  0
VERTEX
  8
0
 10
2.63542
 20
2.59853
 30
0.0
 40
0
 41
0
  0
VERTEX
  8
0
 10
2.63542
 20
2.58843
 30
0.0
 40
0
 41
0
  0
VERTEX
  8
0
 10
2.62869
 20
2.55817
 30
0.0
 40
0
 41
0
  0
VERTEX
  8
0
 10
2.61313
 20
2.5356
 30
0.0
 40
0
 41
0
  0
VERTEX
  8
0
 10
2.60872
 20
2.5325
 30
0.0
 40
0
 41
0
  0
VERTEX
  8
0
 10
2.60428
 20
2.52946
 30
0.0
 40
0
 41
0
  0
VERTEX
  8
0
 10
2.57064
 20
2.51882
 30
0.0
 40
0
 41
0
  0
VERTEX
  8
0
 10
2.52496
 20
2.51426
 30
0.0
 40
0
 41
0
  0
VERTEX
  8
0
 10
2.50976
 20
2.51426
 30
0.0
 40
0
 41
0
  0
VERTEX
  8
0
 10
2.49451
 20
2.51426
 30
0.0
 40
0
 41
0
  0
VERTEX
  8
0
 10
2.44883
 20
2.51872
 30
0.0
 40
0
 41
0
  0
VERTEX
  8
0
 10
2.41553
 20
2.52897
 30
0.0
 40
0
 41
0
  0
VERTEX
  8
0
 10
2.41135
 20
2.5319
 30
0.0
 40
0
 41
0
  0
VERTEX
  8
0
 10
2.40713
 20
2.53483
 30
0.0
 40
0
 41
0
  0
VERTEX
  8
0
 10
2.39231
 20
2.55658
 30
0.0
 40
0
 41
0
  0
VERTEX
  8
0
 10
2.38596
 20
2.58572
 30
0.0
 40
0
 41
0
  0
VERTEX
  8
0
 10
2.38596
 20
2.59543
 30
0.0
 40
0
 41
0
  0
VERTEX
  8
0
 10
2.38596
 20
2.60547
 30
0.0
 40
0
 41
0
  0
VERTEX
  8
0
 10
2.39247
 20
2.63542
 30
0.0
 40
0
 41
0
  0
VERTEX
  8
0
 10
2.40776
 20
2.65864
 30
0.0
 40
0
 41
0
  0
VERTEX
  8
0
 10
2.41217
 20
2.66168
 30
0.0
 40
0
 41
0
  0
VERTEX
  8
0
 10
2.4165
 20
2.66476
 30
0.0
 40
0
 41
0
  0
VERTEX
  8
0
 10
2.45014
 20
2.67557
 30
0.0
 40
0
 41
0
  0
VERTEX
  8
0
 10
2.49621
 20
2.68024
 30
0.0
 40
0
 41
0
  0
VERTEX
  8
0
 10
2.51156
 20
2.68024
 30
0.0
 40
0
 41
0
  0
VERTEX
  8
0
 10
2.52675
 20
2.68024
 30
0.0
 40
0
 41
0
  0
VERTEX
  8
0
 10
2.57237
 20
2.67578
 30
0.0
 40
0
 41
0
  0
VERTEX
  8
0
 10
2.60525
 20
2.66531
 30
0.0
 40
0
 41
0
  0
VERTEX
  8
0
 10
2.6096
 20
2.66228
 30
0.0
 40
0
 41
0
  0
VERTEX
  8
0
 10
2.61388
 20
2.65929
 30
0.0
 40
0
 41
0
  0
VERTEX
  8
0
 10
2.6289
 20
2.63743
 30
0.0
 40
0
 41
0
  0
VERTEX
  8
0
 10
2.63542
 20
2.60829
 30
0.0
 40
0
 41
0
  0
VERTEX
  8
0
 10
2.63542
 20
2.59853
 30
0.0
 40
0
 41
0
  0
SEQEND
 8
0
  0
POLYLINE
  8
0
 62
     253
 66
     1
 10
0
 20
0
 30
0.0
 70
     1
 40
0
 41
0
  0
VERTEX
  8
0
 10
2.61908
 20
1.84804
 30
0.0
 40
0
 41
0
  0
VERTEX
  8
0
 10
2.61903
 20
1.84706
 30
0.0
 40
0
 41
0
  0
VERTEX
  8
0
 10
2.61464
 20
1.83826
 30
0.0
 40
0
 41
0
  0
VERTEX
  8
0
 10
2.61388
 20
1.83763
 30
0.0
 40
0
 41
0
  0
VERTEX
  8
0
 10
2.61257
 20
1.83664
 30
0.0
 40
0
 41
0
  0
VERTEX
  8
0
 10
2.59782
 20
1.83003
 30
0.0
 40
0
 41
0
  0
VERTEX
  8
0
 10
2.59625
 20
1.82969
 30
0.0
 40
0
 41
0
  0
VERTEX
  8
0
 10
2.59347
 20
1.8291
 30
0.0
 40
0
 41
0
  0
VERTEX
  8
0
 10
2.56592
 20
1.82519
 30
0.0
 40
0
 41
0
  0
VERTEX
  8
0
 10
2.56315
 20
1.82497
 30
0.0
 40
0
 41
0
  0
VERTEX
  8
0
 10
2.55968
 20
1.82476
 30
0.0
 40
0
 41
0
  0
VERTEX
  8
0
 10
2.52322
 20
1.82346
 30
0.0
 40
0
 41
0
  0
VERTEX
  8
0
 10
2.51107
 20
1.82346
 30
0.0
 40
0
 41
0
  0
VERTEX
  8
0
 10
2.49804
 20
1.82346
 30
0.0
 40
0
 41
0
  0
VERTEX
  8
0
 10
2.46229
 20
1.8246
 30
0.0
 40
0
 41
0
  0
VERTEX
  8
0
 10
2.45899
 20
1.82497
 30
0.0
 40
0
 41
0
  0
VERTEX
  8
0
 10
2.45617
 20
1.82519
 30
0.0
 40
0
 41
0
  0
VERTEX
  8
0
 10
2.42854
 20
1.8291
 30
0.0
 40
0
 41
0
  0
VERTEX
  8
0
 10
2.42583
 20
1.82969
 30
0.0
 40
0
 41
0
  0
VERTEX
  8
0
 10
2.42421
 20
1.83003
 30
0.0
 40
0
 41
0
  0
VERTEX
  8
0
 10
2.4095
 20
1.83664
 30
0.0
 40
0
 41
0
  0
VERTEX
  8
0
 10
2.40821
 20
1.83763
 30
0.0
 40
0
 41
0
  0
VERTEX
  8
0
 10
2.40739
 20
1.83826
 30
0.0
 40
0
 41
0
  0
VERTEX
  8
0
 10
2.40306
 20
1.84706
 30
0.0
 40
0
 41
0
  0
VERTEX
  8
0
 10
2.403
 20
1.84804
 30
0.0
 40
0
 41
0
  0
VERTEX
  8
0
 10
2.403
 20
2.40739
 30
0.0
 40
0
 41
0
  0
VERTEX
  8
0
 10
2.403
 20
2.40847
 30
0.0
 40
0
 41
0
  0
VERTEX
  8
0
 10
2.40739
 20
2.41781
 30
0.0
 40
0
 41
0
  0
VERTEX
  8
0
 10
2.40821
 20
2.41846
 30
0.0
 40
0
 41
0
  0
VERTEX
  8
0
 10
2.4095
 20
2.41949
 30
0.0
 40
0
 41
0
  0
VERTEX
  8
0
 10
2.42421
 20
2.42632
 30
0.0
 40
0
 41
0
  0
VERTEX
  8
0
 10
2.42583
 20
2.42665
 30
0.0
 40
0
 41
0
  0
VERTEX
  8
0
 10
2.42854
 20
2.42736
 30
0.0
 40
0
 41
0
  0
VERTEX
  8
0
 10
2.45617
 20
2.43181
 30
0.0
 40
0
 41
0
  0
VERTEX
  8
0
 10
2.45899
 20
2.43197
 30
0.0
 40
0
 41
0
  0
VERTEX
  8
0
 10
2.4624
 20
2.43229
 30
0.0
 40
0
 41
0
  0
VERTEX
  8
0
 10
2.49886
 20
2.43386
 30
0.0
 40
0
 41
0
  0
VERTEX
  8
0
 10
2.51107
 20
2.43386
 30
0.0
 40
0
 41
0
  0
VERTEX
  8
0
 10
2.52408
 20
2.43386
 30
0.0
 40
0
 41
0
  0
VERTEX
  8
0
 10
2.55979
 20
2.43229
 30
0.0
 40
0
 41
0
  0
VERTEX
  8
0
 10
2.56315
 20
2.43197
 30
0.0
 40
0
 41
0
  0
VERTEX
  8
0
 10
2.56592
 20
2.43181
 30
0.0
 40
0
 41
0
  0
VERTEX
  8
0
 10
2.59353
 20
2.42736
 30
0.0
 40
0
 41
0
  0
VERTEX
  8
0
 10
2.59625
 20
2.42665
 30
0.0
 40
0
 41
0
  0
VERTEX
  8
0
 10
2.59782
 20
2.42632
 30
0.0
 40
0
 41
0
  0
VERTEX
  8
0
 10
2.61257
 20
2.41949
 30
0.0
 40
0
 41
0
  0
VERTEX
  8
0
 10
2.61388
 20
2.41846
 30
0.0
 40
0
 41
0
  0
VERTEX
  8
0
 10
2.61469
 20
2.41781
 30
0.0
 40
0
 41
0
  0
VERTEX
  8
0
 10
2.61903
 20
2.40847
 30
0.0
 40
0
 41
0
  0
VERTEX
  8
0
 10
2.61908
 20
2.40739
 30
0.0
 40
0
 41
0
  0
VERTEX
  8
0
 10
2.61908
 20
1.84804
 30
0.0
 40
0
 41
0
  0
SEQEND
 8
0
  0
POLYLINE
  8
0
 62
     253
 66
     1
 10
0
 20
0
 30
0.0
 70
     1
 40
0
 41
0
  0
VERTEX
  8
0
 10
3.61062
 20
2.13406
 30
0.0
 40
0
 41
0
  0
VERTEX
  8
0
 10
3.61074
 20
2.12283
 30
0.0
 40
0
 41
0
  0
VERTEX
  8
0
 10
3.60449
 20
2.06739
 30
0.0
 40
0
 41
0
  0
VERTEX
  8
0
 10
3.58919
 20
2.01367
 30
0.0
 40
0
 41
0
  0
VERTEX
  8
0
 10
3.58479
 20
2.00331
 30
0.0
 40
0
 41
0
  0
VERTEX
  8
0
 10
3.5804
 20
1.99337
 30
0.0
 40
0
 41
0
  0
VERTEX
  8
0
 10
3.55181
 20
1.94769
 30
0.0
 40
0
 41
0
  0
VERTEX
  8
0
 10
3.51503
 20
1.90831
 30
0.0
 40
0
 41
0
  0
VERTEX
  8
0
 10
3.50657
 20
1.90147
 30
0.0
 40
0
 41
0
  0
VERTEX
  8
0
 10
3.49681
 20
1.89387
 30
0.0
 40
0
 41
0
  0
VERTEX
  8
0
 10
3.44401
 20
1.86199
 30
0.0
 40
0
 41
0
  0
VERTEX
  8
0
 10
3.38693
 20
1.83876
 30
0.0
 40
0
 41
0
  0
VERTEX
  8
0
 10
3.375
 20
1.8355
 30
0.0
 40
0
 41
0
  0
VERTEX
  8
0
 10
3.35992
 20
1.83143
 30
0.0
 40
0
 41
0
  0
VERTEX
  8
0
 10
3.28331
 20
1.81743
 30
0.0
 40
0
 41
0
  0
VERTEX
  8
0
 10
3.20557
 20
1.81222
 30
0.0
 40
0
 41
0
  0
VERTEX
  8
0
 10
3.19
 20
1.8125
 30
0.0
 40
0
 41
0
  0
VERTEX
  8
0
 10
3.17497
 20
1.81228
 30
0.0
 40
0
 41
0
  0
VERTEX
  8
0
 10
3.10026
 20
1.817
 30
0.0
 40
0
 41
0
  0
VERTEX
  8
0
 10
3.02653
 20
1.82964
 30
0.0
 40
0
 41
0
  0
VERTEX
  8
0
 10
3.01199
 20
1.83333
 30
0.0
 40
0
 41
0
  0
VERTEX
  8
0
 10
3.00065
 20
1.83621
 30
0.0
 40
0
 41
0
  0
VERTEX
  8
0
 10
2.9464
 20
1.85715
 30
0.0
 40
0
 41
0
  0
VERTEX
  8
0
 10
2.89626
 20
1.88661
 30
0.0
 40
0
 41
0
  0
VERTEX
  8
0
 10
2.88699
 20
1.89367
 30
0.0
 40
0
 41
0
  0
VERTEX
  8
0
 10
2.87879
 20
1.90007
 30
0.0
 40
0
 41
0
  0
VERTEX
  8
0
 10
2.84358
 20
1.93756
 30
0.0
 40
0
 41
0
  0
VERTEX
  8
0
 10
2.81689
 20
1.9815
 30
0.0
 40
0
 41
0
  0
VERTEX
  8
0
 10
2.81293
 20
1.99104
 30
0.0
 40
0
 41
0
  0
VERTEX
  8
0
 10
2.80875
 20
2.00157
 30
0.0
 40
0
 41
0
  0
VERTEX
  8
0
 10
2.79428
 20
2.05583
 30
0.0
 40
0
 41
0
  0
VERTEX
  8
0
 10
2.78863
 20
2.11176
 30
0.0
 40
0
 41
0
  0
VERTEX
  8
0
 10
2.78885
 20
2.12304
 30
0.0
 40
0
 41
0
  0
VERTEX
  8
0
 10
2.78868
 20
2.13433
 30
0.0
 40
0
 41
0
  0
VERTEX
  8
0
 10
2.79503
 20
2.18994
 30
0.0
 40
0
 41
0
  0
VERTEX
  8
0
 10
2.8106
 20
2.24376
 30
0.0
 40
0
 41
0
  0
VERTEX
  8
0
 10
2.81511
 20
2.25407
 30
0.0
 40
0
 41
0
  0
VERTEX
  8
0
 10
2.8195
 20
2.26406
 30
0.0
 40
0
 41
0
  0
VERTEX
  8
0
 10
2.84831
 20
2.30979
 30
0.0
 40
0
 41
0
  0
VERTEX
  8
0
 10
2.88536
 20
2.34918
 30
0.0
 40
0
 41
0
  0
VERTEX
  8
0
 10
2.89387
 20
2.35596
 30
0.0
 40
0
 41
0
  0
VERTEX
  8
0
 10
2.9036
 20
2.36356
 30
0.0
 40
0
 41
0
  0
VERTEX
  8
0
 10
2.95617
 20
2.39524
 30
0.0
 40
0
 41
0
  0
VERTEX
  8
0
 10
3.01307
 20
2.41829
 30
0.0
 40
0
 41
0
  0
VERTEX
  8
0
 10
3.02501
 20
2.42156
 30
0.0
 40
0
 41
0
  0
VERTEX
  8
0
 10
3.03999
 20
2.42567
 30
0.0
 40
0
 41
0
  0
VERTEX
  8
0
 10
3.11637
 20
2.43978
 30
0.0
 40
0
 41
0
  0
VERTEX
  8
0
 10
3.1939
 20
2.4451
 30
0.0
 40
0
 41
0
  0
VERTEX
  8
0
 10
3.20947
 20
2.44476
 30
0.0
 40
0
 41
0
  0
VERTEX
  8
0
 10
3.2245
 20
2.44504
 30
0.0
 40
0
 41
0
  0
VERTEX
  8
0
 10
3.29953
 20
2.44026
 30
0.0
 40
0
 41
0
  0
VERTEX
  8
0
 10
3.37369
 20
2.42763
 30
0.0
 40
0
 41
0
  0
VERTEX
  8
0
 10
3.38835
 20
2.42393
 30
0.0
 40
0
 41
0
  0
VERTEX
  8
0
 10
3.39968
 20
2.42117
 30
0.0
 40
0
 41
0
  0
VERTEX
  8
0
 10
3.45394
 20
2.40044
 30
0.0
 40
0
 41
0
  0
VERTEX
  8
0
 10
3.50407
 20
2.3711
 30
0.0
 40
0
 41
0
  0
VERTEX
  8
0
 10
3.51335
 20
2.36393
 30
0.0
 40
0
 41
0
  0
VERTEX
  8
0
 10
3.52143
 20
2.35753
 30
0.0
 40
0
 41
0
  0
VERTEX
  8
0
 10
3.55626
 20
2.31999
 30
0.0
 40
0
 41
0
  0
VERTEX
  8
0
 10
3.5829
 20
2.2761
 30
0.0
 40
0
 41
0
  0
VERTEX
  8
0
 10
3.58686
 20
2.26654
 30
0.0
 40
0
 41
0
  0
VERTEX
  8
0
 10
3.59099
 20
2.25603
 30
0.0
 40
0
 41
0
  0
VERTEX
  8
0
 10
3.60531
 20
2.2015
 30
0.0
 40
0
 41
0
  0
VERTEX
  8
0
 10
3.61083
 20
2.1454
 30
0.0
 40
0
 41
0
  0
VERTEX
  8
0
 10
3.61062
 20
2.13406
 30
0.0
 40
0
 41
0
  0
SEQEND
 8
0
  0
POLYLINE
  8
0
 62
     253
 66
     1
 10
0
 20
0
 30
0.0
 70
     1
 40
0
 41
0
  0
VERTEX
  8
0
 10
3.38781
 20
2.12771
 30
0.0
 40
0
 41
0
  0
VERTEX
  8
0
 10
3.38786
 20
2.13417
 30
0.0
 40
0
 41
0
  0
VERTEX
  8
0
 10
3.38037
 20
2.19792
 30
0.0
 40
0
 41
0
  0
VERTEX
  8
0
 10
3.37885
 20
2.20415
 30
0.0
 40
0
 41
0
  0
VERTEX
  8
0
 10
3.37744
 20
2.20975
 30
0.0
 40
0
 41
0
  0
VERTEX
  8
0
 10
3.35189
 20
2.26042
 30
0.0
 40
0
 41
0
  0
VERTEX
  8
0
 10
3.34825
 20
2.26481
 30
0.0
 40
0
 41
0
  0
VERTEX
  8
0
 10
3.3444
 20
2.26932
 30
0.0
 40
0
 41
0
  0
VERTEX
  8
0
 10
3.32215
 20
2.28851
 30
0.0
 40
0
 41
0
  0
VERTEX
  8
0
 10
3.29656
 20
2.30296
 30
0.0
 40
0
 41
0
  0
VERTEX
  8
0
 10
3.29101
 20
2.30501
 30
0.0
 40
0
 41
0
  0
VERTEX
  8
0
 10
3.28381
 20
2.30767
 30
0.0
 40
0
 41
0
  0
VERTEX
  8
0
 10
3.20888
 20
2.31972
 30
0.0
 40
0
 41
0
  0
VERTEX
  8
0
 10
3.20122
 20
2.3195
 30
0.0
 40
0
 41
0
  0
VERTEX
  8
0
 10
3.19407
 20
2.31967
 30
0.0
 40
0
 41
0
  0
VERTEX
  8
0
 10
3.12364
 20
2.30886
 30
0.0
 40
0
 41
0
  0
VERTEX
  8
0
 10
3.11686
 20
2.30658
 30
0.0
 40
0
 41
0
  0
VERTEX
  8
0
 10
3.11122
 20
2.30469
 30
0.0
 40
0
 41
0
  0
VERTEX
  8
0
 10
3.0849
 20
2.29135
 30
0.0
 40
0
 41
0
  0
VERTEX
  8
0
 10
3.06168
 20
2.27322
 30
0.0
 40
0
 41
0
  0
VERTEX
  8
0
 10
3.05761
 20
2.26887
 30
0.0
 40
0
 41
0
  0
VERTEX
  8
0
 10
3.05365
 20
2.2646
 30
0.0
 40
0
 41
0
  0
VERTEX
  8
0
 10
3.02453
 20
2.21474
 30
0.0
 40
0
 41
0
  0
VERTEX
  8
0
 10
3.02274
 20
2.20915
 30
0.0
 40
0
 41
0
  0
VERTEX
  8
0
 10
3.02067
 20
2.20275
 30
0.0
 40
0
 41
0
  0
VERTEX
  8
0
 10
3.01101
 20
2.13644
 30
0.0
 40
0
 41
0
  0
VERTEX
  8
0
 10
3.01112
 20
2.12967
 30
0.0
 40
0
 41
0
  0
VERTEX
  8
0
 10
3.01107
 20
2.12326
 30
0.0
 40
0
 41
0
  0
VERTEX
  8
0
 10
3.01899
 20
2.05946
 30
0.0
 40
0
 41
0
  0
VERTEX
  8
0
 10
3.02061
 20
2.05322
 30
0.0
 40
0
 41
0
  0
VERTEX
  8
0
 10
3.02203
 20
2.04769
 30
0.0
 40
0
 41
0
  0
VERTEX
  8
0
 10
3.04753
 20
1.99707
 30
0.0
 40
0
 41
0
  0
VERTEX
  8
0
 10
3.05117
 20
1.99262
 30
0.0
 40
0
 41
0
  0
VERTEX
  8
0
 10
3.05496
 20
1.98813
 30
0.0
 40
0
 41
0
  0
VERTEX
  8
0
 10
3.0771
 20
1.96892
 30
0.0
 40
0
 41
0
  0
VERTEX
  8
0
 10
3.10275
 20
1.95475
 30
0.0
 40
0
 41
0
  0
VERTEX
  8
0
 10
3.10835
 20
1.95269
 30
0.0
 40
0
 41
0
  0
VERTEX
  8
0
 10
3.1155
 20
1.95014
 30
0.0
 40
0
 41
0
  0
VERTEX
  8
0
 10
3.19026
 20
1.93832
 30
0.0
 40
0
 41
0
  0
VERTEX
  8
0
 10
3.19792
 20
1.93853
 30
0.0
 40
0
 41
0
  0
VERTEX
  8
0
 10
3.20514
 20
1.93842
 30
0.0
 40
0
 41
0
  0
VERTEX
  8
0
 10
3.27626
 20
1.94917
 30
0.0
 40
0
 41
0
  0
VERTEX
  8
0
 10
3.28315
 20
1.95144
 30
0.0
 40
0
 41
0
  0
VERTEX
  8
0
 10
3.28874
 20
1.95335
 30
0.0
 40
0
 41
0
  0
VERTEX
  8
0
 10
3.33832
 20
1.98465
 30
0.0
 40
0
 41
0
  0
VERTEX
  8
0
 10
3.3425
 20
1.98888
 30
0.0
 40
0
 41
0
  0
VERTEX
  8
0
 10
3.3464
 20
1.99311
 30
0.0
 40
0
 41
0
  0
VERTEX
  8
0
 10
3.37517
 20
2.04269
 30
0.0
 40
0
 41
0
  0
VERTEX
  8
0
 10
3.3769
 20
2.04824
 30
0.0
 40
0
 41
0
  0
VERTEX
  8
0
 10
3.37879
 20
2.05469
 30
0.0
 40
0
 41
0
  0
VERTEX
  8
0
 10
3.38792
 20
2.12099
 30
0.0
 40
0
 41
0
  0
VERTEX
  8
0
 10
3.38781
 20
2.12771
 30
0.0
 40
0
 41
0
  0
SEQEND
 8
0
  0
POLYLINE
  8
0
 62
     253
 66
     1
 10
0
 20
0
 30
0.0
 70
     1
 40
0
 41
0
  0
VERTEX
  8
0
 10
3.24197
 20
2.68397
 30
0.0
 40
0
 41
0
  0
VERTEX
  8
0
 10
3.243
 20
2.68517
 30
0.0
 40
0
 41
0
  0
VERTEX
  8
0
 10
3.25515
 20
2.69521
 30
0.0
 40
0
 41
0
  0
VERTEX
  8
0
 10
3.25657
 20
2.69596
 30
0.0
 40
0
 41
0
  0
VERTEX
  8
0
 10
3.25825
 20
2.69689
 30
0.0
 40
0
 41
0
  0
VERTEX
  8
0
 10
3.2761
 20
2.7034
 30
0.0
 40
0
 41
0
  0
VERTEX
  8
0
 10
3.278
 20
2.70378
 30
0.0
 40
0
 41
0
  0
VERTEX
  8
0
 10
3.28065
 20
2.70437
 30
0.0
 40
0
 41
0
  0
VERTEX
  8
0
 10
3.30794
 20
2.70779
 30
0.0
 40
0
 41
0
  0
VERTEX
  8
0
 10
3.31071
 20
2.7079
 30
0.0
 40
0
 41
0
  0
VERTEX
  8
0
 10
3.31401
 20
2.70811
 30
0.0
 40
0
 41
0
  0
VERTEX
  8
0
 10
3.3476
 20
2.70915
 30
0.0
 40
0
 41
0
  0
VERTEX
  8
0
 10
3.35883
 20
2.70915
 30
0.0
 40
0
 41
0
  0
VERTEX
  8
0
 10
3.36404
 20
2.70925
 30
0.0
 40
0
 41
0
  0
VERTEX
  8
0
 10
3.41613
 20
2.70714
 30
0.0
 40
0
 41
0
  0
VERTEX
  8
0
 10
3.42133
 20
2.70665
 30
0.0
 40
0
 41
0
  0
VERTEX
  8
0
 10
3.4241
 20
2.70649
 30
0.0
 40
0
 41
0
  0
VERTEX
  8
0
 10
3.45139
 20
2.70042
 30
0.0
 40
0
 41
0
  0
VERTEX
  8
0
 10
3.45404
 20
2.69937
 30
0.0
 40
0
 41
0
  0
VERTEX
  8
0
 10
3.45568
 20
2.69862
 30
0.0
 40
0
 41
0
  0
VERTEX
  8
0
 10
3.46317
 20
2.68989
 30
0.0
 40
0
 41
0
  0
VERTEX
  8
0
 10
3.463
 20
2.68896
 30
0.0
 40
0
 41
0
  0
VERTEX
  8
0
 10
3.46268
 20
2.68767
 30
0.0
 40
0
 41
0
  0
VERTEX
  8
0
 10
3.45557
 20
2.67654
 30
0.0
 40
0
 41
0
  0
VERTEX
  8
0
 10
3.45449
 20
2.67572
 30
0.0
 40
0
 41
0
  0
VERTEX
  8
0
 10
3.28782
 20
2.52989
 30
0.0
 40
0
 41
0
  0
VERTEX
  8
0
 10
3.28674
 20
2.52892
 30
0.0
 40
0
 41
0
  0
VERTEX
  8
0
 10
3.27528
 20
2.52024
 30
0.0
 40
0
 41
0
  0
VERTEX
  8
0
 10
3.27408
 20
2.51947
 30
0.0
 40
0
 41
0
  0
VERTEX
  8
0
 10
3.27268
 20
2.51872
 30
0.0
 40
0
 41
0
  0
VERTEX
  8
0
 10
3.25797
 20
2.51313
 30
0.0
 40
0
 41
0
  0
VERTEX
  8
0
 10
3.25646
 20
2.51281
 30
0.0
 40
0
 41
0
  0
VERTEX
  8
0
 10
3.25424
 20
2.51238
 30
0.0
 40
0
 41
0
  0
VERTEX
  8
0
 10
3.23167
 20
2.50922
 30
0.0
 40
0
 41
0
  0
VERTEX
  8
0
 10
3.22939
 20
2.50906
 30
0.0
 40
0
 41
0
  0
VERTEX
  8
0
 10
3.22678
 20
2.5089
 30
0.0
 40
0
 41
0
  0
VERTEX
  8
0
 10
3.19749
 20
2.50782
 30
0.0
 40
0
 41
0
  0
VERTEX
  8
0
 10
3.18772
 20
2.50782
 30
0.0
 40
0
 41
0
  0
VERTEX
  8
0
 10
3.18371
 20
2.50782
 30
0.0
 40
0
 41
0
  0
VERTEX
  8
0
 10
3.14393
 20
2.50939
 30
0.0
 40
0
 41
0
  0
VERTEX
  8
0
 10
3.13997
 20
2.50971
 30
0.0
 40
0
 41
0
  0
VERTEX
  8
0
 10
3.13786
 20
2.50982
 30
0.0
 40
0
 41
0
  0
VERTEX
  8
0
 10
3.1174
 20
2.51476
 30
0.0
 40
0
 41
0
  0
VERTEX
  8
0
 10
3.1155
 20
2.51563
 30
0.0
 40
0
 41
0
  0
VERTEX
  8
0
 10
3.11447
 20
2.51606
 30
0.0
 40
0
 41
0
  0
VERTEX
  8
0
 10
3.10969
 20
2.52496
 30
0.0
 40
0
 41
0
  0
VERTEX
  8
0
 10
3.10992
 20
2.52604
 30
0.0
 40
0
 41
0
  0
VERTEX
  8
0
 10
3.11029
 20
2.52746
 30
0.0
 40
0
 41
0
  0
VERTEX
  8
0
 10
3.11789
 20
2.53956
 30
0.0
 40
0
 41
0
  0
VERTEX
  8
0
 10
3.11897
 20
2.54053
 30
0.0
 40
0
 41
0
  0
VERTEX
  8
0
 10
3.24197
 20
2.68397
 30
0.0
 40
0
 41
0
  0
SEQEND
 8
0
  0
POLYLINE
  8
0
 62
     253
 66
     1
 10
0
 20
0
 30
0.0
 70
     1
 40
0
 41
0
  0
VERTEX
  8
0
 10
4.43544
 20
1.84614
 30
0.0
 40
0
 41
0
  0
VERTEX
  8
0
 10
4.43539
 20
1.84467
 30
0.0
 40
0
 41
0
  0
VERTEX
  8
0
 10
4.42806
 20
1.83296
 30
0.0
 40
0
 41
0
  0
VERTEX
  8
0
 10
4.42676
 20
1.83231
 30
0.0
 40
0
 41
0
  0
VERTEX
  8
0
 10
4.42464
 20
1.83128
 30
0.0
 40
0
 41
0
  0
VERTEX
  8
0
 10
4.40201
 20
1.82525
 30
0.0
 40
0
 41
0
  0
VERTEX
  8
0
 10
4.39968
 20
1.82508
 30
0.0
 40
0
 41
0
  0
VERTEX
  8
0
 10
4.39513
 20
1.82471
 30
0.0
 40
0
 41
0
  0
VERTEX
  8
0
 10
4.34967
 20
1.82286
 30
0.0
 40
0
 41
0
  0
VERTEX
  8
0
 10
4.34511
 20
1.82292
 30
0.0
 40
0
 41
0
  0
VERTEX
  8
0
 10
4.34039
 20
1.82286
 30
0.0
 40
0
 41
0
  0
VERTEX
  8
0
 10
4.2934
 20
1.82465
 30
0.0
 40
0
 41
0
  0
VERTEX
  8
0
 10
4.28874
 20
1.82508
 30
0.0
 40
0
 41
0
  0
VERTEX
  8
0
 10
4.28651
 20
1.82525
 30
0.0
 40
0
 41
0
  0
VERTEX
  8
0
 10
4.26574
 20
1.83128
 30
0.0
 40
0
 41
0
  0
VERTEX
  8
0
 10
4.26383
 20
1.83231
 30
0.0
 40
0
 41
0
  0
VERTEX
  8
0
 10
4.26264
 20
1.83306
 30
0.0
 40
0
 41
0
  0
VERTEX
  8
0
 10
4.2564
 20
1.84478
 30
0.0
 40
0
 41
0
  0
VERTEX
  8
0
 10
4.25646
 20
1.84614
 30
0.0
 40
0
 41
0
  0
VERTEX
  8
0
 10
4.25646
 20
1.89085
 30
0.0
 40
0
 41
0
  0
VERTEX
  8
0
 10
4.24832
 20
1.88456
 30
0.0
 40
0
 41
0
  0
VERTEX
  8
0
 10
4.20492
 20
1.85747
 30
0.0
 40
0
 41
0
  0
VERTEX
  8
0
 10
4.15826
 20
1.83658
 30
0.0
 40
0
 41
0
  0
VERTEX
  8
0
 10
4.14854
 20
1.83333
 30
0.0
 40
0
 41
0
  0
VERTEX
  8
0
 10
4.13769
 20
1.82975
 30
0.0
 40
0
 41
0
  0
VERTEX
  8
0
 10
4.08208
 20
1.81739
 30
0.0
 40
0
 41
0
  0
VERTEX
  8
0
 10
4.02533
 20
1.81239
 30
0.0
 40
0
 41
0
  0
VERTEX
  8
0
 10
4.01394
 20
1.8125
 30
0.0
 40
0
 41
0
  0
VERTEX
  8
0
 10
4.0045
 20
1.81244
 30
0.0
 40
0
 41
0
  0
VERTEX
  8
0
 10
3.91097
 20
1.82215
 30
0.0
 40
0
 41
0
  0
VERTEX
  8
0
 10
3.90175
 20
1.82417
 30
0.0
 40
0
 41
0
  0
VERTEX
  8
0
 10
3.89393
 20
1.82585
 30
0.0
 40
0
 41
0
  0
VERTEX
  8
0
 10
3.81999
 20
1.85465
 30
0.0
 40
0
 41
0
  0
VERTEX
  8
0
 10
3.81315
 20
1.85872
 30
0.0
 40
0
 41
0
  0
VERTEX
  8
0
 10
3.80724
 20
1.86225
 30
0.0
 40
0
 41
0
  0
VERTEX
  8
0
 10
3.78065
 20
1.88374
 30
0.0
 40
0
 41
0
  0
VERTEX
  8
0
 10
3.75868
 20
1.90983
 30
0.0
 40
0
 41
0
  0
VERTEX
  8
0
 10
3.7551
 20
1.91564
 30
0.0
 40
0
 41
0
  0
VERTEX
  8
0
 10
3.75151
 20
1.92165
 30
0.0
 40
0
 41
0
  0
VERTEX
  8
0
 10
3.73915
 20
1.95378
 30
0.0
 40
0
 41
0
  0
VERTEX
  8
0
 10
3.7341
 20
1.98785
 30
0.0
 40
0
 41
0
  0
VERTEX
  8
0
 10
3.73426
 20
1.99479
 30
0.0
 40
0
 41
0
  0
VERTEX
  8
0
 10
3.73406
 20
2.00244
 30
0.0
 40
0
 41
0
  0
VERTEX
  8
0
 10
3.74046
 20
2.03956
 30
0.0
 40
0
 41
0
  0
VERTEX
  8
0
 10
3.75608
 20
2.07383
 30
0.0
 40
0
 41
0
  0
VERTEX
  8
0
 10
3.76053
 20
2.08003
 30
0.0
 40
0
 41
0
  0
VERTEX
  8
0
 10
3.76563
 20
2.08664
 30
0.0
 40
0
 41
0
  0
VERTEX
  8
0
 10
3.79568
 20
2.11501
 30
0.0
 40
0
 41
0
  0
VERTEX
  8
0
 10
3.831
 20
2.13656
 30
0.0
 40
0
 41
0
  0
VERTEX
  8
0
 10
3.83876
 20
2.13971
 30
0.0
 40
0
 41
0
  0
VERTEX
  8
0
 10
3.84912
 20
2.1441
 30
0.0
 40
0
 41
0
  0
VERTEX
  8
0
 10
3.95757
 20
2.1729
 30
0.0
 40
0
 41
0
  0
VERTEX
  8
0
 10
3.96875
 20
2.17426
 30
0.0
 40
0
 41
0
  0
VERTEX
  8
0
 10
3.98361
 20
2.17632
 30
0.0
 40
0
 41
0
  0
VERTEX
  8
0
 10
4.1334
 20
2.18576
 30
0.0
 40
0
 41
0
  0
VERTEX
  8
0
 10
4.14844
 20
2.1856
 30
0.0
 40
0
 41
0
  0
VERTEX
  8
0
 10
4.22325
 20
2.1856
 30
0.0
 40
0
 41
0
  0
VERTEX
  8
0
 10
4.22325
 20
2.21946
 30
0.0
 40
0
 41
0
  0
VERTEX
  8
0
 10
4.22331
 20
2.22342
 30
0.0
 40
0
 41
0
  0
VERTEX
  8
0
 10
4.21718
 20
2.26204
 30
0.0
 40
0
 41
0
  0
VERTEX
  8
0
 10
4.21593
 20
2.26574
 30
0.0
 40
0
 41
0
  0
VERTEX
  8
0
 10
4.21474
 20
2.26899
 30
0.0
 40
0
 41
0
  0
VERTEX
  8
0
 10
4.19461
 20
2.29665
 30
0.0
 40
0
 41
0
  0
VERTEX
  8
0
 10
4.19189
 20
2.29878
 30
0.0
 40
0
 41
0
  0
VERTEX
  8
0
 10
4.18853
 20
2.30122
 30
0.0
 40
0
 41
0
  0
VERTEX
  8
0
 10
4.15121
 20
2.31749
 30
0.0
 40
0
 41
0
  0
VERTEX
  8
0
 10
4.14719
 20
2.31825
 30
0.0
 40
0
 41
0
  0
VERTEX
  8
0
 10
4.1415
 20
2.31939
 30
0.0
 40
0
 41
0
  0
VERTEX
  8
0
 10
4.08371
 20
2.3246
 30
0.0
 40
0
 41
0
  0
VERTEX
  8
0
 10
4.0779
 20
2.32449
 30
0.0
 40
0
 41
0
  0
VERTEX
  8
0
 10
4.06976
 20
2.3246
 30
0.0
 40
0
 41
0
  0
VERTEX
  8
0
 10
3.9891
 20
2.31733
 30
0.0
 40
0
 41
0
  0
VERTEX
  8
0
 10
3.98112
 20
2.31575
 30
0.0
 40
0
 41
0
  0
VERTEX
  8
0
 10
3.97478
 20
2.31451
 30
0.0
 40
0
 41
0
  0
VERTEX
  8
0
 10
3.91206
 20
2.29818
 30
0.0
 40
0
 41
0
  0
VERTEX
  8
0
 10
3.90593
 20
2.29617
 30
0.0
 40
0
 41
0
  0
VERTEX
  8
0
 10
3.9005
 20
2.29443
 30
0.0
 40
0
 41
0
  0
VERTEX
  8
0
 10
3.85493
 20
2.27821
 30
0.0
 40
0
 41
0
  0
VERTEX
  8
0
 10
3.85124
 20
2.27669
 30
0.0
 40
0
 41
0
  0
VERTEX
  8
0
 10
3.84842
 20
2.27544
 30
0.0
 40
0
 41
0
  0
VERTEX
  8
0
 10
3.81868
 20
2.26812
 30
0.0
 40
0
 41
0
  0
VERTEX
  8
0
 10
3.81565
 20
2.2679
 30
0.0
 40
0
 41
0
  0
VERTEX
  8
0
 10
3.81413
 20
2.2679
 30
0.0
 40
0
 41
0
  0
VERTEX
  8
0
 10
3.80007
 20
2.27154
 30
0.0
 40
0
 41
0
  0
VERTEX
  8
0
 10
3.79883
 20
2.27229
 30
0.0
 40
0
 41
0
  0
VERTEX
  8
0
 10
3.79753
 20
2.27311
 30
0.0
 40
0
 41
0
  0
VERTEX
  8
0
 10
3.78749
 20
2.28364
 30
0.0
 40
0
 41
0
  0
VERTEX
  8
0
 10
3.78678
 20
2.28489
 30
0.0
 40
0
 41
0
  0
VERTEX
  8
0
 10
3.78592
 20
2.28646
 30
0.0
 40
0
 41
0
  0
VERTEX
  8
0
 10
3.77979
 20
2.30328
 30
0.0
 40
0
 41
0
  0
VERTEX
  8
0
 10
3.77946
 20
2.30501
 30
0.0
 40
0
 41
0
  0
VERTEX
  8
0
 10
3.77897
 20
2.30718
 30
0.0
 40
0
 41
0
  0
VERTEX
  8
0
 10
3.77681
 20
2.32915
 30
0.0
 40
0
 41
0
  0
VERTEX
  8
0
 10
3.77686
 20
2.33137
 30
0.0
 40
0
 41
0
  0
VERTEX
  8
0
 10
3.77675
 20
2.33404
 30
0.0
 40
0
 41
0
  0
VERTEX
  8
0
 10
3.78033
 20
2.36014
 30
0.0
 40
0
 41
0
  0
VERTEX
  8
0
 10
3.78114
 20
2.36262
 30
0.0
 40
0
 41
0
  0
VERTEX
  8
0
 10
3.78196
 20
2.36475
 30
0.0
 40
0
 41
0
  0
VERTEX
  8
0
 10
3.79568
 20
2.38217
 30
0.0
 40
0
 41
0
  0
VERTEX
  8
0
 10
3.79753
 20
2.38346
 30
0.0
 40
0
 41
0
  0
VERTEX
  8
0
 10
3.80078
 20
2.38564
 30
0.0
 40
0
 41
0
  0
VERTEX
  8
0
 10
3.83594
 20
2.40235
 30
0.0
 40
0
 41
0
  0
VERTEX
  8
0
 10
3.83968
 20
2.40354
 30
0.0
 40
0
 41
0
  0
VERTEX
  8
0
 10
3.84543
 20
2.40565
 30
0.0
 40
0
 41
0
  0
VERTEX
  8
0
 10
3.90419
 20
2.42301
 30
0.0
 40
0
 41
0
  0
VERTEX
  8
0
 10
3.91021
 20
2.42437
 30
0.0
 40
0
 41
0
  0
VERTEX
  8
0
 10
3.91749
 20
2.42606
 30
0.0
 40
0
 41
0
  0
VERTEX
  8
0
 10
3.99089
 20
2.43892
 30
0.0
 40
0
 41
0
  0
VERTEX
  8
0
 10
3.99832
 20
2.43978
 30
0.0
 40
0
 41
0
  0
VERTEX
  8
0
 10
4.01937
 20
2.44228
 30
0.0
 40
0
 41
0
  0
VERTEX
  8
0
 10
4.23036
 20
2.43653
 30
0.0
 40
0
 41
0
  0
VERTEX
  8
0
 10
4.25125
 20
2.43294
 30
0.0
 40
0
 41
0
  0
VERTEX
  8
0
 10
4.26053
 20
2.43132
 30
0.0
 40
0
 41
0
  0
VERTEX
  8
0
 10
4.30572
 20
2.41808
 30
0.0
 40
0
 41
0
  0
VERTEX
  8
0
 10
4.34847
 20
2.39828
 30
0.0
 40
0
 41
0
  0
VERTEX
  8
0
 10
4.35656
 20
2.39333
 30
0.0
 40
0
 41
0
  0
VERTEX
  8
0
 10
4.36317
 20
2.38911
 30
0.0
 40
0
 41
0
  0
VERTEX
  8
0
 10
4.39187
 20
2.36262
 30
0.0
 40
0
 41
0
  0
VERTEX
  8
0
 10
4.41351
 20
2.33018
 30
0.0
 40
0
 41
0
  0
VERTEX
  8
0
 10
4.41667
 20
2.32292
 30
0.0
 40
0
 41
0
  0
VERTEX
  8
0
 10
4.41997
 20
2.31506
 30
0.0
 40
0
 41
0
  0
VERTEX
  8
0
 10
4.43143
 20
2.27399
 30
0.0
 40
0
 41
0
  0
VERTEX
  8
0
 10
4.43576
 20
2.23161
 30
0.0
 40
0
 41
0
  0
VERTEX
  8
0
 10
4.4356
 20
2.22304
 30
0.0
 40
0
 41
0
  0
VERTEX
  8
0
 10
4.43544
 20
1.84614
 30
0.0
 40
0
 41
0
  0
SEQEND
 8
0
  0
POLYLINE
  8
0
 62
     253
 66
     1
 10
0
 20
0
 30
0.0
 70
     1
 40
0
 41
0
  0
VERTEX
  8
0
 10
4.22293
 20
2.08572
 30
0.0
 40
0
 41
0
  0
VERTEX
  8
0
 10
4.1404
 20
2.08572
 30
0.0
 40
0
 41
0
  0
VERTEX
  8
0
 10
4.13292
 20
2.08583
 30
0.0
 40
0
 41
0
  0
VERTEX
  8
0
 10
4.05832
 20
2.08111
 30
0.0
 40
0
 41
0
  0
VERTEX
  8
0
 10
4.05094
 20
2.08008
 30
0.0
 40
0
 41
0
  0
VERTEX
  8
0
 10
4.04574
 20
2.07943
 30
0.0
 40
0
 41
0
  0
VERTEX
  8
0
 10
3.9955
 20
2.06532
 30
0.0
 40
0
 41
0
  0
VERTEX
  8
0
 10
3.99072
 20
2.06315
 30
0.0
 40
0
 41
0
  0
VERTEX
  8
0
 10
3.98731
 20
2.06168
 30
0.0
 40
0
 41
0
  0
VERTEX
  8
0
 10
3.95893
 20
2.03874
 30
0.0
 40
0
 41
0
  0
VERTEX
  8
0
 10
3.95676
 20
2.03575
 30
0.0
 40
0
 41
0
  0
VERTEX
  8
0
 10
3.95497
 20
2.03304
 30
0.0
 40
0
 41
0
  0
VERTEX
  8
0
 10
3.94624
 20
2.00233
 30
0.0
 40
0
 41
0
  0
VERTEX
  8
0
 10
3.94635
 20
1.99908
 30
0.0
 40
0
 41
0
  0
VERTEX
  8
0
 10
3.94618
 20
1.99343
 30
0.0
 40
0
 41
0
  0
VERTEX
  8
0
 10
3.9541
 20
1.96729
 30
0.0
 40
0
 41
0
  0
VERTEX
  8
0
 10
3.972
 20
1.94667
 30
0.0
 40
0
 41
0
  0
VERTEX
  8
0
 10
3.97689
 20
1.94374
 30
0.0
 40
0
 41
0
  0
VERTEX
  8
0
 10
3.98193
 20
1.94043
 30
0.0
 40
0
 41
0
  0
VERTEX
  8
0
 10
4.01324
 20
1.92865
 30
0.0
 40
0
 41
0
  0
VERTEX
  8
0
 10
4.05251
 20
1.92361
 30
0.0
 40
0
 41
0
  0
VERTEX
  8
0
 10
4.06158
 20
1.92356
 30
0.0
 40
0
 41
0
  0
VERTEX
  8
0
 10
4.06874
 20
1.9235
 30
0.0
 40
0
 41
0
  0
VERTEX
  8
0
 10
4.13878
 20
1.93767
 30
0.0
 40
0
 41
0
  0
VERTEX
  8
0
 10
4.1454
 20
1.94054
 30
0.0
 40
0
 41
0
  0
VERTEX
  8
0
 10
4.1524
 20
1.94379
 30
0.0
 40
0
 41
0
  0
VERTEX
  8
0
 10
4.21733
 20
1.98525
 30
0.0
 40
0
 41
0
  0
VERTEX
  8
0
 10
4.22325
 20
1.99024
 30
0.0
 40
0
 41
0
  0
VERTEX
  8
0
 10
4.22293
 20
2.08572
 30
0.0
 40
0
 41
0
  0
SEQEND
 8
0
  0
POLYLINE
  8
0
 62
     253
 66
     1
 10
0
 20
0
 30
0.0
 70
     1
 40
0
 41
0
  0
VERTEX
  8
0
 10
5.87175
 20
1.84804
 30
0.0
 40
0
 41
0
  0
VERTEX
  8
0
 10
5.87169
 20
1.84706
 30
0.0
 40
0
 41
0
  0
VERTEX
  8
0
 10
5.86729
 20
1.83826
 30
0.0
 40
0
 41
0
  0
VERTEX
  8
0
 10
5.86654
 20
1.83763
 30
0.0
 40
0
 41
0
  0
VERTEX
  8
0
 10
5.86524
 20
1.83664
 30
0.0
 40
0
 41
0
  0
VERTEX
  8
0
 10
5.85092
 20
1.83003
 30
0.0
 40
0
 41
0
  0
VERTEX
  8
0
 10
5.84939
 20
1.82969
 30
0.0
 40
0
 41
0
  0
VERTEX
  8
0
 10
5.84668
 20
1.8291
 30
0.0
 40
0
 41
0
  0
VERTEX
  8
0
 10
5.81939
 20
1.82514
 30
0.0
 40
0
 41
0
  0
VERTEX
  8
0
 10
5.81668
 20
1.82497
 30
0.0
 40
0
 41
0
  0
VERTEX
  8
0
 10
5.81321
 20
1.82476
 30
0.0
 40
0
 41
0
  0
VERTEX
  8
0
 10
5.77675
 20
1.82346
 30
0.0
 40
0
 41
0
  0
VERTEX
  8
0
 10
5.7646
 20
1.82346
 30
0.0
 40
0
 41
0
  0
VERTEX
  8
0
 10
5.75119
 20
1.82346
 30
0.0
 40
0
 41
0
  0
VERTEX
  8
0
 10
5.71457
 20
1.8246
 30
0.0
 40
0
 41
0
  0
VERTEX
  8
0
 10
5.71115
 20
1.82497
 30
0.0
 40
0
 41
0
  0
VERTEX
  8
0
 10
5.70833
 20
1.82514
 30
0.0
 40
0
 41
0
  0
VERTEX
  8
0
 10
5.68083
 20
1.8291
 30
0.0
 40
0
 41
0
  0
VERTEX
  8
0
 10
5.67811
 20
1.82969
 30
0.0
 40
0
 41
0
  0
VERTEX
  8
0
 10
5.67654
 20
1.83003
 30
0.0
 40
0
 41
0
  0
VERTEX
  8
0
 10
5.66217
 20
1.83664
 30
0.0
 40
0
 41
0
  0
VERTEX
  8
0
 10
5.66092
 20
1.83763
 30
0.0
 40
0
 41
0
  0
VERTEX
  8
0
 10
5.66015
 20
1.83832
 30
0.0
 40
0
 41
0
  0
VERTEX
  8
0
 10
5.65614
 20
1.84706
 30
0.0
 40
0
 41
0
  0
VERTEX
  8
0
 10
5.65614
 20
1.84804
 30
0.0
 40
0
 41
0
  0
VERTEX
  8
0
 10
5.65614
 20
2.1805
 30
0.0
 40
0
 41
0
  0
VERTEX
  8
0
 10
5.65619
 20
2.1849
 30
0.0
 40
0
 41
0
  0
VERTEX
  8
0
 10
5.65012
 20
2.22792
 30
0.0
 40
0
 41
0
  0
VERTEX
  8
0
 10
5.64887
 20
2.2321
 30
0.0
 40
0
 41
0
  0
VERTEX
  8
0
 10
5.64774
 20
2.23579
 30
0.0
 40
0
 41
0
  0
VERTEX
  8
0
 10
5.62901
 20
2.2691
 30
0.0
 40
0
 41
0
  0
VERTEX
  8
0
 10
5.62646
 20
2.27197
 30
0.0
 40
0
 41
0
  0
VERTEX
  8
0
 10
5.62381
 20
2.27485
 30
0.0
 40
0
 41
0
  0
VERTEX
  8
0
 10
5.59224
 20
2.29644
 30
0.0
 40
0
 41
0
  0
VERTEX
  8
0
 10
5.58865
 20
2.29779
 30
0.0
 40
0
 41
0
  0
VERTEX
  8
0
 10
5.58425
 20
2.29943
 30
0.0
 40
0
 41
0
  0
VERTEX
  8
0
 10
5.53868
 20
2.30697
 30
0.0
 40
0
 41
0
  0
VERTEX
  8
0
 10
5.53407
 20
2.30686
 30
0.0
 40
0
 41
0
  0
VERTEX
  8
0
 10
5.52718
 20
2.30675
 30
0.0
 40
0
 41
0
  0
VERTEX
  8
0
 10
5.49343
 20
2.30094
 30
0.0
 40
0
 41
0
  0
VERTEX
  8
0
 10
5.46164
 20
2.28842
 30
0.0
 40
0
 41
0
  0
VERTEX
  8
0
 10
5.45574
 20
2.28489
 30
0.0
 40
0
 41
0
  0
VERTEX
  8
0
 10
5.44797
 20
2.28039
 30
0.0
 40
0
 41
0
  0
VERTEX
  8
0
 10
5.37631
 20
2.22689
 30
0.0
 40
0
 41
0
  0
VERTEX
  8
0
 10
5.36979
 20
2.22071
 30
0.0
 40
0
 41
0
  0
VERTEX
  8
0
 10
5.36979
 20
1.84804
 30
0.0
 40
0
 41
0
  0
VERTEX
  8
0
 10
5.36974
 20
1.84706
 30
0.0
 40
0
 41
0
  0
VERTEX
  8
0
 10
5.36535
 20
1.83826
 30
0.0
 40
0
 41
0
  0
VERTEX
  8
0
 10
5.36458
 20
1.83763
 30
0.0
 40
0
 41
0
  0
VERTEX
  8
0
 10
5.36328
 20
1.83664
 30
0.0
 40
0
 41
0
  0
VERTEX
  8
0
 10
5.34858
 20
1.83003
 30
0.0
 40
0
 41
0
  0
VERTEX
  8
0
 10
5.347
 20
1.82969
 30
0.0
 40
0
 41
0
  0
VERTEX
  8
0
 10
5.34424
 20
1.8291
 30
0.0
 40
0
 41
0
  0
VERTEX
  8
0
 10
5.31662
 20
1.82519
 30
0.0
 40
0
 41
0
  0
VERTEX
  8
0
 10
5.31386
 20
1.82497
 30
0.0
 40
0
 41
0
  0
VERTEX
  8
0
 10
5.31039
 20
1.82476
 30
0.0
 40
0
 41
0
  0
VERTEX
  8
0
 10
5.27393
 20
1.82346
 30
0.0
 40
0
 41
0
  0
VERTEX
  8
0
 10
5.26178
 20
1.82346
 30
0.0
 40
0
 41
0
  0
VERTEX
  8
0
 10
5.24875
 20
1.82346
 30
0.0
 40
0
 41
0
  0
VERTEX
  8
0
 10
5.21306
 20
1.8246
 30
0.0
 40
0
 41
0
  0
VERTEX
  8
0
 10
5.20969
 20
1.82497
 30
0.0
 40
0
 41
0
  0
VERTEX
  8
0
 10
5.20687
 20
1.82519
 30
0.0
 40
0
 41
0
  0
VERTEX
  8
0
 10
5.17925
 20
1.8291
 30
0.0
 40
0
 41
0
  0
VERTEX
  8
0
 10
5.17654
 20
1.82969
 30
0.0
 40
0
 41
0
  0
VERTEX
  8
0
 10
5.17492
 20
1.83003
 30
0.0
 40
0
 41
0
  0
VERTEX
  8
0
 10
5.16021
 20
1.83664
 30
0.0
 40
0
 41
0
  0
VERTEX
  8
0
 10
5.15896
 20
1.83763
 30
0.0
 40
0
 41
0
  0
VERTEX
  8
0
 10
5.15815
 20
1.83826
 30
0.0
 40
0
 41
0
  0
VERTEX
  8
0
 10
5.15375
 20
1.84706
 30
0.0
 40
0
 41
0
  0
VERTEX
  8
0
 10
5.15375
 20
1.84804
 30
0.0
 40
0
 41
0
  0
VERTEX
  8
0
 10
5.15375
 20
2.1805
 30
0.0
 40
0
 41
0
  0
VERTEX
  8
0
 10
5.15381
 20
2.1849
 30
0.0
 40
0
 41
0
  0
VERTEX
  8
0
 10
5.14774
 20
2.22792
 30
0.0
 40
0
 41
0
  0
VERTEX
  8
0
 10
5.14649
 20
2.2321
 30
0.0
 40
0
 41
0
  0
VERTEX
  8
0
 10
5.14535
 20
2.23579
 30
0.0
 40
0
 41
0
  0
VERTEX
  8
0
 10
5.12696
 20
2.2691
 30
0.0
 40
0
 41
0
  0
VERTEX
  8
0
 10
5.12446
 20
2.27197
 30
0.0
 40
0
 41
0
  0
VERTEX
  8
0
 10
5.12185
 20
2.2749
 30
0.0
 40
0
 41
0
  0
VERTEX
  8
0
 10
5.09028
 20
2.29644
 30
0.0
 40
0
 41
0
  0
VERTEX
  8
0
 10
5.08664
 20
2.29779
 30
0.0
 40
0
 41
0
  0
VERTEX
  8
0
 10
5.08231
 20
2.29943
 30
0.0
 40
0
 41
0
  0
VERTEX
  8
0
 10
5.03711
 20
2.30697
 30
0.0
 40
0
 41
0
  0
VERTEX
  8
0
 10
5.0325
 20
2.30686
 30
0.0
 40
0
 41
0
  0
VERTEX
  8
0
 10
5.0255
 20
2.30681
 30
0.0
 40
0
 41
0
  0
VERTEX
  8
0
 10
4.99149
 20
2.301
 30
0.0
 40
0
 41
0
  0
VERTEX
  8
0
 10
4.95931
 20
2.28842
 30
0.0
 40
0
 41
0
  0
VERTEX
  8
0
 10
4.95335
 20
2.28489
 30
0.0
 40
0
 41
0
  0
VERTEX
  8
0
 10
4.94564
 20
2.28043
 30
0.0
 40
0
 41
0
  0
VERTEX
  8
0
 10
4.87462
 20
2.22689
 30
0.0
 40
0
 41
0
  0
VERTEX
  8
0
 10
4.86822
 20
2.22071
 30
0.0
 40
0
 41
0
  0
VERTEX
  8
0
 10
4.86822
 20
1.84804
 30
0.0
 40
0
 41
0
  0
VERTEX
  8
0
 10
4.86817
 20
1.84706
 30
0.0
 40
0
 41
0
  0
VERTEX
  8
0
 10
4.86376
 20
1.83826
 30
0.0
 40
0
 41
0
  0
VERTEX
  8
0
 10
4.86301
 20
1.83763
 30
0.0
 40
0
 41
0
  0
VERTEX
  8
0
 10
4.86171
 20
1.83664
 30
0.0
 40
0
 41
0
  0
VERTEX
  8
0
 10
4.847
 20
1.83003
 30
0.0
 40
0
 41
0
  0
VERTEX
  8
0
 10
4.84543
 20
1.82969
 30
0.0
 40
0
 41
0
  0
VERTEX
  8
0
 10
4.84267
 20
1.8291
 30
0.0
 40
0
 41
0
  0
VERTEX
  8
0
 10
4.81506
 20
1.82519
 30
0.0
 40
0
 41
0
  0
VERTEX
  8
0
 10
4.81228
 20
1.82497
 30
0.0
 40
0
 41
0
  0
VERTEX
  8
0
 10
4.80881
 20
1.82476
 30
0.0
 40
0
 41
0
  0
VERTEX
  8
0
 10
4.77235
 20
1.82346
 30
0.0
 40
0
 41
0
  0
VERTEX
  8
0
 10
4.76019
 20
1.82346
 30
0.0
 40
0
 41
0
  0
VERTEX
  8
0
 10
4.74718
 20
1.82346
 30
0.0
 40
0
 41
0
  0
VERTEX
  8
0
 10
4.71143
 20
1.8246
 30
0.0
 40
0
 41
0
  0
VERTEX
  8
0
 10
4.70811
 20
1.82497
 30
0.0
 40
0
 41
0
  0
VERTEX
  8
0
 10
4.70529
 20
1.82519
 30
0.0
 40
0
 41
0
  0
VERTEX
  8
0
 10
4.67774
 20
1.8291
 30
0.0
 40
0
 41
0
  0
VERTEX
  8
0
 10
4.67503
 20
1.82969
 30
0.0
 40
0
 41
0
  0
VERTEX
  8
0
 10
4.67339
 20
1.83003
 30
0.0
 40
0
 41
0
  0
VERTEX
  8
0
 10
4.65864
 20
1.83664
 30
0.0
 40
0
 41
0
  0
VERTEX
  8
0
 10
4.65739
 20
1.83763
 30
0.0
 40
0
 41
0
  0
VERTEX
  8
0
 10
4.65657
 20
1.83826
 30
0.0
 40
0
 41
0
  0
VERTEX
  8
0
 10
4.65224
 20
1.84706
 30
0.0
 40
0
 41
0
  0
VERTEX
  8
0
 10
4.65218
 20
1.84804
 30
0.0
 40
0
 41
0
  0
VERTEX
  8
0
 10
4.65218
 20
2.40875
 30
0.0
 40
0
 41
0
  0
VERTEX
  8
0
 10
4.65218
 20
2.40972
 30
0.0
 40
0
 41
0
  0
VERTEX
  8
0
 10
4.65587
 20
2.41846
 30
0.0
 40
0
 41
0
  0
VERTEX
  8
0
 10
4.65657
 20
2.41917
 30
0.0
 40
0
 41
0
  0
VERTEX
  8
0
 10
4.65767
 20
2.42014
 30
0.0
 40
0
 41
0
  0
VERTEX
  8
0
 10
4.67051
 20
2.42681
 30
0.0
 40
0
 41
0
  0
VERTEX
  8
0
 10
4.67199
 20
2.42708
 30
0.0
 40
0
 41
0
  0
VERTEX
  8
0
 10
4.67432
 20
2.42768
 30
0.0
 40
0
 41
0
  0
VERTEX
  8
0
 10
4.6984
 20
2.43158
 30
0.0
 40
0
 41
0
  0
VERTEX
  8
0
 10
4.70085
 20
2.43175
 30
0.0
 40
0
 41
0
  0
VERTEX
  8
0
 10
4.70378
 20
2.43201
 30
0.0
 40
0
 41
0
  0
VERTEX
  8
0
 10
4.73475
 20
2.43332
 30
0.0
 40
0
 41
0
  0
VERTEX
  8
0
 10
4.74511
 20
2.43332
 30
0.0
 40
0
 41
0
  0
VERTEX
  8
0
 10
4.75651
 20
2.43332
 30
0.0
 40
0
 41
0
  0
VERTEX
  8
0
 10
4.78771
 20
2.43218
 30
0.0
 40
0
 41
0
  0
VERTEX
  8
0
 10
4.79075
 20
2.43175
 30
0.0
 40
0
 41
0
  0
VERTEX
  8
0
 10
4.79308
 20
2.43164
 30
0.0
 40
0
 41
0
  0
VERTEX
  8
0
 10
4.81635
 20
2.42774
 30
0.0
 40
0
 41
0
  0
VERTEX
  8
0
 10
4.81863
 20
2.42708
 30
0.0
 40
0
 41
0
  0
VERTEX
  8
0
 10
4.81993
 20
2.42676
 30
0.0
 40
0
 41
0
  0
VERTEX
  8
0
 10
4.83176
 20
2.42014
 30
0.0
 40
0
 41
0
  0
VERTEX
  8
0
 10
4.83279
 20
2.41917
 30
0.0
 40
0
 41
0
  0
VERTEX
  8
0
 10
4.83344
 20
2.41846
 30
0.0
 40
0
 41
0
  0
VERTEX
  8
0
 10
4.83703
 20
2.40972
 30
0.0
 40
0
 41
0
  0
VERTEX
  8
0
 10
4.83708
 20
2.40875
 30
0.0
 40
0
 41
0
  0
VERTEX
  8
0
 10
4.83708
 20
2.34375
 30
0.0
 40
0
 41
0
  0
VERTEX
  8
0
 10
4.84668
 20
2.35157
 30
0.0
 40
0
 41
0
  0
VERTEX
  8
0
 10
4.89779
 20
2.38607
 30
0.0
 40
0
 41
0
  0
VERTEX
  8
0
 10
4.95253
 20
2.41444
 30
0.0
 40
0
 41
0
  0
VERTEX
  8
0
 10
4.96397
 20
2.41917
 30
0.0
 40
0
 41
0
  0
VERTEX
  8
0
 10
4.97444
 20
2.42333
 30
0.0
 40
0
 41
0
  0
VERTEX
  8
0
 10
5.02875
 20
2.43804
 30
0.0
 40
0
 41
0
  0
VERTEX
  8
0
 10
5.08469
 20
2.44433
 30
0.0
 40
0
 41
0
  0
VERTEX
  8
0
 10
5.09603
 20
2.44428
 30
0.0
 40
0
 41
0
  0
VERTEX
  8
0
 10
5.10314
 20
2.44439
 30
0.0
 40
0
 41
0
  0
VERTEX
  8
0
 10
5.1741
 20
2.43838
 30
0.0
 40
0
 41
0
  0
VERTEX
  8
0
 10
5.18115
 20
2.43707
 30
0.0
 40
0
 41
0
  0
VERTEX
  8
0
 10
5.18696
 20
2.43604
 30
0.0
 40
0
 41
0
  0
VERTEX
  8
0
 10
5.24322
 20
2.41868
 30
0.0
 40
0
 41
0
  0
VERTEX
  8
0
 10
5.24864
 20
2.41624
 30
0.0
 40
0
 41
0
  0
VERTEX
  8
0
 10
5.25325
 20
2.41422
 30
0.0
 40
0
 41
0
  0
VERTEX
  8
0
 10
5.29606
 20
2.38721
 30
0.0
 40
0
 41
0
  0
VERTEX
  8
0
 10
5.29992
 20
2.38385
 30
0.0
 40
0
 41
0
  0
VERTEX
  8
0
 10
5.30339
 20
2.38086
 30
0.0
 40
0
 41
0
  0
VERTEX
  8
0
 10
5.33344
 20
2.34608
 30
0.0
 40
0
 41
0
  0
VERTEX
  8
0
 10
5.33594
 20
2.34218
 30
0.0
 40
0
 41
0
  0
VERTEX
  8
0
 10
5.34125
 20
2.34646
 30
0.0
 40
0
 41
0
  0
VERTEX
  8
0
 10
5.39751
 20
2.38519
 30
0.0
 40
0
 41
0
  0
VERTEX
  8
0
 10
5.40343
 20
2.38867
 30
0.0
 40
0
 41
0
  0
VERTEX
  8
0
 10
5.40864
 20
2.39182
 30
0.0
 40
0
 41
0
  0
VERTEX
  8
0
 10
5.46317
 20
2.41824
 30
0.0
 40
0
 41
0
  0
VERTEX
  8
0
 10
5.46886
 20
2.42042
 30
0.0
 40
0
 41
0
  0
VERTEX
  8
0
 10
5.47407
 20
2.42242
 30
0.0
 40
0
 41
0
  0
VERTEX
  8
0
 10
5.52778
 20
2.43767
 30
0.0
 40
0
 41
0
  0
VERTEX
  8
0
 10
5.53331
 20
2.43864
 30
0.0
 40
0
 41
0
  0
VERTEX
  8
0
 10
5.53874
 20
2.43967
 30
0.0
 40
0
 41
0
  0
VERTEX
  8
0
 10
5.58404
 20
2.44461
 30
0.0
 40
0
 41
0
  0
VERTEX
  8
0
 10
5.59918
 20
2.44461
 30
0.0
 40
0
 41
0
  0
VERTEX
  8
0
 10
5.61008
 20
2.44493
 30
0.0
 40
0
 41
0
  0
VERTEX
  8
0
 10
5.66444
 20
2.44069
 30
0.0
 40
0
 41
0
  0
VERTEX
  8
0
 10
5.71772
 20
2.42914
 30
0.0
 40
0
 41
0
  0
VERTEX
  8
0
 10
5.72814
 20
2.42572
 30
0.0
 40
0
 41
0
  0
VERTEX
  8
0
 10
5.73606
 20
2.42312
 30
0.0
 40
0
 41
0
  0
VERTEX
  8
0
 10
5.77333
 20
2.40489
 30
0.0
 40
0
 41
0
  0
VERTEX
  8
0
 10
5.80686
 20
2.38037
 30
0.0
 40
0
 41
0
  0
VERTEX
  8
0
 10
5.81293
 20
2.37457
 30
0.0
 40
0
 41
0
  0
VERTEX
  8
0
 10
5.81819
 20
2.36931
 30
0.0
 40
0
 41
0
  0
VERTEX
  8
0
 10
5.84044
 20
2.33951
 30
0.0
 40
0
 41
0
  0
VERTEX
  8
0
 10
5.85656
 20
2.30599
 30
0.0
 40
0
 41
0
  0
VERTEX
  8
0
 10
5.85883
 20
2.29883
 30
0.0
 40
0
 41
0
  0
VERTEX
  8
0
 10
5.86117
 20
2.29144
 30
0.0
 40
0
 41
0
  0
VERTEX
  8
0
 10
5.87272
 20
2.2149
 30
0.0
 40
0
 41
0
  0
VERTEX
  8
0
 10
5.87272
 20
2.20708
 30
0.0
 40
0
 41
0
  0
VERTEX
  8
0
 10
5.87175
 20
1.84804
 30
0.0
 40
0
 41
0
  0
SEQEND
 8
0
  0
POLYLINE
  8
0
 62
     253
 66
     1
 10
0
 20
0
 30
0.0
 70
     1
 40
0
 41
0
  0
VERTEX
  8
0
 10
6.73779
 20
1.84614
 30
0.0
 40
0
 41
0
  0
VERTEX
  8
0
 10
6.73779
 20
1.84272
 30
0.0
 40
0
 41
0
  0
VERTEX
  8
0
 10
6.73058
 20
1.83296
 30
0.0
 40
0
 41
0
  0
VERTEX
  8
0
 10
6.72928
 20
1.83231
 30
0.0
 40
0
 41
0
  0
VERTEX
  8
0
 10
6.72711
 20
1.83128
 30
0.0
 40
0
 41
0
  0
VERTEX
  8
0
 10
6.70443
 20
1.82525
 30
0.0
 40
0
 41
0
  0
VERTEX
  8
0
 10
6.7021
 20
1.82508
 30
0.0
 40
0
 41
0
  0
VERTEX
  8
0
 10
6.69754
 20
1.82471
 30
0.0
 40
0
 41
0
  0
VERTEX
  8
0
 10
6.65207
 20
1.82286
 30
0.0
 40
0
 41
0
  0
VERTEX
  8
0
 10
6.64751
 20
1.82292
 30
0.0
 40
0
 41
0
  0
VERTEX
  8
0
 10
6.64279
 20
1.82286
 30
0.0
 40
0
 41
0
  0
VERTEX
  8
0
 10
6.59581
 20
1.82465
 30
0.0
 40
0
 41
0
  0
VERTEX
  8
0
 10
6.59115
 20
1.82508
 30
0.0
 40
0
 41
0
  0
VERTEX
  8
0
 10
6.58892
 20
1.82525
 30
0.0
 40
0
 41
0
  0
VERTEX
  8
0
 10
6.56814
 20
1.83128
 30
0.0
 40
0
 41
0
  0
VERTEX
  8
0
 10
6.56625
 20
1.83231
 30
0.0
 40
0
 41
0
  0
VERTEX
  8
0
 10
6.56506
 20
1.83306
 30
0.0
 40
0
 41
0
  0
VERTEX
  8
0
 10
6.55892
 20
1.84478
 30
0.0
 40
0
 41
0
  0
VERTEX
  8
0
 10
6.55897
 20
1.84614
 30
0.0
 40
0
 41
0
  0
VERTEX
  8
0
 10
6.55897
 20
1.89085
 30
0.0
 40
0
 41
0
  0
VERTEX
  8
0
 10
6.55083
 20
1.88456
 30
0.0
 40
0
 41
0
  0
VERTEX
  8
0
 10
6.50743
 20
1.85753
 30
0.0
 40
0
 41
0
  0
VERTEX
  8
0
 10
6.46078
 20
1.83658
 30
0.0
 40
0
 41
0
  0
VERTEX
  8
0
 10
6.45107
 20
1.83333
 30
0.0
 40
0
 41
0
  0
VERTEX
  8
0
 10
6.44015
 20
1.82975
 30
0.0
 40
0
 41
0
  0
VERTEX
  8
0
 10
6.38456
 20
1.81739
 30
0.0
 40
0
 41
0
  0
VERTEX
  8
0
 10
6.32775
 20
1.81239
 30
0.0
 40
0
 41
0
  0
VERTEX
  8
0
 10
6.31635
 20
1.8125
 30
0.0
 40
0
 41
0
  0
VERTEX
  8
0
 10
6.30692
 20
1.81244
 30
0.0
 40
0
 41
0
  0
VERTEX
  8
0
 10
6.21332
 20
1.82215
 30
0.0
 40
0
 41
0
  0
VERTEX
  8
0
 10
6.20415
 20
1.82417
 30
0.0
 40
0
 41
0
  0
VERTEX
  8
0
 10
6.19635
 20
1.82585
 30
0.0
 40
0
 41
0
  0
VERTEX
  8
0
 10
6.12235
 20
1.85465
 30
0.0
 40
0
 41
0
  0
VERTEX
  8
0
 10
6.1155
 20
1.85872
 30
0.0
 40
0
 41
0
  0
VERTEX
  8
0
 10
6.1096
 20
1.86225
 30
0.0
 40
0
 41
0
  0
VERTEX
  8
0
 10
6.08306
 20
1.88374
 30
0.0
 40
0
 41
0
  0
VERTEX
  8
0
 10
6.06108
 20
1.90983
 30
0.0
 40
0
 41
0
  0
VERTEX
  8
0
 10
6.05751
 20
1.91564
 30
0.0
 40
0
 41
0
  0
VERTEX
  8
0
 10
6.05393
 20
1.92165
 30
0.0
 40
0
 41
0
  0
VERTEX
  8
0
 10
6.04156
 20
1.95378
 30
0.0
 40
0
 41
0
  0
VERTEX
  8
0
 10
6.03651
 20
1.98785
 30
0.0
 40
0
 41
0
  0
VERTEX
  8
0
 10
6.03668
 20
1.99479
 30
0.0
 40
0
 41
0
  0
VERTEX
  8
0
 10
6.03646
 20
2.00244
 30
0.0
 40
0
 41
0
  0
VERTEX
  8
0
 10
6.04286
 20
2.03956
 30
0.0
 40
0
 41
0
  0
VERTEX
  8
0
 10
6.05849
 20
2.07383
 30
0.0
 40
0
 41
0
  0
VERTEX
  8
0
 10
6.06293
 20
2.08003
 30
0.0
 40
0
 41
0
  0
VERTEX
  8
0
 10
6.06803
 20
2.08664
 30
0.0
 40
0
 41
0
  0
VERTEX
  8
0
 10
6.0981
 20
2.11501
 30
0.0
 40
0
 41
0
  0
VERTEX
  8
0
 10
6.1334
 20
2.13656
 30
0.0
 40
0
 41
0
  0
VERTEX
  8
0
 10
6.14117
 20
2.13971
 30
0.0
 40
0
 41
0
  0
VERTEX
  8
0
 10
6.15147
 20
2.1441
 30
0.0
 40
0
 41
0
  0
VERTEX
  8
0
 10
6.25965
 20
2.1729
 30
0.0
 40
0
 41
0
  0
VERTEX
  8
0
 10
6.27083
 20
2.17426
 30
0.0
 40
0
 41
0
  0
VERTEX
  8
0
 10
6.28569
 20
2.17632
 30
0.0
 40
0
 41
0
  0
VERTEX
  8
0
 10
6.4356
 20
2.18576
 30
0.0
 40
0
 41
0
  0
VERTEX
  8
0
 10
6.45063
 20
2.1856
 30
0.0
 40
0
 41
0
  0
VERTEX
  8
0
 10
6.52539
 20
2.1856
 30
0.0
 40
0
 41
0
  0
VERTEX
  8
0
 10
6.52539
 20
2.21946
 30
0.0
 40
0
 41
0
  0
VERTEX
  8
0
 10
6.52544
 20
2.22342
 30
0.0
 40
0
 41
0
  0
VERTEX
  8
0
 10
6.51937
 20
2.26204
 30
0.0
 40
0
 41
0
  0
VERTEX
  8
0
 10
6.51812
 20
2.26574
 30
0.0
 40
0
 41
0
  0
VERTEX
  8
0
 10
6.51693
 20
2.26904
 30
0.0
 40
0
 41
0
  0
VERTEX
  8
0
 10
6.49669
 20
2.29665
 30
0.0
 40
0
 41
0
  0
VERTEX
  8
0
 10
6.49397
 20
2.29878
 30
0.0
 40
0
 41
0
  0
VERTEX
  8
0
 10
6.49061
 20
2.30122
 30
0.0
 40
0
 41
0
  0
VERTEX
  8
0
 10
6.45329
 20
2.31749
 30
0.0
 40
0
 41
0
  0
VERTEX
  8
0
 10
6.44928
 20
2.31825
 30
0.0
 40
0
 41
0
  0
VERTEX
  8
0
 10
6.44358
 20
2.31939
 30
0.0
 40
0
 41
0
  0
VERTEX
  8
0
 10
6.38579
 20
2.3246
 30
0.0
 40
0
 41
0
  0
VERTEX
  8
0
 10
6.37999
 20
2.32449
 30
0.0
 40
0
 41
0
  0
VERTEX
  8
0
 10
6.37185
 20
2.3246
 30
0.0
 40
0
 41
0
  0
VERTEX
  8
0
 10
6.29118
 20
2.31733
 30
0.0
 40
0
 41
0
  0
VERTEX
  8
0
 10
6.28321
 20
2.31575
 30
0.0
 40
0
 41
0
  0
VERTEX
  8
0
 10
6.27686
 20
2.31451
 30
0.0
 40
0
 41
0
  0
VERTEX
  8
0
 10
6.21414
 20
2.29818
 30
0.0
 40
0
 41
0
  0
VERTEX
  8
0
 10
6.20801
 20
2.29617
 30
0.0
 40
0
 41
0
  0
VERTEX
  8
0
 10
6.20258
 20
2.29443
 30
0.0
 40
0
 41
0
  0
VERTEX
  8
0
 10
6.15707
 20
2.27821
 30
0.0
 40
0
 41
0
  0
VERTEX
  8
0
 10
6.15343
 20
2.27669
 30
0.0
 40
0
 41
0
  0
VERTEX
  8
0
 10
6.15061
 20
2.27544
 30
0.0
 40
0
 41
0
  0
VERTEX
  8
0
 10
6.12076
 20
2.26812
 30
0.0
 40
0
 41
0
  0
VERTEX
  8
0
 10
6.11774
 20
2.2679
 30
0.0
 40
0
 41
0
  0
VERTEX
  8
0
 10
6.11621
 20
2.2679
 30
0.0
 40
0
 41
0
  0
VERTEX
  8
0
 10
6.10215
 20
2.2716
 30
0.0
 40
0
 41
0
  0
VERTEX
  8
0
 10
6.10092
 20
2.27229
 30
0.0
 40
0
 41
0
  0
VERTEX
  8
0
 10
6.09967
 20
2.27311
 30
0.0
 40
0
 41
0
  0
VERTEX
  8
0
 10
6.08957
 20
2.28364
 30
0.0
 40
0
 41
0
  0
VERTEX
  8
0
 10
6.08886
 20
2.28489
 30
0.0
 40
0
 41
0
  0
VERTEX
  8
0
 10
6.088
 20
2.28646
 30
0.0
 40
0
 41
0
  0
VERTEX
  8
0
 10
6.08187
 20
2.30328
 30
0.0
 40
0
 41
0
  0
VERTEX
  8
0
 10
6.08154
 20
2.30501
 30
0.0
 40
0
 41
0
  0
VERTEX
  8
0
 10
6.08111
 20
2.30718
 30
0.0
 40
0
 41
0
  0
VERTEX
  8
0
 10
6.07894
 20
2.32536
 30
0.0
 40
0
 41
0
  0
VERTEX
  8
0
 10
6.07894
 20
2.33137
 30
0.0
 40
0
 41
0
  0
VERTEX
  8
0
 10
6.07883
 20
2.33404
 30
0.0
 40
0
 41
0
  0
VERTEX
  8
0
 10
6.08247
 20
2.36014
 30
0.0
 40
0
 41
0
  0
VERTEX
  8
0
 10
6.08333
 20
2.36262
 30
0.0
 40
0
 41
0
  0
VERTEX
  8
0
 10
6.08415
 20
2.36475
 30
0.0
 40
0
 41
0
  0
VERTEX
  8
0
 10
6.09782
 20
2.38217
 30
0.0
 40
0
 41
0
  0
VERTEX
  8
0
 10
6.09967
 20
2.38346
 30
0.0
 40
0
 41
0
  0
VERTEX
  8
0
 10
6.10286
 20
2.38564
 30
0.0
 40
0
 41
0
  0
VERTEX
  8
0
 10
6.13764
 20
2.40235
 30
0.0
 40
0
 41
0
  0
VERTEX
  8
0
 10
6.14133
 20
2.40354
 30
0.0
 40
0
 41
0
  0
VERTEX
  8
0
 10
6.14708
 20
2.40565
 30
0.0
 40
0
 41
0
  0
VERTEX
  8
0
 10
6.20589
 20
2.42301
 30
0.0
 40
0
 41
0
  0
VERTEX
  8
0
 10
6.21186
 20
2.42437
 30
0.0
 40
0
 41
0
  0
VERTEX
  8
0
 10
6.21913
 20
2.42606
 30
0.0
 40
0
 41
0
  0
VERTEX
  8
0
 10
6.29269
 20
2.43892
 30
0.0
 40
0
 41
0
  0
VERTEX
  8
0
 10
6.30013
 20
2.43978
 30
0.0
 40
0
 41
0
  0
VERTEX
  8
0
 10
6.32113
 20
2.44228
 30
0.0
 40
0
 41
0
  0
VERTEX
  8
0
 10
6.53201
 20
2.43653
 30
0.0
 40
0
 41
0
  0
VERTEX
  8
0
 10
6.5529
 20
2.43294
 30
0.0
 40
0
 41
0
  0
VERTEX
  8
0
 10
6.56222
 20
2.43132
 30
0.0
 40
0
 41
0
  0
VERTEX
  8
0
 10
6.60747
 20
2.41803
 30
0.0
 40
0
 41
0
  0
VERTEX
  8
0
 10
6.65022
 20
2.39828
 30
0.0
 40
0
 41
0
  0
VERTEX
  8
0
 10
6.65831
 20
2.39333
 30
0.0
 40
0
 41
0
  0
VERTEX
  8
0
 10
6.66499
 20
2.38911
 30
0.0
 40
0
 41
0
  0
VERTEX
  8
0
 10
6.69374
 20
2.36262
 30
0.0
 40
0
 41
0
  0
VERTEX
  8
0
 10
6.71556
 20
2.33018
 30
0.0
 40
0
 41
0
  0
VERTEX
  8
0
 10
6.71875
 20
2.32292
 30
0.0
 40
0
 41
0
  0
VERTEX
  8
0
 10
6.72206
 20
2.31506
 30
0.0
 40
0
 41
0
  0
VERTEX
  8
0
 10
6.7334
 20
2.27399
 30
0.0
 40
0
 41
0
  0
VERTEX
  8
0
 10
6.73779
 20
2.23161
 30
0.0
 40
0
 41
0
  0
VERTEX
  8
0
 10
6.73763
 20
2.22304
 30
0.0
 40
0
 41
0
  0
VERTEX
  8
0
 10
6.73779
 20
1.84614
 30
0.0
 40
0
 41
0
  0
SEQEND
 8
0
  0
POLYLINE
  8
0
 62
     253
 66
     1
 10
0
 20
0
 30
0.0
 70
     1
 40
0
 41
0
  0
VERTEX
  8
0
 10
6.52539
 20
2.08572
 30
0.0
 40
0
 41
0
  0
VERTEX
  8
0
 10
6.44282
 20
2.08572
 30
0.0
 40
0
 41
0
  0
VERTEX
  8
0
 10
6.43533
 20
2.08583
 30
0.0
 40
0
 41
0
  0
VERTEX
  8
0
 10
6.36074
 20
2.08111
 30
0.0
 40
0
 41
0
  0
VERTEX
  8
0
 10
6.35335
 20
2.08008
 30
0.0
 40
0
 41
0
  0
VERTEX
  8
0
 10
6.34814
 20
2.07943
 30
0.0
 40
0
 41
0
  0
VERTEX
  8
0
 10
6.2979
 20
2.06532
 30
0.0
 40
0
 41
0
  0
VERTEX
  8
0
 10
6.29313
 20
2.06315
 30
0.0
 40
0
 41
0
  0
VERTEX
  8
0
 10
6.28971
 20
2.06168
 30
0.0
 40
0
 41
0
  0
VERTEX
  8
0
 10
6.26133
 20
2.03874
 30
0.0
 40
0
 41
0
  0
VERTEX
  8
0
 10
6.25917
 20
2.03575
 30
0.0
 40
0
 41
0
  0
VERTEX
  8
0
 10
6.25738
 20
2.03304
 30
0.0
 40
0
 41
0
  0
VERTEX
  8
0
 10
6.24864
 20
2.00233
 30
0.0
 40
0
 41
0
  0
VERTEX
  8
0
 10
6.24875
 20
1.99908
 30
0.0
 40
0
 41
0
  0
VERTEX
  8
0
 10
6.24858
 20
1.99343
 30
0.0
 40
0
 41
0
  0
VERTEX
  8
0
 10
6.25646
 20
1.96729
 30
0.0
 40
0
 41
0
  0
VERTEX
  8
0
 10
6.27442
 20
1.94667
 30
0.0
 40
0
 41
0
  0
VERTEX
  8
0
 10
6.27929
 20
1.94374
 30
0.0
 40
0
 41
0
  0
VERTEX
  8
0
 10
6.2844
 20
1.94043
 30
0.0
 40
0
 41
0
  0
VERTEX
  8
0
 10
6.31575
 20
1.92865
 30
0.0
 40
0
 41
0
  0
VERTEX
  8
0
 10
6.35493
 20
1.92361
 30
0.0
 40
0
 41
0
  0
VERTEX
  8
0
 10
6.36393
 20
1.92356
 30
0.0
 40
0
 41
0
  0
VERTEX
  8
0
 10
6.37115
 20
1.9235
 30
0.0
 40
0
 41
0
  0
VERTEX
  8
0
 10
6.44129
 20
1.93767
 30
0.0
 40
0
 41
0
  0
VERTEX
  8
0
 10
6.44792
 20
1.94054
 30
0.0
 40
0
 41
0
  0
VERTEX
  8
0
 10
6.45492
 20
1.94379
 30
0.0
 40
0
 41
0
  0
VERTEX
  8
0
 10
6.51981
 20
1.98525
 30
0.0
 40
0
 41
0
  0
VERTEX
  8
0
 10
6.52572
 20
1.99024
 30
0.0
 40
0
 41
0
  0
VERTEX
  8
0
 10
6.52539
 20
2.08572
 30
0.0
 40
0
 41
0
  0
SEQEND
 8
0
  0
POLYLINE
  8
0
 62
     253
 66
     1
 10
0
 20
0
 30
0.0
 70
     1
 40
0
 41
0
  0
VERTEX
  8
0
 10
7.39144
 20
1.90332
 30
0.0
 40
0
 41
0
  0
VERTEX
  8
0
 10
7.39154
 20
1.89979
 30
0.0
 40
0
 41
0
  0
VERTEX
  8
0
 10
7.38764
 20
1.86442
 30
0.0
 40
0
 41
0
  0
VERTEX
  8
0
 10
7.38678
 20
1.86094
 30
0.0
 40
0
 41
0
  0
VERTEX
  8
0
 10
7.38624
 20
1.85894
 30
0.0
 40
0
 41
0
  0
VERTEX
  8
0
 10
7.37582
 20
1.84153
 30
0.0
 40
0
 41
0
  0
VERTEX
  8
0
 10
7.37429
 20
1.84011
 30
0.0
 40
0
 41
0
  0
VERTEX
  8
0
 10
7.3725
 20
1.83897
 30
0.0
 40
0
 41
0
  0
VERTEX
  8
0
 10
7.35346
 20
1.83024
 30
0.0
 40
0
 41
0
  0
VERTEX
  8
0
 10
7.35146
 20
1.82969
 30
0.0
 40
0
 41
0
  0
VERTEX
  8
0
 10
7.34853
 20
1.82883
 30
0.0
 40
0
 41
0
  0
VERTEX
  8
0
 10
7.31922
 20
1.82206
 30
0.0
 40
0
 41
0
  0
VERTEX
  8
0
 10
7.31625
 20
1.82156
 30
0.0
 40
0
 41
0
  0
VERTEX
  8
0
 10
7.31282
 20
1.82101
 30
0.0
 40
0
 41
0
  0
VERTEX
  8
0
 10
7.27632
 20
1.81657
 30
0.0
 40
0
 41
0
  0
VERTEX
  8
0
 10
7.2724
 20
1.81625
 30
0.0
 40
0
 41
0
  0
VERTEX
  8
0
 10
7.26844
 20
1.81597
 30
0.0
 40
0
 41
0
  0
VERTEX
  8
0
 10
7.23557
 20
1.8144
 30
0.0
 40
0
 41
0
  0
VERTEX
  8
0
 10
7.22461
 20
1.8144
 30
0.0
 40
0
 41
0
  0
VERTEX
  8
0
 10
7.21517
 20
1.81429
 30
0.0
 40
0
 41
0
  0
VERTEX
  8
0
 10
7.12196
 20
1.82411
 30
0.0
 40
0
 41
0
  0
VERTEX
  8
0
 10
7.11279
 20
1.82622
 30
0.0
 40
0
 41
0
  0
VERTEX
  8
0
 10
7.10568
 20
1.82785
 30
0.0
 40
0
 41
0
  0
VERTEX
  8
0
 10
7.07172
 20
1.84044
 30
0.0
 40
0
 41
0
  0
VERTEX
  8
0
 10
7.04031
 20
1.85861
 30
0.0
 40
0
 41
0
  0
VERTEX
  8
0
 10
7.03456
 20
1.86301
 30
0.0
 40
0
 41
0
  0
VERTEX
  8
0
 10
7.0294
 20
1.86714
 30
0.0
 40
0
 41
0
  0
VERTEX
  8
0
 10
7.00749
 20
1.89117
 30
0.0
 40
0
 41
0
  0
VERTEX
  8
0
 10
6.99126
 20
1.91938
 30
0.0
 40
0
 41
0
  0
VERTEX
  8
0
 10
6.98893
 20
1.92551
 30
0.0
 40
0
 41
0
  0
VERTEX
  8
0
 10
6.98633
 20
1.93267
 30
0.0
 40
0
 41
0
  0
VERTEX
  8
0
 10
6.97418
 20
2.00711
 30
0.0
 40
0
 41
0
  0
VERTEX
  8
0
 10
6.97439
 20
2.01471
 30
0.0
 40
0
 41
0
  0
VERTEX
  8
0
 10
6.97439
 20
2.30208
 30
0.0
 40
0
 41
0
  0
VERTEX
  8
0
 10
6.88226
 20
2.30208
 30
0.0
 40
0
 41
0
  0
VERTEX
  8
0
 10
6.87967
 20
2.30203
 30
0.0
 40
0
 41
0
  0
VERTEX
  8
0
 10
6.86768
 20
2.30593
 30
0.0
 40
0
 41
0
  0
VERTEX
  8
0
 10
6.85856
 20
2.31456
 30
0.0
 40
0
 41
0
  0
VERTEX
  8
0
 10
6.85742
 20
2.31689
 30
0.0
 40
0
 41
0
  0
VERTEX
  8
0
 10
6.85568
 20
2.32081
 30
0.0
 40
0
 41
0
  0
VERTEX
  8
0
 10
6.84842
 20
2.36199
 30
0.0
 40
0
 41
0
  0
VERTEX
  8
0
 10
6.84874
 20
2.36615
 30
0.0
 40
0
 41
0
  0
VERTEX
  8
0
 10
6.84868
 20
2.36882
 30
0.0
 40
0
 41
0
  0
VERTEX
  8
0
 10
6.85047
 20
2.39486
 30
0.0
 40
0
 41
0
  0
VERTEX
  8
0
 10
6.85092
 20
2.3974
 30
0.0
 40
0
 41
0
  0
VERTEX
  8
0
 10
6.85113
 20
2.39914
 30
0.0
 40
0
 41
0
  0
VERTEX
  8
0
 10
6.85656
 20
2.41569
 30
0.0
 40
0
 41
0
  0
VERTEX
  8
0
 10
6.85742
 20
2.41721
 30
0.0
 40
0
 41
0
  0
VERTEX
  8
0
 10
6.85801
 20
2.41835
 30
0.0
 40
0
 41
0
  0
VERTEX
  8
0
 10
6.86669
 20
2.42703
 30
0.0
 40
0
 41
0
  0
VERTEX
  8
0
 10
6.86783
 20
2.42763
 30
0.0
 40
0
 41
0
  0
VERTEX
  8
0
 10
6.86897
 20
2.42817
 30
0.0
 40
0
 41
0
  0
VERTEX
  8
0
 10
6.88151
 20
2.43078
 30
0.0
 40
0
 41
0
  0
VERTEX
  8
0
 10
6.88282
 20
2.43072
 30
0.0
 40
0
 41
0
  0
VERTEX
  8
0
 10
6.97407
 20
2.43072
 30
0.0
 40
0
 41
0
  0
VERTEX
  8
0
 10
6.97407
 20
2.55572
 30
0.0
 40
0
 41
0
  0
VERTEX
  8
0
 10
6.97407
 20
2.5586
 30
0.0
 40
0
 41
0
  0
VERTEX
  8
0
 10
6.97797
 20
2.56635
 30
0.0
 40
0
 41
0
  0
VERTEX
  8
0
 10
6.97874
 20
2.56706
 30
0.0
 40
0
 41
0
  0
VERTEX
  8
0
 10
6.97993
 20
2.56814
 30
0.0
 40
0
 41
0
  0
VERTEX
  8
0
 10
6.99431
 20
2.57531
 30
0.0
 40
0
 41
0
  0
VERTEX
  8
0
 10
6.99593
 20
2.57563
 30
0.0
 40
0
 41
0
  0
VERTEX
  8
0
 10
6.99864
 20
2.57633
 30
0.0
 40
0
 41
0
  0
VERTEX
  8
0
 10
7.02664
 20
2.58051
 30
0.0
 40
0
 41
0
  0
VERTEX
  8
0
 10
7.02946
 20
2.58062
 30
0.0
 40
0
 41
0
  0
VERTEX
  8
0
 10
7.03299
 20
2.58089
 30
0.0
 40
0
 41
0
  0
VERTEX
  8
0
 10
7.06939
 20
2.58219
 30
0.0
 40
0
 41
0
  0
VERTEX
  8
0
 10
7.08154
 20
2.58219
 30
0.0
 40
0
 41
0
  0
VERTEX
  8
0
 10
7.09478
 20
2.58219
 30
0.0
 40
0
 41
0
  0
VERTEX
  8
0
 10
7.13097
 20
2.58089
 30
0.0
 40
0
 41
0
  0
VERTEX
  8
0
 10
7.1345
 20
2.58062
 30
0.0
 40
0
 41
0
  0
VERTEX
  8
0
 10
7.13726
 20
2.58051
 30
0.0
 40
0
 41
0
  0
VERTEX
  8
0
 10
7.16476
 20
2.57633
 30
0.0
 40
0
 41
0
  0
VERTEX
  8
0
 10
7.16749
 20
2.57563
 30
0.0
 40
0
 41
0
  0
VERTEX
  8
0
 10
7.16906
 20
2.57525
 30
0.0
 40
0
 41
0
  0
VERTEX
  8
0
 10
7.18349
 20
2.56814
 30
0.0
 40
0
 41
0
  0
VERTEX
  8
0
 10
7.18479
 20
2.56706
 30
0.0
 40
0
 41
0
  0
VERTEX
  8
0
 10
7.1856
 20
2.56635
 30
0.0
 40
0
 41
0
  0
VERTEX
  8
0
 10
7.18989
 20
2.55838
 30
0.0
 40
0
 41
0
  0
VERTEX
  8
0
 10
7.18989
 20
2.55572
 30
0.0
 40
0
 41
0
  0
VERTEX
  8
0
 10
7.18989
 20
2.43072
 30
0.0
 40
0
 41
0
  0
VERTEX
  8
0
 10
7.35656
 20
2.43072
 30
0.0
 40
0
 41
0
  0
VERTEX
  8
0
 10
7.35786
 20
2.43078
 30
0.0
 40
0
 41
0
  0
VERTEX
  8
0
 10
7.37039
 20
2.42817
 30
0.0
 40
0
 41
0
  0
VERTEX
  8
0
 10
7.37158
 20
2.42763
 30
0.0
 40
0
 41
0
  0
VERTEX
  8
0
 10
7.37267
 20
2.42703
 30
0.0
 40
0
 41
0
  0
VERTEX
  8
0
 10
7.38135
 20
2.41829
 30
0.0
 40
0
 41
0
  0
VERTEX
  8
0
 10
7.382
 20
2.41721
 30
0.0
 40
0
 41
0
  0
VERTEX
  8
0
 10
7.38282
 20
2.41569
 30
0.0
 40
0
 41
0
  0
VERTEX
  8
0
 10
7.38818
 20
2.39914
 30
0.0
 40
0
 41
0
  0
VERTEX
  8
0
 10
7.38846
 20
2.3974
 30
0.0
 40
0
 41
0
  0
VERTEX
  8
0
 10
7.38883
 20
2.39486
 30
0.0
 40
0
 41
0
  0
VERTEX
  8
0
 10
7.39051
 20
2.36882
 30
0.0
 40
0
 41
0
  0
VERTEX
  8
0
 10
7.39051
 20
2.36615
 30
0.0
 40
0
 41
0
  0
VERTEX
  8
0
 10
7.39079
 20
2.36199
 30
0.0
 40
0
 41
0
  0
VERTEX
  8
0
 10
7.38368
 20
2.32081
 30
0.0
 40
0
 41
0
  0
VERTEX
  8
0
 10
7.382
 20
2.31689
 30
0.0
 40
0
 41
0
  0
VERTEX
  8
0
 10
7.38075
 20
2.31456
 30
0.0
 40
0
 41
0
  0
VERTEX
  8
0
 10
7.37158
 20
2.30593
 30
0.0
 40
0
 41
0
  0
VERTEX
  8
0
 10
7.3596
 20
2.30203
 30
0.0
 40
0
 41
0
  0
VERTEX
  8
0
 10
7.35699
 20
2.30208
 30
0.0
 40
0
 41
0
  0
VERTEX
  8
0
 10
7.18929
 20
2.30208
 30
0.0
 40
0
 41
0
  0
VERTEX
  8
0
 10
7.18929
 20
2.03851
 30
0.0
 40
0
 41
0
  0
VERTEX
  8
0
 10
7.18929
 20
2.02849
 30
0.0
 40
0
 41
0
  0
VERTEX
  8
0
 10
7.19417
 20
1.99837
 30
0.0
 40
0
 41
0
  0
VERTEX
  8
0
 10
7.20574
 20
1.97353
 30
0.0
 40
0
 41
0
  0
VERTEX
  8
0
 10
7.20904
 20
1.96967
 30
0.0
 40
0
 41
0
  0
VERTEX
  8
0
 10
7.21235
 20
1.96588
 30
0.0
 40
0
 41
0
  0
VERTEX
  8
0
 10
7.23654
 20
1.95253
 30
0.0
 40
0
 41
0
  0
VERTEX
  8
0
 10
7.26878
 20
1.94678
 30
0.0
 40
0
 41
0
  0
VERTEX
  8
0
 10
7.27957
 20
1.94678
 30
0.0
 40
0
 41
0
  0
VERTEX
  8
0
 10
7.28217
 20
1.94678
 30
0.0
 40
0
 41
0
  0
VERTEX
  8
0
 10
7.30821
 20
1.94857
 30
0.0
 40
0
 41
0
  0
VERTEX
  8
0
 10
7.31082
 20
1.94894
 30
0.0
 40
0
 41
0
  0
VERTEX
  8
0
 10
7.3131
 20
1.94933
 30
0.0
 40
0
 41
0
  0
VERTEX
  8
0
 10
7.33361
 20
1.9535
 30
0.0
 40
0
 41
0
  0
VERTEX
  8
0
 10
7.33539
 20
1.95394
 30
0.0
 40
0
 41
0
  0
VERTEX
  8
0
 10
7.35346
 20
1.95899
 30
0.0
 40
0
 41
0
  0
VERTEX
  8
0
 10
7.35449
 20
1.95936
 30
0.0
 40
0
 41
0
  0
VERTEX
  8
0
 10
7.36561
 20
1.96115
 30
0.0
 40
0
 41
0
  0
VERTEX
  8
0
 10
7.36675
 20
1.96115
 30
0.0
 40
0
 41
0
  0
VERTEX
  8
0
 10
7.36762
 20
1.96121
 30
0.0
 40
0
 41
0
  0
VERTEX
  8
0
 10
7.37636
 20
1.95936
 30
0.0
 40
0
 41
0
  0
VERTEX
  8
0
 10
7.37717
 20
1.95899
 30
0.0
 40
0
 41
0
  0
VERTEX
  8
0
 10
7.37804
 20
1.95856
 30
0.0
 40
0
 41
0
  0
VERTEX
  8
0
 10
7.38417
 20
1.95117
 30
0.0
 40
0
 41
0
  0
VERTEX
  8
0
 10
7.3845
 20
1.95019
 30
0.0
 40
0
 41
0
  0
VERTEX
  8
0
 10
7.38499
 20
1.94879
 30
0.0
 40
0
 41
0
  0
VERTEX
  8
0
 10
7.389
 20
1.93386
 30
0.0
 40
0
 41
0
  0
VERTEX
  8
0
 10
7.38926
 20
1.93229
 30
0.0
 40
0
 41
0
  0
VERTEX
  8
0
 10
7.38965
 20
1.9299
 30
0.0
 40
0
 41
0
  0
VERTEX
  8
0
 10
7.39144
 20
1.90576
 30
0.0
 40
0
 41
0
  0
VERTEX
  8
0
 10
7.39144
 20
1.90332
 30
0.0
 40
0
 41
0
  0
SEQEND
 8
0
  0
POLYLINE
  8
0
 62
     253
 66
     1
 10
0
 20
0
 30
0.0
 70
     1
 40
0
 41
0
  0
VERTEX
  8
0
 10
8.30658
 20
2.13406
 30
0.0
 40
0
 41
0
  0
VERTEX
  8
0
 10
8.30675
 20
2.12289
 30
0.0
 40
0
 41
0
  0
VERTEX
  8
0
 10
8.30067
 20
2.06739
 30
0.0
 40
0
 41
0
  0
VERTEX
  8
0
 10
8.2856
 20
2.01367
 30
0.0
 40
0
 41
0
  0
VERTEX
  8
0
 10
8.28125
 20
2.00331
 30
0.0
 40
0
 41
0
  0
VERTEX
  8
0
 10
8.27686
 20
1.99337
 30
0.0
 40
0
 41
0
  0
VERTEX
  8
0
 10
8.24821
 20
1.94769
 30
0.0
 40
0
 41
0
  0
VERTEX
  8
0
 10
8.21137
 20
1.90826
 30
0.0
 40
0
 41
0
  0
VERTEX
  8
0
 10
8.2029
 20
1.90147
 30
0.0
 40
0
 41
0
  0
VERTEX
  8
0
 10
8.19314
 20
1.89387
 30
0.0
 40
0
 41
0
  0
VERTEX
  8
0
 10
8.1404
 20
1.86199
 30
0.0
 40
0
 41
0
  0
VERTEX
  8
0
 10
8.08328
 20
1.83876
 30
0.0
 40
0
 41
0
  0
VERTEX
  8
0
 10
8.07135
 20
1.8355
 30
0.0
 40
0
 41
0
  0
VERTEX
  8
0
 10
8.05626
 20
1.83143
 30
0.0
 40
0
 41
0
  0
VERTEX
  8
0
 10
7.97949
 20
1.81743
 30
0.0
 40
0
 41
0
  0
VERTEX
  8
0
 10
7.90169
 20
1.81222
 30
0.0
 40
0
 41
0
  0
VERTEX
  8
0
 10
7.88607
 20
1.8125
 30
0.0
 40
0
 41
0
  0
VERTEX
  8
0
 10
7.87104
 20
1.81228
 30
0.0
 40
0
 41
0
  0
VERTEX
  8
0
 10
7.79644
 20
1.81706
 30
0.0
 40
0
 41
0
  0
VERTEX
  8
0
 10
7.72282
 20
1.82964
 30
0.0
 40
0
 41
0
  0
VERTEX
  8
0
 10
7.70833
 20
1.83333
 30
0.0
 40
0
 41
0
  0
VERTEX
  8
0
 10
7.69694
 20
1.83621
 30
0.0
 40
0
 41
0
  0
VERTEX
  8
0
 10
7.64242
 20
1.8571
 30
0.0
 40
0
 41
0
  0
VERTEX
  8
0
 10
7.59201
 20
1.88656
 30
0.0
 40
0
 41
0
  0
VERTEX
  8
0
 10
7.58268
 20
1.89367
 30
0.0
 40
0
 41
0
  0
VERTEX
  8
0
 10
7.57449
 20
1.90007
 30
0.0
 40
0
 41
0
  0
VERTEX
  8
0
 10
7.53939
 20
1.93761
 30
0.0
 40
0
 41
0
  0
VERTEX
  8
0
 10
7.51269
 20
1.9815
 30
0.0
 40
0
 41
0
  0
VERTEX
  8
0
 10
7.50874
 20
1.99104
 30
0.0
 40
0
 41
0
  0
VERTEX
  8
0
 10
7.50456
 20
2.00157
 30
0.0
 40
0
 41
0
  0
VERTEX
  8
0
 10
7.49013
 20
2.05583
 30
0.0
 40
0
 41
0
  0
VERTEX
  8
0
 10
7.48449
 20
2.11176
 30
0.0
 40
0
 41
0
  0
VERTEX
  8
0
 10
7.48469
 20
2.12304
 30
0.0
 40
0
 41
0
  0
VERTEX
  8
0
 10
7.48449
 20
2.13428
 30
0.0
 40
0
 41
0
  0
VERTEX
  8
0
 10
7.49067
 20
2.18978
 30
0.0
 40
0
 41
0
  0
VERTEX
  8
0
 10
7.50597
 20
2.24343
 30
0.0
 40
0
 41
0
  0
VERTEX
  8
0
 10
7.51042
 20
2.25375
 30
0.0
 40
0
 41
0
  0
VERTEX
  8
0
 10
7.51481
 20
2.26372
 30
0.0
 40
0
 41
0
  0
VERTEX
  8
0
 10
7.54357
 20
2.30946
 30
0.0
 40
0
 41
0
  0
VERTEX
  8
0
 10
7.58057
 20
2.34885
 30
0.0
 40
0
 41
0
  0
VERTEX
  8
0
 10
7.58908
 20
2.35562
 30
0.0
 40
0
 41
0
  0
VERTEX
  8
0
 10
7.59879
 20
2.36322
 30
0.0
 40
0
 41
0
  0
VERTEX
  8
0
 10
7.65136
 20
2.39486
 30
0.0
 40
0
 41
0
  0
VERTEX
  8
0
 10
7.70828
 20
2.41797
 30
0.0
 40
0
 41
0
  0
VERTEX
  8
0
 10
7.72021
 20
2.42122
 30
0.0
 40
0
 41
0
  0
VERTEX
  8
0
 10
7.73525
 20
2.4254
 30
0.0
 40
0
 41
0
  0
VERTEX
  8
0
 10
7.81164
 20
2.43951
 30
0.0
 40
0
 41
0
  0
VERTEX
  8
0
 10
7.88917
 20
2.44476
 30
0.0
 40
0
 41
0
  0
VERTEX
  8
0
 10
7.90479
 20
2.4445
 30
0.0
 40
0
 41
0
  0
VERTEX
  8
0
 10
7.91982
 20
2.44472
 30
0.0
 40
0
 41
0
  0
VERTEX
  8
0
 10
7.99485
 20
2.43994
 30
0.0
 40
0
 41
0
  0
VERTEX
  8
0
 10
8.06901
 20
2.42736
 30
0.0
 40
0
 41
0
  0
VERTEX
  8
0
 10
8.08365
 20
2.42367
 30
0.0
 40
0
 41
0
  0
VERTEX
  8
0
 10
8.095
 20
2.4209
 30
0.0
 40
0
 41
0
  0
VERTEX
  8
0
 10
8.14925
 20
2.40018
 30
0.0
 40
0
 41
0
  0
VERTEX
  8
0
 10
8.19937
 20
2.37076
 30
0.0
 40
0
 41
0
  0
VERTEX
  8
0
 10
8.20865
 20
2.36367
 30
0.0
 40
0
 41
0
  0
VERTEX
  8
0
 10
8.21674
 20
2.35726
 30
0.0
 40
0
 41
0
  0
VERTEX
  8
0
 10
8.25168
 20
2.31972
 30
0.0
 40
0
 41
0
  0
VERTEX
  8
0
 10
8.27821
 20
2.27582
 30
0.0
 40
0
 41
0
  0
VERTEX
  8
0
 10
8.28217
 20
2.26628
 30
0.0
 40
0
 41
0
  0
VERTEX
  8
0
 10
8.28635
 20
2.25581
 30
0.0
 40
0
 41
0
  0
VERTEX
  8
0
 10
8.30089
 20
2.20139
 30
0.0
 40
0
 41
0
  0
VERTEX
  8
0
 10
8.30675
 20
2.1454
 30
0.0
 40
0
 41
0
  0
VERTEX
  8
0
 10
8.30658
 20
2.13406
 30
0.0
 40
0
 41
0
  0
SEQEND
 8
0
  0
POLYLINE
  8
0
 62
     253
 66
     1
 10
0
 20
0
 30
0.0
 70
     1
 40
0
 41
0
  0
VERTEX
  8
0
 10
7.817
 20
2.51367
 30
0.0
 40
0
 41
0
  0
VERTEX
  8
0
 10
7.81603
 20
2.51286
 30
0.0
 40
0
 41
0
  0
VERTEX
  8
0
 10
7.80567
 20
2.50608
 30
0.0
 40
0
 41
0
  0
VERTEX
  8
0
 10
7.80458
 20
2.50553
 30
0.0
 40
0
 41
0
  0
VERTEX
  8
0
 10
7.80333
 20
2.50499
 30
0.0
 40
0
 41
0
  0
VERTEX
  8
0
 10
7.79036
 20
2.50103
 30
0.0
 40
0
 41
0
  0
VERTEX
  8
0
 10
7.78907
 20
2.50082
 30
0.0
 40
0
 41
0
  0
VERTEX
  8
0
 10
7.78722
 20
2.50054
 30
0.0
 40
0
 41
0
  0
VERTEX
  8
0
 10
7.76893
 20
2.49864
 30
0.0
 40
0
 41
0
  0
VERTEX
  8
0
 10
7.76708
 20
2.49854
 30
0.0
 40
0
 41
0
  0
VERTEX
  8
0
 10
7.76492
 20
2.49843
 30
0.0
 40
0
 41
0
  0
VERTEX
  8
0
 10
7.74311
 20
2.49794
 30
0.0
 40
0
 41
0
  0
VERTEX
  8
0
 10
7.73583
 20
2.49794
 30
0.0
 40
0
 41
0
  0
VERTEX
  8
0
 10
7.72493
 20
2.49794
 30
0.0
 40
0
 41
0
  0
VERTEX
  8
0
 10
7.69515
 20
2.49897
 30
0.0
 40
0
 41
0
  0
VERTEX
  8
0
 10
7.69239
 20
2.49918
 30
0.0
 40
0
 41
0
  0
VERTEX
  8
0
 10
7.69026
 20
2.49929
 30
0.0
 40
0
 41
0
  0
VERTEX
  8
0
 10
7.66949
 20
2.50299
 30
0.0
 40
0
 41
0
  0
VERTEX
  8
0
 10
7.66749
 20
2.50364
 30
0.0
 40
0
 41
0
  0
VERTEX
  8
0
 10
7.66607
 20
2.50418
 30
0.0
 40
0
 41
0
  0
VERTEX
  8
0
 10
7.65929
 20
2.50987
 30
0.0
 40
0
 41
0
  0
VERTEX
  8
0
 10
7.65929
 20
2.51178
 30
0.0
 40
0
 41
0
  0
VERTEX
  8
0
 10
7.6594
 20
2.51297
 30
0.0
 40
0
 41
0
  0
VERTEX
  8
0
 10
7.66444
 20
2.52349
 30
0.0
 40
0
 41
0
  0
VERTEX
  8
0
 10
7.66531
 20
2.52436
 30
0.0
 40
0
 41
0
  0
VERTEX
  8
0
 10
7.79574
 20
2.67708
 30
0.0
 40
0
 41
0
  0
VERTEX
  8
0
 10
7.79671
 20
2.67828
 30
0.0
 40
0
 41
0
  0
VERTEX
  8
0
 10
7.80817
 20
2.68826
 30
0.0
 40
0
 41
0
  0
VERTEX
  8
0
 10
7.80946
 20
2.68907
 30
0.0
 40
0
 41
0
  0
VERTEX
  8
0
 10
7.81099
 20
2.69
 30
0.0
 40
0
 41
0
  0
VERTEX
  8
0
 10
7.82747
 20
2.69656
 30
0.0
 40
0
 41
0
  0
VERTEX
  8
0
 10
7.82926
 20
2.69689
 30
0.0
 40
0
 41
0
  0
VERTEX
  8
0
 10
7.83171
 20
2.69743
 30
0.0
 40
0
 41
0
  0
VERTEX
  8
0
 10
7.85644
 20
2.70107
 30
0.0
 40
0
 41
0
  0
VERTEX
  8
0
 10
7.85894
 20
2.70122
 30
0.0
 40
0
 41
0
  0
VERTEX
  8
0
 10
7.86182
 20
2.7015
 30
0.0
 40
0
 41
0
  0
VERTEX
  8
0
 10
7.89285
 20
2.70281
 30
0.0
 40
0
 41
0
  0
VERTEX
  8
0
 10
7.90321
 20
2.70281
 30
0.0
 40
0
 41
0
  0
VERTEX
  8
0
 10
7.91943
 20
2.70281
 30
0.0
 40
0
 41
0
  0
VERTEX
  8
0
 10
7.96397
 20
2.70074
 30
0.0
 40
0
 41
0
  0
VERTEX
  8
0
 10
7.9681
 20
2.70031
 30
0.0
 40
0
 41
0
  0
VERTEX
  8
0
 10
7.97108
 20
2.70014
 30
0.0
 40
0
 41
0
  0
VERTEX
  8
0
 10
8.00022
 20
2.6939
 30
0.0
 40
0
 41
0
  0
VERTEX
  8
0
 10
8.00304
 20
2.69282
 30
0.0
 40
0
 41
0
  0
VERTEX
  8
0
 10
8.00472
 20
2.692
 30
0.0
 40
0
 41
0
  0
VERTEX
  8
0
 10
8.01118
 20
2.68175
 30
0.0
 40
0
 41
0
  0
VERTEX
  8
0
 10
8.01074
 20
2.6805
 30
0.0
 40
0
 41
0
  0
VERTEX
  8
0
 10
8.00982
 20
2.67876
 30
0.0
 40
0
 41
0
  0
VERTEX
  8
0
 10
7.9969
 20
2.66379
 30
0.0
 40
0
 41
0
  0
VERTEX
  8
0
 10
7.99533
 20
2.6626
 30
0.0
 40
0
 41
0
  0
VERTEX
  8
0
 10
7.817
 20
2.51367
 30
0.0
 40
0
 41
0
  0
SEQEND
 8
0
  0
POLYLINE
  8
0
 62
     253
 66
     1
 10
0
 20
0
 30
0.0
 70
     1
 40
0
 41
0
  0
VERTEX
  8
0
 10
8.08365
 20
2.12825
 30
0.0
 40
0
 41
0
  0
VERTEX
  8
0
 10
8.08371
 20
2.13471
 30
0.0
 40
0
 41
0
  0
VERTEX
  8
0
 10
8.07611
 20
2.19846
 30
0.0
 40
0
 41
0
  0
VERTEX
  8
0
 10
8.0746
 20
2.20469
 30
0.0
 40
0
 41
0
  0
VERTEX
  8
0
 10
8.07319
 20
2.21029
 30
0.0
 40
0
 41
0
  0
VERTEX
  8
0
 10
8.04769
 20
2.2609
 30
0.0
 40
0
 41
0
  0
VERTEX
  8
0
 10
8.04406
 20
2.26531
 30
0.0
 40
0
 41
0
  0
VERTEX
  8
0
 10
8.04015
 20
2.26981
 30
0.0
 40
0
 41
0
  0
VERTEX
  8
0
 10
8.0179
 20
2.28896
 30
0.0
 40
0
 41
0
  0
VERTEX
  8
0
 10
7.99235
 20
2.30339
 30
0.0
 40
0
 41
0
  0
VERTEX
  8
0
 10
7.98687
 20
2.3055
 30
0.0
 40
0
 41
0
  0
VERTEX
  8
0
 10
7.97965
 20
2.30817
 30
0.0
 40
0
 41
0
  0
VERTEX
  8
0
 10
7.90462
 20
2.32026
 30
0.0
 40
0
 41
0
  0
VERTEX
  8
0
 10
7.89697
 20
2.31999
 30
0.0
 40
0
 41
0
  0
VERTEX
  8
0
 10
7.88981
 20
2.32015
 30
0.0
 40
0
 41
0
  0
VERTEX
  8
0
 10
7.8195
 20
2.30935
 30
0.0
 40
0
 41
0
  0
VERTEX
  8
0
 10
7.81272
 20
2.30707
 30
0.0
 40
0
 41
0
  0
VERTEX
  8
0
 10
7.80707
 20
2.30518
 30
0.0
 40
0
 41
0
  0
VERTEX
  8
0
 10
7.75743
 20
2.27371
 30
0.0
 40
0
 41
0
  0
VERTEX
  8
0
 10
7.75331
 20
2.26938
 30
0.0
 40
0
 41
0
  0
VERTEX
  8
0
 10
7.74935
 20
2.26508
 30
0.0
 40
0
 41
0
  0
VERTEX
  8
0
 10
7.72032
 20
2.21528
 30
0.0
 40
0
 41
0
  0
VERTEX
  8
0
 10
7.71853
 20
2.20969
 30
0.0
 40
0
 41
0
  0
VERTEX
  8
0
 10
7.71647
 20
2.20329
 30
0.0
 40
0
 41
0
  0
VERTEX
  8
0
 10
7.70676
 20
2.13699
 30
0.0
 40
0
 41
0
  0
VERTEX
  8
0
 10
7.70688
 20
2.13021
 30
0.0
 40
0
 41
0
  0
VERTEX
  8
0
 10
7.70682
 20
2.12381
 30
0.0
 40
0
 41
0
  0
VERTEX
  8
0
 10
7.71474
 20
2.06
 30
0.0
 40
0
 41
0
  0
VERTEX
  8
0
 10
7.71636
 20
2.05376
 30
0.0
 40
0
 41
0
  0
VERTEX
  8
0
 10
7.71778
 20
2.04824
 30
0.0
 40
0
 41
0
  0
VERTEX
  8
0
 10
7.74328
 20
1.99761
 30
0.0
 40
0
 41
0
  0
VERTEX
  8
0
 10
7.74685
 20
1.99311
 30
0.0
 40
0
 41
0
  0
VERTEX
  8
0
 10
7.75065
 20
1.98861
 30
0.0
 40
0
 41
0
  0
VERTEX
  8
0
 10
7.77285
 20
1.96946
 30
0.0
 40
0
 41
0
  0
VERTEX
  8
0
 10
7.79844
 20
1.95529
 30
0.0
 40
0
 41
0
  0
VERTEX
  8
0
 10
7.80404
 20
1.95324
 30
0.0
 40
0
 41
0
  0
VERTEX
  8
0
 10
7.81119
 20
1.95068
 30
0.0
 40
0
 41
0
  0
VERTEX
  8
0
 10
7.8859
 20
1.93886
 30
0.0
 40
0
 41
0
  0
VERTEX
  8
0
 10
7.89356
 20
1.93907
 30
0.0
 40
0
 41
0
  0
VERTEX
  8
0
 10
7.90076
 20
1.93896
 30
0.0
 40
0
 41
0
  0
VERTEX
  8
0
 10
7.97185
 20
1.94971
 30
0.0
 40
0
 41
0
  0
VERTEX
  8
0
 10
7.97874
 20
1.95199
 30
0.0
 40
0
 41
0
  0
VERTEX
  8
0
 10
7.98432
 20
1.95389
 30
0.0
 40
0
 41
0
  0
VERTEX
  8
0
 10
8.0339
 20
1.98514
 30
0.0
 40
0
 41
0
  0
VERTEX
  8
0
 10
8.03803
 20
1.98936
 30
0.0
 40
0
 41
0
  0
VERTEX
  8
0
 10
8.04199
 20
1.9936
 30
0.0
 40
0
 41
0
  0
VERTEX
  8
0
 10
8.07075
 20
2.04324
 30
0.0
 40
0
 41
0
  0
VERTEX
  8
0
 10
8.07249
 20
2.04878
 30
0.0
 40
0
 41
0
  0
VERTEX
  8
0
 10
8.07443
 20
2.05518
 30
0.0
 40
0
 41
0
  0
VERTEX
  8
0
 10
8.08393
 20
2.12104
 30
0.0
 40
0
 41
0
  0
VERTEX
  8
0
 10
8.08388
 20
2.12771
 30
0.0
 40
0
 41
0
  0
VERTEX
  8
0
 10
8.08365
 20
2.12825
 30
0.0
 40
0
 41
0
  0
SEQEND
 8
0
  0
POLYLINE
  8
0
 62
     253
 66
     1
 10
0
 20
0
 30
0.0
 70
     1
 40
0
 41
0
  0
VERTEX
  8
0
 10
8.13699
 20
2.51481
 30
0.0
 40
0
 41
0
  0
VERTEX
  8
0
 10
8.13585
 20
2.51389
 30
0.0
 40
0
 41
0
  0
VERTEX
  8
0
 10
8.12358
 20
2.50657
 30
0.0
 40
0
 41
0
  0
VERTEX
  8
0
 10
8.12229
 20
2.50603
 30
0.0
 40
0
 41
0
  0
VERTEX
  8
0
 10
8.12082
 20
2.50549
 30
0.0
 40
0
 41
0
  0
VERTEX
  8
0
 10
8.10579
 20
2.50157
 30
0.0
 40
0
 41
0
  0
VERTEX
  8
0
 10
8.10428
 20
2.50136
 30
0.0
 40
0
 41
0
  0
VERTEX
  8
0
 10
8.10232
 20
2.50108
 30
0.0
 40
0
 41
0
  0
VERTEX
  8
0
 10
8.08257
 20
2.49918
 30
0.0
 40
0
 41
0
  0
VERTEX
  8
0
 10
8.08062
 20
2.49908
 30
0.0
 40
0
 41
0
  0
VERTEX
  8
0
 10
8.0784
 20
2.49897
 30
0.0
 40
0
 41
0
  0
VERTEX
  8
0
 10
8.05524
 20
2.49843
 30
0.0
 40
0
 41
0
  0
VERTEX
  8
0
 10
8.04753
 20
2.49843
 30
0.0
 40
0
 41
0
  0
VERTEX
  8
0
 10
8.04178
 20
2.49821
 30
0.0
 40
0
 41
0
  0
VERTEX
  8
0
 10
7.98475
 20
2.50244
 30
0.0
 40
0
 41
0
  0
VERTEX
  8
0
 10
7.97917
 20
2.50353
 30
0.0
 40
0
 41
0
  0
VERTEX
  8
0
 10
7.9764
 20
2.50435
 30
0.0
 40
0
 41
0
  0
VERTEX
  8
0
 10
7.96935
 20
2.5109
 30
0.0
 40
0
 41
0
  0
VERTEX
  8
0
 10
7.9731
 20
2.52072
 30
0.0
 40
0
 41
0
  0
VERTEX
  8
0
 10
7.97532
 20
2.523
 30
0.0
 40
0
 41
0
  0
VERTEX
  8
0
 10
8.1301
 20
2.68261
 30
0.0
 40
0
 41
0
  0
VERTEX
  8
0
 10
8.13103
 20
2.68371
 30
0.0
 40
0
 41
0
  0
VERTEX
  8
0
 10
8.14253
 20
2.69243
 30
0.0
 40
0
 41
0
  0
VERTEX
  8
0
 10
8.14388
 20
2.69303
 30
0.0
 40
0
 41
0
  0
VERTEX
  8
0
 10
8.14551
 20
2.69379
 30
0.0
 40
0
 41
0
  0
VERTEX
  8
0
 10
8.16287
 20
2.699
 30
0.0
 40
0
 41
0
  0
VERTEX
  8
0
 10
8.16471
 20
2.69928
 30
0.0
 40
0
 41
0
  0
VERTEX
  8
0
 10
8.16743
 20
2.69976
 30
0.0
 40
0
 41
0
  0
VERTEX
  8
0
 10
8.19499
 20
2.70264
 30
0.0
 40
0
 41
0
  0
VERTEX
  8
0
 10
8.19781
 20
2.70269
 30
0.0
 40
0
 41
0
  0
VERTEX
  8
0
 10
8.20117
 20
2.70285
 30
0.0
 40
0
 41
0
  0
VERTEX
  8
0
 10
8.23828
 20
2.70367
 30
0.0
 40
0
 41
0
  0
VERTEX
  8
0
 10
8.25071
 20
2.70367
 30
0.0
 40
0
 41
0
  0
VERTEX
  8
0
 10
8.25526
 20
2.70378
 30
0.0
 40
0
 41
0
  0
VERTEX
  8
0
 10
8.30078
 20
2.70111
 30
0.0
 40
0
 41
0
  0
VERTEX
  8
0
 10
8.30533
 20
2.70053
 30
0.0
 40
0
 41
0
  0
VERTEX
  8
0
 10
8.30778
 20
2.70031
 30
0.0
 40
0
 41
0
  0
VERTEX
  8
0
 10
8.33143
 20
2.69325
 30
0.0
 40
0
 41
0
  0
VERTEX
  8
0
 10
8.33365
 20
2.69206
 30
0.0
 40
0
 41
0
  0
VERTEX
  8
0
 10
8.33501
 20
2.69119
 30
0.0
 40
0
 41
0
  0
VERTEX
  8
0
 10
8.33968
 20
2.68067
 30
0.0
 40
0
 41
0
  0
VERTEX
  8
0
 10
8.33925
 20
2.67947
 30
0.0
 40
0
 41
0
  0
VERTEX
  8
0
 10
8.33849
 20
2.6779
 30
0.0
 40
0
 41
0
  0
VERTEX
  8
0
 10
8.32699
 20
2.66499
 30
0.0
 40
0
 41
0
  0
VERTEX
  8
0
 10
8.32553
 20
2.66407
 30
0.0
 40
0
 41
0
  0
VERTEX
  8
0
 10
8.13699
 20
2.51481
 30
0.0
 40
0
 41
0
  0
SEQEND
 8
0
  0
POLYLINE
  8
0
 62
     253
 66
     1
 10
0
 20
0
 30
0.0
 70
     1
 40
0
 41
0
  0
VERTEX
  8
0
 10
8.97065
 20
2.35656
 30
0.0
 40
0
 41
0
  0
VERTEX
  8
0
 10
8.97065
 20
2.35346
 30
0.0
 40
0
 41
0
  0
VERTEX
  8
0
 10
8.96918
 20
2.3226
 30
0.0
 40
0
 41
0
  0
VERTEX
  8
0
 10
8.96886
 20
2.3195
 30
0.0
 40
0
 41
0
  0
VERTEX
  8
0
 10
8.96869
 20
2.3176
 30
0.0
 40
0
 41
0
  0
VERTEX
  8
0
 10
8.96442
 20
2.29872
 30
0.0
 40
0
 41
0
  0
VERTEX
  8
0
 10
8.96376
 20
2.29688
 30
0.0
 40
0
 41
0
  0
VERTEX
  8
0
 10
8.96332
 20
2.29574
 30
0.0
 40
0
 41
0
  0
VERTEX
  8
0
 10
8.95574
 20
2.28624
 30
0.0
 40
0
 41
0
  0
VERTEX
  8
0
 10
8.95469
 20
2.28554
 30
0.0
 40
0
 41
0
  0
VERTEX
  8
0
 10
8.95356
 20
2.285
 30
0.0
 40
0
 41
0
  0
VERTEX
  8
0
 10
8.94174
 20
2.28239
 30
0.0
 40
0
 41
0
  0
VERTEX
  8
0
 10
8.94054
 20
2.28239
 30
0.0
 40
0
 41
0
  0
VERTEX
  8
0
 10
8.93918
 20
2.28244
 30
0.0
 40
0
 41
0
  0
VERTEX
  8
0
 10
8.92626
 20
2.28424
 30
0.0
 40
0
 41
0
  0
VERTEX
  8
0
 10
8.92503
 20
2.28456
 30
0.0
 40
0
 41
0
  0
VERTEX
  8
0
 10
8.9056
 20
2.28928
 30
0.0
 40
0
 41
0
  0
VERTEX
  8
0
 10
8.90381
 20
2.28971
 30
0.0
 40
0
 41
0
  0
VERTEX
  8
0
 10
8.88411
 20
2.29363
 30
0.0
 40
0
 41
0
  0
VERTEX
  8
0
 10
8.882
 20
2.29394
 30
0.0
 40
0
 41
0
  0
VERTEX
  8
0
 10
8.87961
 20
2.29432
 30
0.0
 40
0
 41
0
  0
VERTEX
  8
0
 10
8.85596
 20
2.29622
 30
0.0
 40
0
 41
0
  0
VERTEX
  8
0
 10
8.85363
 20
2.29617
 30
0.0
 40
0
 41
0
  0
VERTEX
  8
0
 10
8.85053
 20
2.29617
 30
0.0
 40
0
 41
0
  0
VERTEX
  8
0
 10
8.82042
 20
2.29172
 30
0.0
 40
0
 41
0
  0
VERTEX
  8
0
 10
8.81749
 20
2.29085
 30
0.0
 40
0
 41
0
  0
VERTEX
  8
0
 10
8.81418
 20
2.28988
 30
0.0
 40
0
 41
0
  0
VERTEX
  8
0
 10
8.78304
 20
2.27593
 30
0.0
 40
0
 41
0
  0
VERTEX
  8
0
 10
8.78011
 20
2.27414
 30
0.0
 40
0
 41
0
  0
VERTEX
  8
0
 10
8.77647
 20
2.27203
 30
0.0
 40
0
 41
0
  0
VERTEX
  8
0
 10
8.74278
 20
2.24696
 30
0.0
 40
0
 41
0
  0
VERTEX
  8
0
 10
8.73969
 20
2.24408
 30
0.0
 40
0
 41
0
  0
VERTEX
  8
0
 10
8.73568
 20
2.24046
 30
0.0
 40
0
 41
0
  0
VERTEX
  8
0
 10
8.69803
 20
2.20161
 30
0.0
 40
0
 41
0
  0
VERTEX
  8
0
 10
8.6945
 20
2.19749
 30
0.0
 40
0
 41
0
  0
VERTEX
  8
0
 10
8.6945
 20
1.84804
 30
0.0
 40
0
 41
0
  0
VERTEX
  8
0
 10
8.69444
 20
1.84706
 30
0.0
 40
0
 41
0
  0
VERTEX
  8
0
 10
8.69015
 20
1.83826
 30
0.0
 40
0
 41
0
  0
VERTEX
  8
0
 10
8.6894
 20
1.83763
 30
0.0
 40
0
 41
0
  0
VERTEX
  8
0
 10
8.6881
 20
1.83664
 30
0.0
 40
0
 41
0
  0
VERTEX
  8
0
 10
8.67324
 20
1.83003
 30
0.0
 40
0
 41
0
  0
VERTEX
  8
0
 10
8.67165
 20
1.82969
 30
0.0
 40
0
 41
0
  0
VERTEX
  8
0
 10
8.66889
 20
1.8291
 30
0.0
 40
0
 41
0
  0
VERTEX
  8
0
 10
8.64133
 20
1.82514
 30
0.0
 40
0
 41
0
  0
VERTEX
  8
0
 10
8.63857
 20
1.82497
 30
0.0
 40
0
 41
0
  0
VERTEX
  8
0
 10
8.6351
 20
1.82476
 30
0.0
 40
0
 41
0
  0
VERTEX
  8
0
 10
8.59864
 20
1.82346
 30
0.0
 40
0
 41
0
  0
VERTEX
  8
0
 10
8.58649
 20
1.82346
 30
0.0
 40
0
 41
0
  0
VERTEX
  8
0
 10
8.57346
 20
1.82346
 30
0.0
 40
0
 41
0
  0
VERTEX
  8
0
 10
8.53771
 20
1.8246
 30
0.0
 40
0
 41
0
  0
VERTEX
  8
0
 10
8.5344
 20
1.82497
 30
0.0
 40
0
 41
0
  0
VERTEX
  8
0
 10
8.53157
 20
1.82519
 30
0.0
 40
0
 41
0
  0
VERTEX
  8
0
 10
8.50396
 20
1.8291
 30
0.0
 40
0
 41
0
  0
VERTEX
  8
0
 10
8.50125
 20
1.82969
 30
0.0
 40
0
 41
0
  0
VERTEX
  8
0
 10
8.49963
 20
1.83003
 30
0.0
 40
0
 41
0
  0
VERTEX
  8
0
 10
8.48492
 20
1.83664
 30
0.0
 40
0
 41
0
  0
VERTEX
  8
0
 10
8.48367
 20
1.83763
 30
0.0
 40
0
 41
0
  0
VERTEX
  8
0
 10
8.48286
 20
1.83826
 30
0.0
 40
0
 41
0
  0
VERTEX
  8
0
 10
8.47851
 20
1.84706
 30
0.0
 40
0
 41
0
  0
VERTEX
  8
0
 10
8.47851
 20
1.84804
 30
0.0
 40
0
 41
0
  0
VERTEX
  8
0
 10
8.47851
 20
2.40875
 30
0.0
 40
0
 41
0
  0
VERTEX
  8
0
 10
8.47851
 20
2.40972
 30
0.0
 40
0
 41
0
  0
VERTEX
  8
0
 10
8.4821
 20
2.41846
 30
0.0
 40
0
 41
0
  0
VERTEX
  8
0
 10
8.48281
 20
2.41917
 30
0.0
 40
0
 41
0
  0
VERTEX
  8
0
 10
8.48389
 20
2.42014
 30
0.0
 40
0
 41
0
  0
VERTEX
  8
0
 10
8.49675
 20
2.42681
 30
0.0
 40
0
 41
0
  0
VERTEX
  8
0
 10
8.49821
 20
2.42708
 30
0.0
 40
0
 41
0
  0
VERTEX
  8
0
 10
8.50054
 20
2.42768
 30
0.0
 40
0
 41
0
  0
VERTEX
  8
0
 10
8.52463
 20
2.43158
 30
0.0
 40
0
 41
0
  0
VERTEX
  8
0
 10
8.52707
 20
2.43175
 30
0.0
 40
0
 41
0
  0
VERTEX
  8
0
 10
8.53
 20
2.43201
 30
0.0
 40
0
 41
0
  0
VERTEX
  8
0
 10
8.56099
 20
2.43332
 30
0.0
 40
0
 41
0
  0
VERTEX
  8
0
 10
8.57135
 20
2.43332
 30
0.0
 40
0
 41
0
  0
VERTEX
  8
0
 10
8.58274
 20
2.43332
 30
0.0
 40
0
 41
0
  0
VERTEX
  8
0
 10
8.61393
 20
2.43218
 30
0.0
 40
0
 41
0
  0
VERTEX
  8
0
 10
8.61697
 20
2.43175
 30
0.0
 40
0
 41
0
  0
VERTEX
  8
0
 10
8.61931
 20
2.43164
 30
0.0
 40
0
 41
0
  0
VERTEX
  8
0
 10
8.64264
 20
2.42774
 30
0.0
 40
0
 41
0
  0
VERTEX
  8
0
 10
8.64492
 20
2.42708
 30
0.0
 40
0
 41
0
  0
VERTEX
  8
0
 10
8.64621
 20
2.42676
 30
0.0
 40
0
 41
0
  0
VERTEX
  8
0
 10
8.65804
 20
2.42014
 30
0.0
 40
0
 41
0
  0
VERTEX
  8
0
 10
8.65907
 20
2.41917
 30
0.0
 40
0
 41
0
  0
VERTEX
  8
0
 10
8.65972
 20
2.41846
 30
0.0
 40
0
 41
0
  0
VERTEX
  8
0
 10
8.66336
 20
2.40972
 30
0.0
 40
0
 41
0
  0
VERTEX
  8
0
 10
8.66342
 20
2.40875
 30
0.0
 40
0
 41
0
  0
VERTEX
  8
0
 10
8.66342
 20
2.33897
 30
0.0
 40
0
 41
0
  0
VERTEX
  8
0
 10
8.66781
 20
2.34369
 30
0.0
 40
0
 41
0
  0
VERTEX
  8
0
 10
8.71511
 20
2.3871
 30
0.0
 40
0
 41
0
  0
VERTEX
  8
0
 10
8.72021
 20
2.39106
 30
0.0
 40
0
 41
0
  0
VERTEX
  8
0
 10
8.72418
 20
2.39415
 30
0.0
 40
0
 41
0
  0
VERTEX
  8
0
 10
8.76644
 20
2.42106
 30
0.0
 40
0
 41
0
  0
VERTEX
  8
0
 10
8.77094
 20
2.42333
 30
0.0
 40
0
 41
0
  0
VERTEX
  8
0
 10
8.77474
 20
2.42529
 30
0.0
 40
0
 41
0
  0
VERTEX
  8
0
 10
8.81489
 20
2.43918
 30
0.0
 40
0
 41
0
  0
VERTEX
  8
0
 10
8.81907
 20
2.44
 30
0.0
 40
0
 41
0
  0
VERTEX
  8
0
 10
8.82303
 20
2.44081
 30
0.0
 40
0
 41
0
  0
VERTEX
  8
0
 10
8.85622
 20
2.44467
 30
0.0
 40
0
 41
0
  0
VERTEX
  8
0
 10
8.86729
 20
2.44467
 30
0.0
 40
0
 41
0
  0
VERTEX
  8
0
 10
8.87326
 20
2.44467
 30
0.0
 40
0
 41
0
  0
VERTEX
  8
0
 10
8.88917
 20
2.4439
 30
0.0
 40
0
 41
0
  0
VERTEX
  8
0
 10
8.89133
 20
2.44374
 30
0.0
 40
0
 41
0
  0
VERTEX
  8
0
 10
8.89344
 20
2.44362
 30
0.0
 40
0
 41
0
  0
VERTEX
  8
0
 10
8.91569
 20
2.44103
 30
0.0
 40
0
 41
0
  0
VERTEX
  8
0
 10
8.91803
 20
2.44065
 30
0.0
 40
0
 41
0
  0
VERTEX
  8
0
 10
8.92003
 20
2.44038
 30
0.0
 40
0
 41
0
  0
VERTEX
  8
0
 10
8.94006
 20
2.43614
 30
0.0
 40
0
 41
0
  0
VERTEX
  8
0
 10
8.94206
 20
2.4356
 30
0.0
 40
0
 41
0
  0
VERTEX
  8
0
 10
8.94336
 20
2.43533
 30
0.0
 40
0
 41
0
  0
VERTEX
  8
0
 10
8.95589
 20
2.43039
 30
0.0
 40
0
 41
0
  0
VERTEX
  8
0
 10
8.95708
 20
2.42969
 30
0.0
 40
0
 41
0
  0
VERTEX
  8
0
 10
8.95779
 20
2.42925
 30
0.0
 40
0
 41
0
  0
VERTEX
  8
0
 10
8.96354
 20
2.42344
 30
0.0
 40
0
 41
0
  0
VERTEX
  8
0
 10
8.96397
 20
2.42269
 30
0.0
 40
0
 41
0
  0
VERTEX
  8
0
 10
8.96442
 20
2.42188
 30
0.0
 40
0
 41
0
  0
VERTEX
  8
0
 10
8.96772
 20
2.41319
 30
0.0
 40
0
 41
0
  0
VERTEX
  8
0
 10
8.96793
 20
2.41228
 30
0.0
 40
0
 41
0
  0
VERTEX
  8
0
 10
8.96826
 20
2.41064
 30
0.0
 40
0
 41
0
  0
VERTEX
  8
0
 10
8.97032
 20
2.39421
 30
0.0
 40
0
 41
0
  0
VERTEX
  8
0
 10
8.97043
 20
2.39253
 30
0.0
 40
0
 41
0
  0
VERTEX
  8
0
 10
8.97038
 20
2.39031
 30
0.0
 40
0
 41
0
  0
VERTEX
  8
0
 10
8.97065
 20
2.36501
 30
0.0
 40
0
 41
0
  0
VERTEX
  8
0
 10
8.97065
 20
2.35656
 30
0.0
 40
0
 41
0
  0
SEQEND
 8
0
  0
POLYLINE
  8
0
 62
     253
 66
     1
 10
0
 20
0
 30
0.0
 70
     1
 40
0
 41
0
  0
VERTEX
  8
0
 10
10.2151
 20
1.84739
 30
0.0
 40
0
 41
0
  0
VERTEX
  8
0
 10
10.2151
 20
1.84467
 30
0.0
 40
0
 41
0
  0
VERTEX
  8
0
 10
10.2112
 20
1.83718
 30
0.0
 40
0
 41
0
  0
VERTEX
  8
0
 10
10.2104
 20
1.83649
 30
0.0
 40
0
 41
0
  0
VERTEX
  8
0
 10
10.2092
 20
1.8355
 30
0.0
 40
0
 41
0
  0
VERTEX
  8
0
 10
10.1948
 20
1.8291
 30
0.0
 40
0
 41
0
  0
VERTEX
  8
0
 10
10.1933
 20
1.82883
 30
0.0
 40
0
 41
0
  0
VERTEX
  8
0
 10
10.1904
 20
1.82829
 30
0.0
 40
0
 41
0
  0
VERTEX
  8
0
 10
10.162
 20
1.82465
 30
0.0
 40
0
 41
0
  0
VERTEX
  8
0
 10
10.1592
 20
1.82449
 30
0.0
 40
0
 41
0
  0
VERTEX
  8
0
 10
10.1556
 20
1.82428
 30
0.0
 40
0
 41
0
  0
VERTEX
  8
0
 10
10.1164
 20
1.82292
 30
0.0
 40
0
 41
0
  0
VERTEX
  8
0
 10
10.1033
 20
1.82292
 30
0.0
 40
0
 41
0
  0
VERTEX
  8
0
 10
10.089
 20
1.82292
 30
0.0
 40
0
 41
0
  0
VERTEX
  8
0
 10
10.0498
 20
1.82389
 30
0.0
 40
0
 41
0
  0
VERTEX
  8
0
 10
10.0462
 20
1.82417
 30
0.0
 40
0
 41
0
  0
VERTEX
  8
0
 10
10.0431
 20
1.82433
 30
0.0
 40
0
 41
0
  0
VERTEX
  8
0
 10
10.013
 20
1.82769
 30
0.0
 40
0
 41
0
  0
VERTEX
  8
0
 10
10.01
 20
1.82824
 30
0.0
 40
0
 41
0
  0
VERTEX
  8
0
 10
10.008
 20
1.82856
 30
0.0
 40
0
 41
0
  0
VERTEX
  8
0
 10
9.98969
 20
1.83518
 30
0.0
 40
0
 41
0
  0
VERTEX
  8
0
 10
9.98801
 20
1.83615
 30
0.0
 40
0
 41
0
  0
VERTEX
  8
0
 10
9.98665
 20
1.83708
 30
0.0
 40
0
 41
0
  0
VERTEX
  8
0
 10
9.97521
 20
1.84804
 30
0.0
 40
0
 41
0
  0
VERTEX
  8
0
 10
9.97428
 20
1.84928
 30
0.0
 40
0
 41
0
  0
VERTEX
  8
0
 10
9.71875
 20
2.14469
 30
0.0
 40
0
 41
0
  0
VERTEX
  8
0
 10
9.71875
 20
1.84804
 30
0.0
 40
0
 41
0
  0
VERTEX
  8
0
 10
9.71869
 20
1.84706
 30
0.0
 40
0
 41
0
  0
VERTEX
  8
0
 10
9.71431
 20
1.83826
 30
0.0
 40
0
 41
0
  0
VERTEX
  8
0
 10
9.71354
 20
1.83763
 30
0.0
 40
0
 41
0
  0
VERTEX
  8
0
 10
9.71224
 20
1.83664
 30
0.0
 40
0
 41
0
  0
VERTEX
  8
0
 10
9.69754
 20
1.83003
 30
0.0
 40
0
 41
0
  0
VERTEX
  8
0
 10
9.69596
 20
1.82969
 30
0.0
 40
0
 41
0
  0
VERTEX
  8
0
 10
9.69319
 20
1.8291
 30
0.0
 40
0
 41
0
  0
VERTEX
  8
0
 10
9.66558
 20
1.82519
 30
0.0
 40
0
 41
0
  0
VERTEX
  8
0
 10
9.66282
 20
1.82497
 30
0.0
 40
0
 41
0
  0
VERTEX
  8
0
 10
9.65935
 20
1.82476
 30
0.0
 40
0
 41
0
  0
VERTEX
  8
0
 10
9.62289
 20
1.82346
 30
0.0
 40
0
 41
0
  0
VERTEX
  8
0
 10
9.61074
 20
1.82346
 30
0.0
 40
0
 41
0
  0
VERTEX
  8
0
 10
9.59771
 20
1.82346
 30
0.0
 40
0
 41
0
  0
VERTEX
  8
0
 10
9.56196
 20
1.8246
 30
0.0
 40
0
 41
0
  0
VERTEX
  8
0
 10
9.55865
 20
1.82497
 30
0.0
 40
0
 41
0
  0
VERTEX
  8
0
 10
9.55583
 20
1.82519
 30
0.0
 40
0
 41
0
  0
VERTEX
  8
0
 10
9.52821
 20
1.8291
 30
0.0
 40
0
 41
0
  0
VERTEX
  8
0
 10
9.5255
 20
1.82969
 30
0.0
 40
0
 41
0
  0
VERTEX
  8
0
 10
9.52387
 20
1.83003
 30
0.0
 40
0
 41
0
  0
VERTEX
  8
0
 10
9.50917
 20
1.83664
 30
0.0
 40
0
 41
0
  0
VERTEX
  8
0
 10
9.50792
 20
1.83763
 30
0.0
 40
0
 41
0
  0
VERTEX
  8
0
 10
9.50711
 20
1.83826
 30
0.0
 40
0
 41
0
  0
VERTEX
  8
0
 10
9.50271
 20
1.84706
 30
0.0
 40
0
 41
0
  0
VERTEX
  8
0
 10
9.50271
 20
1.84804
 30
0.0
 40
0
 41
0
  0
VERTEX
  8
0
 10
9.50271
 20
2.67458
 30
0.0
 40
0
 41
0
  0
VERTEX
  8
0
 10
9.50271
 20
2.67567
 30
0.0
 40
0
 41
0
  0
VERTEX
  8
0
 10
9.50711
 20
2.68522
 30
0.0
 40
0
 41
0
  0
VERTEX
  8
0
 10
9.50792
 20
2.68593
 30
0.0
 40
0
 41
0
  0
VERTEX
  8
0
 10
9.50917
 20
2.68701
 30
0.0
 40
0
 41
0
  0
VERTEX
  8
0
 10
9.52387
 20
2.69407
 30
0.0
 40
0
 41
0
  0
VERTEX
  8
0
 10
9.5255
 20
2.69439
 30
0.0
 40
0
 41
0
  0
VERTEX
  8
0
 10
9.52821
 20
2.6951
 30
0.0
 40
0
 41
0
  0
VERTEX
  8
0
 10
9.55583
 20
2.69949
 30
0.0
 40
0
 41
0
  0
VERTEX
  8
0
 10
9.55865
 20
2.69971
 30
0.0
 40
0
 41
0
  0
VERTEX
  8
0
 10
9.56213
 20
2.70003
 30
0.0
 40
0
 41
0
  0
VERTEX
  8
0
 10
9.59858
 20
2.70156
 30
0.0
 40
0
 41
0
  0
VERTEX
  8
0
 10
9.61074
 20
2.70156
 30
0.0
 40
0
 41
0
  0
VERTEX
  8
0
 10
9.62375
 20
2.70156
 30
0.0
 40
0
 41
0
  0
VERTEX
  8
0
 10
9.65944
 20
2.70003
 30
0.0
 40
0
 41
0
  0
VERTEX
  8
0
 10
9.66282
 20
2.69971
 30
0.0
 40
0
 41
0
  0
VERTEX
  8
0
 10
9.66558
 20
2.69949
 30
0.0
 40
0
 41
0
  0
VERTEX
  8
0
 10
9.69319
 20
2.6951
 30
0.0
 40
0
 41
0
  0
VERTEX
  8
0
 10
9.69596
 20
2.69439
 30
0.0
 40
0
 41
0
  0
VERTEX
  8
0
 10
9.69754
 20
2.69407
 30
0.0
 40
0
 41
0
  0
VERTEX
  8
0
 10
9.71224
 20
2.68701
 30
0.0
 40
0
 41
0
  0
VERTEX
  8
0
 10
9.71354
 20
2.68593
 30
0.0
 40
0
 41
0
  0
VERTEX
  8
0
 10
9.71431
 20
2.68522
 30
0.0
 40
0
 41
0
  0
VERTEX
  8
0
 10
9.71869
 20
2.67567
 30
0.0
 40
0
 41
0
  0
VERTEX
  8
0
 10
9.71875
 20
2.67458
 30
0.0
 40
0
 41
0
  0
VERTEX
  8
0
 10
9.71875
 20
2.1824
 30
0.0
 40
0
 41
0
  0
VERTEX
  8
0
 10
9.94586
 20
2.40554
 30
0.0
 40
0
 41
0
  0
VERTEX
  8
0
 10
9.94694
 20
2.40685
 30
0.0
 40
0
 41
0
  0
VERTEX
  8
0
 10
9.95979
 20
2.41781
 30
0.0
 40
0
 41
0
  0
VERTEX
  8
0
 10
9.96126
 20
2.41872
 30
0.0
 40
0
 41
0
  0
VERTEX
  8
0
 10
9.963
 20
2.41982
 30
0.0
 40
0
 41
0
  0
VERTEX
  8
0
 10
9.98204
 20
2.42725
 30
0.0
 40
0
 41
0
  0
VERTEX
  8
0
 10
9.98406
 20
2.42763
 30
0.0
 40
0
 41
0
  0
VERTEX
  8
0
 10
9.98693
 20
2.42822
 30
0.0
 40
0
 41
0
  0
VERTEX
  8
0
 10
10.0164
 20
2.43213
 30
0.0
 40
0
 41
0
  0
VERTEX
  8
0
 10
10.0194
 20
2.43229
 30
0.0
 40
0
 41
0
  0
VERTEX
  8
0
 10
10.0228
 20
2.43257
 30
0.0
 40
0
 41
0
  0
VERTEX
  8
0
 10
10.0605
 20
2.43386
 30
0.0
 40
0
 41
0
  0
VERTEX
  8
0
 10
10.0731
 20
2.43386
 30
0.0
 40
0
 41
0
  0
VERTEX
  8
0
 10
10.0865
 20
2.43386
 30
0.0
 40
0
 41
0
  0
VERTEX
  8
0
 10
10.1234
 20
2.43257
 30
0.0
 40
0
 41
0
  0
VERTEX
  8
0
 10
10.1269
 20
2.43229
 30
0.0
 40
0
 41
0
  0
VERTEX
  8
0
 10
10.1298
 20
2.43213
 30
0.0
 40
0
 41
0
  0
VERTEX
  8
0
 10
10.1592
 20
2.42828
 30
0.0
 40
0
 41
0
  0
VERTEX
  8
0
 10
10.1621
 20
2.42763
 30
0.0
 40
0
 41
0
  0
VERTEX
  8
0
 10
10.1637
 20
2.42736
 30
0.0
 40
0
 41
0
  0
VERTEX
  8
0
 10
10.1792
 20
2.42074
 30
0.0
 40
0
 41
0
  0
VERTEX
  8
0
 10
10.1806
 20
2.41971
 30
0.0
 40
0
 41
0
  0
VERTEX
  8
0
 10
10.1814
 20
2.419
 30
0.0
 40
0
 41
0
  0
VERTEX
  8
0
 10
10.1857
 20
2.40929
 30
0.0
 40
0
 41
0
  0
VERTEX
  8
0
 10
10.1857
 20
2.40815
 30
0.0
 40
0
 41
0
  0
VERTEX
  8
0
 10
10.1857
 20
2.40636
 30
0.0
 40
0
 41
0
  0
VERTEX
  8
0
 10
10.1803
 20
2.38943
 30
0.0
 40
0
 41
0
  0
VERTEX
  8
0
 10
10.1794
 20
2.38792
 30
0.0
 40
0
 41
0
  0
VERTEX
  8
0
 10
10.178
 20
2.38585
 30
0.0
 40
0
 41
0
  0
VERTEX
  8
0
 10
10.1618
 20
2.36697
 30
0.0
 40
0
 41
0
  0
VERTEX
  8
0
 10
10.16
 20
2.36529
 30
0.0
 40
0
 41
0
  0
VERTEX
  8
0
 10
9.93554
 20
2.17925
 30
0.0
 40
0
 41
0
  0
VERTEX
  8
0
 10
10.1953
 20
1.88542
 30
0.0
 40
0
 41
0
  0
VERTEX
  8
0
 10
10.1967
 20
1.88374
 30
0.0
 40
0
 41
0
  0
VERTEX
  8
0
 10
10.2093
 20
1.86572
 30
0.0
 40
0
 41
0
  0
VERTEX
  8
0
 10
10.2104
 20
1.86376
 30
0.0
 40
0
 41
0
  0
VERTEX
  8
0
 10
10.2111
 20
1.86253
 30
0.0
 40
0
 41
0
  0
VERTEX
  8
0
 10
10.215
 20
1.84885
 30
0.0
 40
0
 41
0
  0
VERTEX
  8
0
 10
10.2151
 20
1.84739
 30
0.0
 40
0
 41
0
  0
SEQEND
 8
0
  0
POLYLINE
  8
0
 62
     253
 66
     1
 10
0
 20
0
 30
0.0
 70
     1
 40
0
 41
0
  0
VERTEX
  8
0
 10
10.5644
 20
1.84804
 30
0.0
 40
0
 41
0
  0
VERTEX
  8
0
 10
10.5643
 20
1.84706
 30
0.0
 40
0
 41
0
  0
VERTEX
  8
0
 10
10.5599
 20
1.83826
 30
0.0
 40
0
 41
0
  0
VERTEX
  8
0
 10
10.5592
 20
1.83763
 30
0.0
 40
0
 41
0
  0
VERTEX
  8
0
 10
10.5579
 20
1.83664
 30
0.0
 40
0
 41
0
  0
VERTEX
  8
0
 10
10.5431
 20
1.83003
 30
0.0
 40
0
 41
0
  0
VERTEX
  8
0
 10
10.5416
 20
1.82969
 30
0.0
 40
0
 41
0
  0
VERTEX
  8
0
 10
10.5388
 20
1.8291
 30
0.0
 40
0
 41
0
  0
VERTEX
  8
0
 10
10.5112
 20
1.82519
 30
0.0
 40
0
 41
0
  0
VERTEX
  8
0
 10
10.5085
 20
1.82497
 30
0.0
 40
0
 41
0
  0
VERTEX
  8
0
 10
10.505
 20
1.82476
 30
0.0
 40
0
 41
0
  0
VERTEX
  8
0
 10
10.4685
 20
1.82346
 30
0.0
 40
0
 41
0
  0
VERTEX
  8
0
 10
10.4564
 20
1.82346
 30
0.0
 40
0
 41
0
  0
VERTEX
  8
0
 10
10.4434
 20
1.82346
 30
0.0
 40
0
 41
0
  0
VERTEX
  8
0
 10
10.4076
 20
1.8246
 30
0.0
 40
0
 41
0
  0
VERTEX
  8
0
 10
10.4043
 20
1.82497
 30
0.0
 40
0
 41
0
  0
VERTEX
  8
0
 10
10.4015
 20
1.82519
 30
0.0
 40
0
 41
0
  0
VERTEX
  8
0
 10
10.3739
 20
1.8291
 30
0.0
 40
0
 41
0
  0
VERTEX
  8
0
 10
10.3712
 20
1.82969
 30
0.0
 40
0
 41
0
  0
VERTEX
  8
0
 10
10.3695
 20
1.83003
 30
0.0
 40
0
 41
0
  0
VERTEX
  8
0
 10
10.3548
 20
1.83664
 30
0.0
 40
0
 41
0
  0
VERTEX
  8
0
 10
10.3535
 20
1.83763
 30
0.0
 40
0
 41
0
  0
VERTEX
  8
0
 10
10.3527
 20
1.83826
 30
0.0
 40
0
 41
0
  0
VERTEX
  8
0
 10
10.3484
 20
1.84706
 30
0.0
 40
0
 41
0
  0
VERTEX
  8
0
 10
10.3483
 20
1.84804
 30
0.0
 40
0
 41
0
  0
VERTEX
  8
0
 10
10.3483
 20
2.67458
 30
0.0
 40
0
 41
0
  0
VERTEX
  8
0
 10
10.3483
 20
2.67567
 30
0.0
 40
0
 41
0
  0
VERTEX
  8
0
 10
10.3527
 20
2.68522
 30
0.0
 40
0
 41
0
  0
VERTEX
  8
0
 10
10.3535
 20
2.68593
 30
0.0
 40
0
 41
0
  0
VERTEX
  8
0
 10
10.3548
 20
2.68701
 30
0.0
 40
0
 41
0
  0
VERTEX
  8
0
 10
10.3695
 20
2.69407
 30
0.0
 40
0
 41
0
  0
VERTEX
  8
0
 10
10.3712
 20
2.69439
 30
0.0
 40
0
 41
0
  0
VERTEX
  8
0
 10
10.3739
 20
2.6951
 30
0.0
 40
0
 41
0
  0
VERTEX
  8
0
 10
10.4015
 20
2.69949
 30
0.0
 40
0
 41
0
  0
VERTEX
  8
0
 10
10.4043
 20
2.69971
 30
0.0
 40
0
 41
0
  0
VERTEX
  8
0
 10
10.4077
 20
2.70003
 30
0.0
 40
0
 41
0
  0
VERTEX
  8
0
 10
10.4442
 20
2.70156
 30
0.0
 40
0
 41
0
  0
VERTEX
  8
0
 10
10.4564
 20
2.70156
 30
0.0
 40
0
 41
0
  0
VERTEX
  8
0
 10
10.4694
 20
2.70156
 30
0.0
 40
0
 41
0
  0
VERTEX
  8
0
 10
10.5051
 20
2.70003
 30
0.0
 40
0
 41
0
  0
VERTEX
  8
0
 10
10.5085
 20
2.69971
 30
0.0
 40
0
 41
0
  0
VERTEX
  8
0
 10
10.5112
 20
2.69949
 30
0.0
 40
0
 41
0
  0
VERTEX
  8
0
 10
10.5388
 20
2.6951
 30
0.0
 40
0
 41
0
  0
VERTEX
  8
0
 10
10.5416
 20
2.69439
 30
0.0
 40
0
 41
0
  0
VERTEX
  8
0
 10
10.5431
 20
2.69407
 30
0.0
 40
0
 41
0
  0
VERTEX
  8
0
 10
10.5579
 20
2.68701
 30
0.0
 40
0
 41
0
  0
VERTEX
  8
0
 10
10.5592
 20
2.68593
 30
0.0
 40
0
 41
0
  0
VERTEX
  8
0
 10
10.5599
 20
2.68522
 30
0.0
 40
0
 41
0
  0
VERTEX
  8
0
 10
10.5643
 20
2.67567
 30
0.0
 40
0
 41
0
  0
VERTEX
  8
0
 10
10.5644
 20
2.67458
 30
0.0
 40
0
 41
0
  0
VERTEX
  8
0
 10
10.5644
 20
1.84804
 30
0.0
 40
0
 41
0
  0
SEQEND
 8
0
  0
POLYLINE
  8
0
 62
     253
 66
     1
 10
0
 20
0
 30
0.0
 70
     1
 40
0
 41
0
  0
VERTEX
  8
0
 10
11.5078
 20
1.84804
 30
0.0
 40
0
 41
0
  0
VERTEX
  8
0
 10
11.5078
 20
1.84706
 30
0.0
 40
0
 41
0
  0
VERTEX
  8
0
 10
11.5042
 20
1.83832
 30
0.0
 40
0
 41
0
  0
VERTEX
  8
0
 10
11.5035
 20
1.83763
 30
0.0
 40
0
 41
0
  0
VERTEX
  8
0
 10
11.5024
 20
1.83664
 30
0.0
 40
0
 41
0
  0
VERTEX
  8
0
 10
11.4899
 20
1.83003
 30
0.0
 40
0
 41
0
  0
VERTEX
  8
0
 10
11.4884
 20
1.82969
 30
0.0
 40
0
 41
0
  0
VERTEX
  8
0
 10
11.4861
 20
1.8291
 30
0.0
 40
0
 41
0
  0
VERTEX
  8
0
 10
11.4625
 20
1.82519
 30
0.0
 40
0
 41
0
  0
VERTEX
  8
0
 10
11.4601
 20
1.82497
 30
0.0
 40
0
 41
0
  0
VERTEX
  8
0
 10
11.4571
 20
1.82476
 30
0.0
 40
0
 41
0
  0
VERTEX
  8
0
 10
11.4262
 20
1.82346
 30
0.0
 40
0
 41
0
  0
VERTEX
  8
0
 10
11.4158
 20
1.82346
 30
0.0
 40
0
 41
0
  0
VERTEX
  8
0
 10
11.4043
 20
1.82346
 30
0.0
 40
0
 41
0
  0
VERTEX
  8
0
 10
11.3727
 20
1.8246
 30
0.0
 40
0
 41
0
  0
VERTEX
  8
0
 10
11.3698
 20
1.82497
 30
0.0
 40
0
 41
0
  0
VERTEX
  8
0
 10
11.3674
 20
1.82514
 30
0.0
 40
0
 41
0
  0
VERTEX
  8
0
 10
11.3441
 20
1.8291
 30
0.0
 40
0
 41
0
  0
VERTEX
  8
0
 10
11.3418
 20
1.82969
 30
0.0
 40
0
 41
0
  0
VERTEX
  8
0
 10
11.3404
 20
1.83003
 30
0.0
 40
0
 41
0
  0
VERTEX
  8
0
 10
11.3282
 20
1.83664
 30
0.0
 40
0
 41
0
  0
VERTEX
  8
0
 10
11.3272
 20
1.83763
 30
0.0
 40
0
 41
0
  0
VERTEX
  8
0
 10
11.3265
 20
1.83832
 30
0.0
 40
0
 41
0
  0
VERTEX
  8
0
 10
11.3229
 20
1.84706
 30
0.0
 40
0
 41
0
  0
VERTEX
  8
0
 10
11.3229
 20
1.84804
 30
0.0
 40
0
 41
0
  0
VERTEX
  8
0
 10
11.3229
 20
1.91282
 30
0.0
 40
0
 41
0
  0
VERTEX
  8
0
 10
11.3132
 20
1.90494
 30
0.0
 40
0
 41
0
  0
VERTEX
  8
0
 10
11.261
 20
1.87022
 30
0.0
 40
0
 41
0
  0
VERTEX
  8
0
 10
11.2051
 20
1.84201
 30
0.0
 40
0
 41
0
  0
VERTEX
  8
0
 10
11.1934
 20
1.8374
 30
0.0
 40
0
 41
0
  0
VERTEX
  8
0
 10
11.1825
 20
1.83322
 30
0.0
 40
0
 41
0
  0
VERTEX
  8
0
 10
11.1265
 20
1.81853
 30
0.0
 40
0
 41
0
  0
VERTEX
  8
0
 10
11.0688
 20
1.81218
 30
0.0
 40
0
 41
0
  0
VERTEX
  8
0
 10
11.0572
 20
1.81218
 30
0.0
 40
0
 41
0
  0
VERTEX
  8
0
 10
11.0459
 20
1.8119
 30
0.0
 40
0
 41
0
  0
VERTEX
  8
0
 10
10.9899
 20
1.81614
 30
0.0
 40
0
 41
0
  0
VERTEX
  8
0
 10
10.935
 20
1.82769
 30
0.0
 40
0
 41
0
  0
VERTEX
  8
0
 10
10.9243
 20
1.83106
 30
0.0
 40
0
 41
0
  0
VERTEX
  8
0
 10
10.9161
 20
1.83376
 30
0.0
 40
0
 41
0
  0
VERTEX
  8
0
 10
10.8779
 20
1.85226
 30
0.0
 40
0
 41
0
  0
VERTEX
  8
0
 10
10.8436
 20
1.87728
 30
0.0
 40
0
 41
0
  0
VERTEX
  8
0
 10
10.8374
 20
1.88314
 30
0.0
 40
0
 41
0
  0
VERTEX
  8
0
 10
10.832
 20
1.8884
 30
0.0
 40
0
 41
0
  0
VERTEX
  8
0
 10
10.8091
 20
1.91818
 30
0.0
 40
0
 41
0
  0
VERTEX
  8
0
 10
10.7924
 20
1.95171
 30
0.0
 40
0
 41
0
  0
VERTEX
  8
0
 10
10.7901
 20
1.95888
 30
0.0
 40
0
 41
0
  0
VERTEX
  8
0
 10
10.7875
 20
1.96756
 30
0.0
 40
0
 41
0
  0
VERTEX
  8
0
 10
10.7757
 20
2.05697
 30
0.0
 40
0
 41
0
  0
VERTEX
  8
0
 10
10.7759
 20
2.06603
 30
0.0
 40
0
 41
0
  0
VERTEX
  8
0
 10
10.7759
 20
2.40978
 30
0.0
 40
0
 41
0
  0
VERTEX
  8
0
 10
10.7759
 20
2.41081
 30
0.0
 40
0
 41
0
  0
VERTEX
  8
0
 10
10.7798
 20
2.41954
 30
0.0
 40
0
 41
0
  0
VERTEX
  8
0
 10
10.7806
 20
2.42019
 30
0.0
 40
0
 41
0
  0
VERTEX
  8
0
 10
10.7818
 20
2.42122
 30
0.0
 40
0
 41
0
  0
VERTEX
  8
0
 10
10.7962
 20
2.42785
 30
0.0
 40
0
 41
0
  0
VERTEX
  8
0
 10
10.7978
 20
2.42811
 30
0.0
 40
0
 41
0
  0
VERTEX
  8
0
 10
10.8006
 20
2.42876
 30
0.0
 40
0
 41
0
  0
VERTEX
  8
0
 10
10.8285
 20
2.43267
 30
0.0
 40
0
 41
0
  0
VERTEX
  8
0
 10
10.8314
 20
2.43283
 30
0.0
 40
0
 41
0
  0
VERTEX
  8
0
 10
10.8348
 20
2.43311
 30
0.0
 40
0
 41
0
  0
VERTEX
  8
0
 10
10.8713
 20
2.43435
 30
0.0
 40
0
 41
0
  0
VERTEX
  8
0
 10
10.8835
 20
2.43435
 30
0.0
 40
0
 41
0
  0
VERTEX
  8
0
 10
10.8965
 20
2.43435
 30
0.0
 40
0
 41
0
  0
VERTEX
  8
0
 10
10.9322
 20
2.43321
 30
0.0
 40
0
 41
0
  0
VERTEX
  8
0
 10
10.9355
 20
2.43283
 30
0.0
 40
0
 41
0
  0
VERTEX
  8
0
 10
10.9383
 20
2.43267
 30
0.0
 40
0
 41
0
  0
VERTEX
  8
0
 10
10.9659
 20
2.42876
 30
0.0
 40
0
 41
0
  0
VERTEX
  8
0
 10
10.9686
 20
2.42811
 30
0.0
 40
0
 41
0
  0
VERTEX
  8
0
 10
10.9702
 20
2.42785
 30
0.0
 40
0
 41
0
  0
VERTEX
  8
0
 10
10.985
 20
2.42122
 30
0.0
 40
0
 41
0
  0
VERTEX
  8
0
 10
10.9863
 20
2.42019
 30
0.0
 40
0
 41
0
  0
VERTEX
  8
0
 10
10.987
 20
2.4196
 30
0.0
 40
0
 41
0
  0
VERTEX
  8
0
 10
10.9914
 20
2.41081
 30
0.0
 40
0
 41
0
  0
VERTEX
  8
0
 10
10.9915
 20
2.40978
 30
0.0
 40
0
 41
0
  0
VERTEX
  8
0
 10
10.9915
 20
2.09293
 30
0.0
 40
0
 41
0
  0
VERTEX
  8
0
 10
10.9913
 20
2.08729
 30
0.0
 40
0
 41
0
  0
VERTEX
  8
0
 10
10.9977
 20
2.03119
 30
0.0
 40
0
 41
0
  0
VERTEX
  8
0
 10
10.9992
 20
2.02572
 30
0.0
 40
0
 41
0
  0
VERTEX
  8
0
 10
11.0004
 20
2.02203
 30
0.0
 40
0
 41
0
  0
VERTEX
  8
0
 10
11.0201
 20
1.98872
 30
0.0
 40
0
 41
0
  0
VERTEX
  8
0
 10
11.0228
 20
1.98583
 30
0.0
 40
0
 41
0
  0
VERTEX
  8
0
 10
11.0256
 20
1.98296
 30
0.0
 40
0
 41
0
  0
VERTEX
  8
0
 10
11.0595
 20
1.96137
 30
0.0
 40
0
 41
0
  0
VERTEX
  8
0
 10
11.0633
 20
1.96001
 30
0.0
 40
0
 41
0
  0
VERTEX
  8
0
 10
11.0679
 20
1.95844
 30
0.0
 40
0
 41
0
  0
VERTEX
  8
0
 10
11.1156
 20
1.95085
 30
0.0
 40
0
 41
0
  0
VERTEX
  8
0
 10
11.1205
 20
1.95096
 30
0.0
 40
0
 41
0
  0
VERTEX
  8
0
 10
11.1278
 20
1.95107
 30
0.0
 40
0
 41
0
  0
VERTEX
  8
0
 10
11.1635
 20
1.95676
 30
0.0
 40
0
 41
0
  0
VERTEX
  8
0
 10
11.1974
 20
1.9694
 30
0.0
 40
0
 41
0
  0
VERTEX
  8
0
 10
11.2038
 20
1.97293
 30
0.0
 40
0
 41
0
  0
VERTEX
  8
0
 10
11.2119
 20
1.97738
 30
0.0
 40
0
 41
0
  0
VERTEX
  8
0
 10
11.2861
 20
2.03082
 30
0.0
 40
0
 41
0
  0
VERTEX
  8
0
 10
11.2929
 20
2.037
 30
0.0
 40
0
 41
0
  0
VERTEX
  8
0
 10
11.2929
 20
2.40875
 30
0.0
 40
0
 41
0
  0
VERTEX
  8
0
 10
11.2929
 20
2.40978
 30
0.0
 40
0
 41
0
  0
VERTEX
  8
0
 10
11.2968
 20
2.41851
 30
0.0
 40
0
 41
0
  0
VERTEX
  8
0
 10
11.2976
 20
2.41917
 30
0.0
 40
0
 41
0
  0
VERTEX
  8
0
 10
11.2988
 20
2.42019
 30
0.0
 40
0
 41
0
  0
VERTEX
  8
0
 10
11.3132
 20
2.42681
 30
0.0
 40
0
 41
0
  0
VERTEX
  8
0
 10
11.3148
 20
2.42708
 30
0.0
 40
0
 41
0
  0
VERTEX
  8
0
 10
11.3175
 20
2.42774
 30
0.0
 40
0
 41
0
  0
VERTEX
  8
0
 10
11.3451
 20
2.43158
 30
0.0
 40
0
 41
0
  0
VERTEX
  8
0
 10
11.3479
 20
2.43175
 30
0.0
 40
0
 41
0
  0
VERTEX
  8
0
 10
11.3514
 20
2.43201
 30
0.0
 40
0
 41
0
  0
VERTEX
  8
0
 10
11.3879
 20
2.43332
 30
0.0
 40
0
 41
0
  0
VERTEX
  8
0
 10
11.4
 20
2.43332
 30
0.0
 40
0
 41
0
  0
VERTEX
  8
0
 10
11.413
 20
2.43332
 30
0.0
 40
0
 41
0
  0
VERTEX
  8
0
 10
11.4487
 20
2.43218
 30
0.0
 40
0
 41
0
  0
VERTEX
  8
0
 10
11.4521
 20
2.43175
 30
0.0
 40
0
 41
0
  0
VERTEX
  8
0
 10
11.4548
 20
2.43164
 30
0.0
 40
0
 41
0
  0
VERTEX
  8
0
 10
11.4821
 20
2.42774
 30
0.0
 40
0
 41
0
  0
VERTEX
  8
0
 10
11.4848
 20
2.42708
 30
0.0
 40
0
 41
0
  0
VERTEX
  8
0
 10
11.4863
 20
2.42676
 30
0.0
 40
0
 41
0
  0
VERTEX
  8
0
 10
11.5006
 20
2.42014
 30
0.0
 40
0
 41
0
  0
VERTEX
  8
0
 10
11.5019
 20
2.41917
 30
0.0
 40
0
 41
0
  0
VERTEX
  8
0
 10
11.5027
 20
2.41851
 30
0.0
 40
0
 41
0
  0
VERTEX
  8
0
 10
11.5071
 20
2.40978
 30
0.0
 40
0
 41
0
  0
VERTEX
  8
0
 10
11.5071
 20
2.40875
 30
0.0
 40
0
 41
0
  0
VERTEX
  8
0
 10
11.5078
 20
1.84804
 30
0.0
 40
0
 41
0
  0
SEQEND
 8
0
  0
POLYLINE
  8
0
 62
     253
 66
     1
 10
0
 20
0
 30
0.0
 70
     1
 40
0
 41
0
  0
VERTEX
  8
0
 10
12.4978
 20
2.13542
 30
0.0
 40
0
 41
0
  0
VERTEX
  8
0
 10
12.498
 20
2.12397
 30
0.0
 40
0
 41
0
  0
VERTEX
  8
0
 10
12.4926
 20
2.06722
 30
0.0
 40
0
 41
0
  0
VERTEX
  8
0
 10
12.4793
 20
2.01172
 30
0.0
 40
0
 41
0
  0
VERTEX
  8
0
 10
12.4754
 20
2.00092
 30
0.0
 40
0
 41
0
  0
VERTEX
  8
0
 10
12.4703
 20
1.9866
 30
0.0
 40
0
 41
0
  0
VERTEX
  8
0
 10
12.4484
 20
1.94575
 30
0.0
 40
0
 41
0
  0
VERTEX
  8
0
 10
12.4103
 20
1.89849
 30
0.0
 40
0
 41
0
  0
VERTEX
  8
0
 10
12.3627
 20
1.86079
 30
0.0
 40
0
 41
0
  0
VERTEX
  8
0
 10
12.3217
 20
1.83925
 30
0.0
 40
0
 41
0
  0
VERTEX
  8
0
 10
12.3073
 20
1.83425
 30
0.0
 40
0
 41
0
  0
VERTEX
  8
0
 10
12.2961
 20
1.83035
 30
0.0
 40
0
 41
0
  0
VERTEX
  8
0
 10
12.2384
 20
1.81674
 30
0.0
 40
0
 41
0
  0
VERTEX
  8
0
 10
12.1794
 20
1.81142
 30
0.0
 40
0
 41
0
  0
VERTEX
  8
0
 10
12.1675
 20
1.81158
 30
0.0
 40
0
 41
0
  0
VERTEX
  8
0
 10
12.1614
 20
1.81158
 30
0.0
 40
0
 41
0
  0
VERTEX
  8
0
 10
12.1012
 20
1.81608
 30
0.0
 40
0
 41
0
  0
VERTEX
  8
0
 10
12.0952
 20
1.817
 30
0.0
 40
0
 41
0
  0
VERTEX
  8
0
 10
12.0897
 20
1.81787
 30
0.0
 40
0
 41
0
  0
VERTEX
  8
0
 10
12.0363
 20
1.83225
 30
0.0
 40
0
 41
0
  0
VERTEX
  8
0
 10
12.0311
 20
1.83425
 30
0.0
 40
0
 41
0
  0
VERTEX
  8
0
 10
12.0259
 20
1.83632
 30
0.0
 40
0
 41
0
  0
VERTEX
  8
0
 10
11.9757
 20
1.86143
 30
0.0
 40
0
 41
0
  0
VERTEX
  8
0
 10
11.9709
 20
1.86436
 30
0.0
 40
0
 41
0
  0
VERTEX
  8
0
 10
11.9656
 20
1.86768
 30
0.0
 40
0
 41
0
  0
VERTEX
  8
0
 10
11.9151
 20
1.9044
 30
0.0
 40
0
 41
0
  0
VERTEX
  8
0
 10
11.9103
 20
1.90842
 30
0.0
 40
0
 41
0
  0
VERTEX
  8
0
 10
11.9103
 20
1.84739
 30
0.0
 40
0
 41
0
  0
VERTEX
  8
0
 10
11.9103
 20
1.84631
 30
0.0
 40
0
 41
0
  0
VERTEX
  8
0
 10
11.9064
 20
1.83658
 30
0.0
 40
0
 41
0
  0
VERTEX
  8
0
 10
11.9056
 20
1.83583
 30
0.0
 40
0
 41
0
  0
VERTEX
  8
0
 10
11.9045
 20
1.8349
 30
0.0
 40
0
 41
0
  0
VERTEX
  8
0
 10
11.8915
 20
1.82829
 30
0.0
 40
0
 41
0
  0
VERTEX
  8
0
 10
11.8901
 20
1.8279
 30
0.0
 40
0
 41
0
  0
VERTEX
  8
0
 10
11.8877
 20
1.82731
 30
0.0
 40
0
 41
0
  0
VERTEX
  8
0
 10
11.8637
 20
1.82368
 30
0.0
 40
0
 41
0
  0
VERTEX
  8
0
 10
11.8613
 20
1.82357
 30
0.0
 40
0
 41
0
  0
VERTEX
  8
0
 10
11.8582
 20
1.82335
 30
0.0
 40
0
 41
0
  0
VERTEX
  8
0
 10
11.8276
 20
1.82226
 30
0.0
 40
0
 41
0
  0
VERTEX
  8
0
 10
11.8175
 20
1.82226
 30
0.0
 40
0
 41
0
  0
VERTEX
  8
0
 10
11.8064
 20
1.82226
 30
0.0
 40
0
 41
0
  0
VERTEX
  8
0
 10
11.7762
 20
1.82335
 30
0.0
 40
0
 41
0
  0
VERTEX
  8
0
 10
11.7731
 20
1.82357
 30
0.0
 40
0
 41
0
  0
VERTEX
  8
0
 10
11.7707
 20
1.82368
 30
0.0
 40
0
 41
0
  0
VERTEX
  8
0
 10
11.7471
 20
1.82731
 30
0.0
 40
0
 41
0
  0
VERTEX
  8
0
 10
11.7448
 20
1.8279
 30
0.0
 40
0
 41
0
  0
VERTEX
  8
0
 10
11.7434
 20
1.82824
 30
0.0
 40
0
 41
0
  0
VERTEX
  8
0
 10
11.7307
 20
1.83485
 30
0.0
 40
0
 41
0
  0
VERTEX
  8
0
 10
11.7297
 20
1.83583
 30
0.0
 40
0
 41
0
  0
VERTEX
  8
0
 10
11.7289
 20
1.83664
 30
0.0
 40
0
 41
0
  0
VERTEX
  8
0
 10
11.7254
 20
1.84636
 30
0.0
 40
0
 41
0
  0
VERTEX
  8
0
 10
11.7254
 20
1.84739
 30
0.0
 40
0
 41
0
  0
VERTEX
  8
0
 10
11.7254
 20
2.67458
 30
0.0
 40
0
 41
0
  0
VERTEX
  8
0
 10
11.7254
 20
2.67567
 30
0.0
 40
0
 41
0
  0
VERTEX
  8
0
 10
11.7297
 20
2.68522
 30
0.0
 40
0
 41
0
  0
VERTEX
  8
0
 10
11.7305
 20
2.68593
 30
0.0
 40
0
 41
0
  0
VERTEX
  8
0
 10
11.7318
 20
2.68701
 30
0.0
 40
0
 41
0
  0
VERTEX
  8
0
 10
11.7466
 20
2.69407
 30
0.0
 40
0
 41
0
  0
VERTEX
  8
0
 10
11.7482
 20
2.69439
 30
0.0
 40
0
 41
0
  0
VERTEX
  8
0
 10
11.7509
 20
2.6951
 30
0.0
 40
0
 41
0
  0
VERTEX
  8
0
 10
11.7784
 20
2.69949
 30
0.0
 40
0
 41
0
  0
VERTEX
  8
0
 10
11.7813
 20
2.69971
 30
0.0
 40
0
 41
0
  0
VERTEX
  8
0
 10
11.7847
 20
2.70003
 30
0.0
 40
0
 41
0
  0
VERTEX
  8
0
 10
11.8212
 20
2.70156
 30
0.0
 40
0
 41
0
  0
VERTEX
  8
0
 10
11.8333
 20
2.70156
 30
0.0
 40
0
 41
0
  0
VERTEX
  8
0
 10
11.8464
 20
2.70156
 30
0.0
 40
0
 41
0
  0
VERTEX
  8
0
 10
11.8819
 20
2.70003
 30
0.0
 40
0
 41
0
  0
VERTEX
  8
0
 10
11.8854
 20
2.69971
 30
0.0
 40
0
 41
0
  0
VERTEX
  8
0
 10
11.8882
 20
2.69949
 30
0.0
 40
0
 41
0
  0
VERTEX
  8
0
 10
11.9158
 20
2.6951
 30
0.0
 40
0
 41
0
  0
VERTEX
  8
0
 10
11.9186
 20
2.69439
 30
0.0
 40
0
 41
0
  0
VERTEX
  8
0
 10
11.9201
 20
2.69407
 30
0.0
 40
0
 41
0
  0
VERTEX
  8
0
 10
11.9348
 20
2.68701
 30
0.0
 40
0
 41
0
  0
VERTEX
  8
0
 10
11.9361
 20
2.68593
 30
0.0
 40
0
 41
0
  0
VERTEX
  8
0
 10
11.9369
 20
2.68522
 30
0.0
 40
0
 41
0
  0
VERTEX
  8
0
 10
11.9413
 20
2.67567
 30
0.0
 40
0
 41
0
  0
VERTEX
  8
0
 10
11.9413
 20
2.67458
 30
0.0
 40
0
 41
0
  0
VERTEX
  8
0
 10
11.9413
 20
2.36458
 30
0.0
 40
0
 41
0
  0
VERTEX
  8
0
 10
11.946
 20
2.368
 30
0.0
 40
0
 41
0
  0
VERTEX
  8
0
 10
11.9947
 20
2.39844
 30
0.0
 40
0
 41
0
  0
VERTEX
  8
0
 10
11.9998
 20
2.40104
 30
0.0
 40
0
 41
0
  0
VERTEX
  8
0
 10
12.0044
 20
2.40354
 30
0.0
 40
0
 41
0
  0
VERTEX
  8
0
 10
12.0532
 20
2.42415
 30
0.0
 40
0
 41
0
  0
VERTEX
  8
0
 10
12.0582
 20
2.42583
 30
0.0
 40
0
 41
0
  0
VERTEX
  8
0
 10
12.0631
 20
2.42751
 30
0.0
 40
0
 41
0
  0
VERTEX
  8
0
 10
12.1133
 20
2.43929
 30
0.0
 40
0
 41
0
  0
VERTEX
  8
0
 10
12.1184
 20
2.44
 30
0.0
 40
0
 41
0
  0
VERTEX
  8
0
 10
12.1239
 20
2.44075
 30
0.0
 40
0
 41
0
  0
VERTEX
  8
0
 10
12.1784
 20
2.44444
 30
0.0
 40
0
 41
0
  0
VERTEX
  8
0
 10
12.1839
 20
2.44439
 30
0.0
 40
0
 41
0
  0
VERTEX
  8
0
 10
12.1962
 20
2.44472
 30
0.0
 40
0
 41
0
  0
VERTEX
  8
0
 10
12.2573
 20
2.43913
 30
0.0
 40
0
 41
0
  0
VERTEX
  8
0
 10
12.3168
 20
2.42404
 30
0.0
 40
0
 41
0
  0
VERTEX
  8
0
 10
12.3283
 20
2.4196
 30
0.0
 40
0
 41
0
  0
VERTEX
  8
0
 10
12.3418
 20
2.41439
 30
0.0
 40
0
 41
0
  0
VERTEX
  8
0
 10
12.3799
 20
2.39242
 30
0.0
 40
0
 41
0
  0
VERTEX
  8
0
 10
12.4233
 20
2.35465
 30
0.0
 40
0
 41
0
  0
VERTEX
  8
0
 10
12.4571
 20
2.30806
 30
0.0
 40
0
 41
0
  0
VERTEX
  8
0
 10
12.4757
 20
2.26824
 30
0.0
 40
0
 41
0
  0
VERTEX
  8
0
 10
12.4797
 20
2.25429
 30
0.0
 40
0
 41
0
  0
VERTEX
  8
0
 10
12.4827
 20
2.24468
 30
0.0
 40
0
 41
0
  0
VERTEX
  8
0
 10
12.4978
 20
2.14551
 30
0.0
 40
0
 41
0
  0
VERTEX
  8
0
 10
12.4978
 20
2.13542
 30
0.0
 40
0
 41
0
  0
SEQEND
 8
0
  0
POLYLINE
  8
0
 62
     253
 66
     1
 10
0
 20
0
 30
0.0
 70
     1
 40
0
 41
0
  0
VERTEX
  8
0
 10
12.2732
 20
2.125
 30
0.0
 40
0
 41
0
  0
VERTEX
  8
0
 10
12.2732
 20
2.13086
 30
0.0
 40
0
 41
0
  0
VERTEX
  8
0
 10
12.2671
 20
2.18853
 30
0.0
 40
0
 41
0
  0
VERTEX
  8
0
 10
12.2659
 20
2.19417
 30
0.0
 40
0
 41
0
  0
VERTEX
  8
0
 10
12.2648
 20
2.19949
 30
0.0
 40
0
 41
0
  0
VERTEX
  8
0
 10
12.2437
 20
2.24881
 30
0.0
 40
0
 41
0
  0
VERTEX
  8
0
 10
12.2406
 20
2.25325
 30
0.0
 40
0
 41
0
  0
VERTEX
  8
0
 10
12.2376
 20
2.25765
 30
0.0
 40
0
 41
0
  0
VERTEX
  8
0
 10
12.1984
 20
2.29243
 30
0.0
 40
0
 41
0
  0
VERTEX
  8
0
 10
12.1937
 20
2.29492
 30
0.0
 40
0
 41
0
  0
VERTEX
  8
0
 10
12.188
 20
2.29769
 30
0.0
 40
0
 41
0
  0
VERTEX
  8
0
 10
12.1271
 20
2.3106
 30
0.0
 40
0
 41
0
  0
VERTEX
  8
0
 10
12.1208
 20
2.31033
 30
0.0
 40
0
 41
0
  0
VERTEX
  8
0
 10
12.1173
 20
2.31033
 30
0.0
 40
0
 41
0
  0
VERTEX
  8
0
 10
12.0826
 20
2.30669
 30
0.0
 40
0
 41
0
  0
VERTEX
  8
0
 10
12.0792
 20
2.30593
 30
0.0
 40
0
 41
0
  0
VERTEX
  8
0
 10
12.0755
 20
2.30512
 30
0.0
 40
0
 41
0
  0
VERTEX
  8
0
 10
12.04
 20
2.29258
 30
0.0
 40
0
 41
0
  0
VERTEX
  8
0
 10
12.0367
 20
2.29085
 30
0.0
 40
0
 41
0
  0
VERTEX
  8
0
 10
12.0327
 20
2.2889
 30
0.0
 40
0
 41
0
  0
VERTEX
  8
0
 10
11.995
 20
2.2659
 30
0.0
 40
0
 41
0
  0
VERTEX
  8
0
 10
11.9915
 20
2.26324
 30
0.0
 40
0
 41
0
  0
VERTEX
  8
0
 10
11.9871
 20
2.2601
 30
0.0
 40
0
 41
0
  0
VERTEX
  8
0
 10
11.9463
 20
2.22532
 30
0.0
 40
0
 41
0
  0
VERTEX
  8
0
 10
11.9425
 20
2.22157
 30
0.0
 40
0
 41
0
  0
VERTEX
  8
0
 10
11.9425
 20
2.03554
 30
0.0
 40
0
 41
0
  0
VERTEX
  8
0
 10
11.949
 20
2.02919
 30
0.0
 40
0
 41
0
  0
VERTEX
  8
0
 10
12.0218
 20
1.97499
 30
0.0
 40
0
 41
0
  0
VERTEX
  8
0
 10
12.0298
 20
1.97054
 30
0.0
 40
0
 41
0
  0
VERTEX
  8
0
 10
12.0365
 20
1.9669
 30
0.0
 40
0
 41
0
  0
VERTEX
  8
0
 10
12.0721
 20
1.95394
 30
0.0
 40
0
 41
0
  0
VERTEX
  8
0
 10
12.1058
 20
1.94824
 30
0.0
 40
0
 41
0
  0
VERTEX
  8
0
 10
12.1171
 20
1.94824
 30
0.0
 40
0
 41
0
  0
VERTEX
  8
0
 10
12.1257
 20
1.94792
 30
0.0
 40
0
 41
0
  0
VERTEX
  8
0
 10
12.1516
 20
1.95101
 30
0.0
 40
0
 41
0
  0
VERTEX
  8
0
 10
12.184
 20
1.96181
 30
0.0
 40
0
 41
0
  0
VERTEX
  8
0
 10
12.2129
 20
1.97993
 30
0.0
 40
0
 41
0
  0
VERTEX
  8
0
 10
12.2319
 20
1.99794
 30
0.0
 40
0
 41
0
  0
VERTEX
  8
0
 10
12.2371
 20
2.00478
 30
0.0
 40
0
 41
0
  0
VERTEX
  8
0
 10
12.2403
 20
2.00906
 30
0.0
 40
0
 41
0
  0
VERTEX
  8
0
 10
12.2636
 20
2.05681
 30
0.0
 40
0
 41
0
  0
VERTEX
  8
0
 10
12.265
 20
2.06196
 30
0.0
 40
0
 41
0
  0
VERTEX
  8
0
 10
12.2663
 20
2.06711
 30
0.0
 40
0
 41
0
  0
VERTEX
  8
0
 10
12.2732
 20
2.11057
 30
0.0
 40
0
 41
0
  0
VERTEX
  8
0
 10
12.2732
 20
2.125
 30
0.0
 40
0
 41
0
  0
SEQEND
 8
0
  0
POLYLINE
  8
0
 62
     140
 66
     1
 10
0
 20
0
 30
0.0
 70
     1
 40
0
 41
0
  0
VERTEX
  8
0
 10
3.12646
 20
3.61626
 30
0.0
 40
0
 41
0
  0
VERTEX
  8
0
 10
3.10574
 20
3.61626
 30
0.0
 40
0
 41
0
  0
VERTEX
  8
0
 10
3.04363
 20
3.62864
 30
0.0
 40
0
 41
0
  0
VERTEX
  8
0
 10
2.96946
 20
3.66385
 30
0.0
 40
0
 41
0
  0
VERTEX
  8
0
 10
2.90853
 20
3.71881
 30
0.0
 40
0
 41
0
  0
VERTEX
  8
0
 10
2.87332
 20
3.77149
 30
0.0
 40
0
 41
0
  0
VERTEX
  8
0
 10
2.8654
 20
3.79058
 30
0.0
 40
0
 41
0
  0
VERTEX
  8
0
 10
2.85742
 20
3.80974
 30
0.0
 40
0
 41
0
  0
VERTEX
  8
0
 10
2.84511
 20
3.87185
 30
0.0
 40
0
 41
0
  0
VERTEX
  8
0
 10
2.84924
 20
3.95383
 30
0.0
 40
0
 41
0
  0
VERTEX
  8
0
 10
2.87674
 20
4.03114
 30
0.0
 40
0
 41
0
  0
VERTEX
  8
0
 10
2.91189
 20
4.08388
 30
0.0
 40
0
 41
0
  0
VERTEX
  8
0
 10
2.92654
 20
4.09847
 30
0.0
 40
0
 41
0
  0
VERTEX
  8
0
 10
2.94114
 20
4.11312
 30
0.0
 40
0
 41
0
  0
VERTEX
  8
0
 10
2.99388
 20
4.14833
 30
0.0
 40
0
 41
0
  0
VERTEX
  8
0
 10
3.07118
 20
4.17583
 30
0.0
 40
0
 41
0
  0
VERTEX
  8
0
 10
3.1531
 20
4.18001
 30
0.0
 40
0
 41
0
  0
VERTEX
  8
0
 10
3.21528
 20
4.16769
 30
0.0
 40
0
 41
0
  0
VERTEX
  8
0
 10
3.23443
 20
4.15978
 30
0.0
 40
0
 41
0
  0
VERTEX
  8
0
 10
3.25353
 20
4.15186
 30
0.0
 40
0
 41
0
  0
VERTEX
  8
0
 10
3.30621
 20
4.11664
 30
0.0
 40
0
 41
0
  0
VERTEX
  8
0
 10
3.36122
 20
4.05572
 30
0.0
 40
0
 41
0
  0
VERTEX
  8
0
 10
3.39643
 20
3.98161
 30
0.0
 40
0
 41
0
  0
VERTEX
  8
0
 10
3.40886
 20
3.91949
 30
0.0
 40
0
 41
0
  0
VERTEX
  8
0
 10
3.40886
 20
3.89876
 30
0.0
 40
0
 41
0
  0
VERTEX
  8
0
 10
3.40881
 20
3.87131
 30
0.0
 40
0
 41
0
  0
VERTEX
  8
0
 10
3.38656
 20
3.7889
 30
0.0
 40
0
 41
0
  0
VERTEX
  8
0
 10
3.32607
 20
3.69917
 30
0.0
 40
0
 41
0
  0
VERTEX
  8
0
 10
3.23633
 20
3.63861
 30
0.0
 40
0
 41
0
  0
VERTEX
  8
0
 10
3.15392
 20
3.61632
 30
0.0
 40
0
 41
0
  0
VERTEX
  8
0
 10
3.12646
 20
3.61626
 30
0.0
 40
0
 41
0
  0
SEQEND
 8
0
  0
POLYLINE
  8
0
 62
     140
 66
     1
 10
0
 20
0
 30
0.0
 70
     1
 40
0
 41
0
  0
VERTEX
  8
0
 10
3.12646
 20
4.03717
 30
0.0
 40
0
 41
0
  0
VERTEX
  8
0
 10
3.11632
 20
4.03717
 30
0.0
 40
0
 41
0
  0
VERTEX
  8
0
 10
3.08583
 20
4.03114
 30
0.0
 40
0
 41
0
  0
VERTEX
  8
0
 10
3.04953
 20
4.01394
 30
0.0
 40
0
 41
0
  0
VERTEX
  8
0
 10
3.01964
 20
3.98699
 30
0.0
 40
0
 41
0
  0
VERTEX
  8
0
 10
3.00233
 20
3.96121
 30
0.0
 40
0
 41
0
  0
VERTEX
  8
0
 10
2.99849
 20
3.95182
 30
0.0
 40
0
 41
0
  0
VERTEX
  8
0
 10
2.99457
 20
3.94249
 30
0.0
 40
0
 41
0
  0
VERTEX
  8
0
 10
2.9885
 20
3.912
 30
0.0
 40
0
 41
0
  0
VERTEX
  8
0
 10
2.99056
 20
3.87181
 30
0.0
 40
0
 41
0
  0
VERTEX
  8
0
 10
3.00401
 20
3.83393
 30
0.0
 40
0
 41
0
  0
VERTEX
  8
0
 10
3.02121
 20
3.80811
 30
0.0
 40
0
 41
0
  0
VERTEX
  8
0
 10
3.02843
 20
3.80089
 30
0.0
 40
0
 41
0
  0
VERTEX
  8
0
 10
3.0356
 20
3.79372
 30
0.0
 40
0
 41
0
  0
VERTEX
  8
0
 10
3.06142
 20
3.77647
 30
0.0
 40
0
 41
0
  0
VERTEX
  8
0
 10
3.09928
 20
3.76303
 30
0.0
 40
0
 41
0
  0
VERTEX
  8
0
 10
3.13943
 20
3.76096
 30
0.0
 40
0
 41
0
  0
VERTEX
  8
0
 10
3.16992
 20
3.76699
 30
0.0
 40
0
 41
0
  0
VERTEX
  8
0
 10
3.17931
 20
3.77083
 30
0.0
 40
0
 41
0
  0
VERTEX
  8
0
 10
3.18864
 20
3.77474
 30
0.0
 40
0
 41
0
  0
VERTEX
  8
0
 10
3.21446
 20
3.79199
 30
0.0
 40
0
 41
0
  0
VERTEX
  8
0
 10
3.24143
 20
3.82189
 30
0.0
 40
0
 41
0
  0
VERTEX
  8
0
 10
3.25868
 20
3.85818
 30
0.0
 40
0
 41
0
  0
VERTEX
  8
0
 10
3.26481
 20
3.88861
 30
0.0
 40
0
 41
0
  0
VERTEX
  8
0
 10
3.26481
 20
3.89876
 30
0.0
 40
0
 41
0
  0
VERTEX
  8
0
 10
3.26481
 20
3.91228
 30
0.0
 40
0
 41
0
  0
VERTEX
  8
0
 10
3.2539
 20
3.95264
 30
0.0
 40
0
 41
0
  0
VERTEX
  8
0
 10
3.22424
 20
3.99658
 30
0.0
 40
0
 41
0
  0
VERTEX
  8
0
 10
3.18028
 20
4.02626
 30
0.0
 40
0
 41
0
  0
VERTEX
  8
0
 10
3.13992
 20
4.03717
 30
0.0
 40
0
 41
0
  0
VERTEX
  8
0
 10
3.12646
 20
4.03717
 30
0.0
 40
0
 41
0
  0
SEQEND
 8
0
  0
POLYLINE
  8
0
 62
     140
 66
     1
 10
0
 20
0
 30
0.0
 70
     1
 40
0
 41
0
  0
VERTEX
  8
0
 10
5.46593
 20
6.35417
 30
0.0
 40
0
 41
0
  0
VERTEX
  8
0
 10
5.45871
 20
6.35417
 30
0.0
 40
0
 41
0
  0
VERTEX
  8
0
 10
5.42443
 20
6.36253
 30
0.0
 40
0
 41
0
  0
VERTEX
  8
0
 10
5.39447
 20
6.38113
 30
0.0
 40
0
 41
0
  0
VERTEX
  8
0
 10
5.38949
 20
6.38624
 30
0.0
 40
0
 41
0
  0
VERTEX
  8
0
 10
5.3329
 20
6.44385
 30
0.0
 40
0
 41
0
  0
VERTEX
  8
0
 10
5.15207
 20
6.60574
 30
0.0
 40
0
 41
0
  0
VERTEX
  8
0
 10
4.8986
 20
6.79839
 30
0.0
 40
0
 41
0
  0
VERTEX
  8
0
 10
4.63064
 20
6.96332
 30
0.0
 40
0
 41
0
  0
VERTEX
  8
0
 10
4.34999
 20
7.09999
 30
0.0
 40
0
 41
0
  0
VERTEX
  8
0
 10
4.05838
 20
7.20751
 30
0.0
 40
0
 41
0
  0
VERTEX
  8
0
 10
3.75743
 20
7.28521
 30
0.0
 40
0
 41
0
  0
VERTEX
  8
0
 10
3.44894
 20
7.33242
 30
0.0
 40
0
 41
0
  0
VERTEX
  8
0
 10
3.21317
 20
7.34825
 30
0.0
 40
0
 41
0
  0
VERTEX
  8
0
 10
3.1346
 20
7.34825
 30
0.0
 40
0
 41
0
  0
VERTEX
  8
0
 10
3.05599
 20
7.34825
 30
0.0
 40
0
 41
0
  0
VERTEX
  8
0
 10
2.82021
 20
7.33242
 30
0.0
 40
0
 41
0
  0
VERTEX
  8
0
 10
2.51167
 20
7.28521
 30
0.0
 40
0
 41
0
  0
VERTEX
  8
0
 10
2.21078
 20
7.20751
 30
0.0
 40
0
 41
0
  0
VERTEX
  8
0
 10
1.91911
 20
7.10004
 30
0.0
 40
0
 41
0
  0
VERTEX
  8
0
 10
1.63846
 20
6.96343
 30
0.0
 40
0
 41
0
  0
VERTEX
  8
0
 10
1.3705
 20
6.79856
 30
0.0
 40
0
 41
0
  0
VERTEX
  8
0
 10
1.11702
 20
6.60607
 30
0.0
 40
0
 41
0
  0
VERTEX
  8
0
 10
0.936253
 20
6.44422
 30
0.0
 40
0
 41
0
  0
VERTEX
  8
0
 10
0.879665
 20
6.38667
 30
0.0
 40
0
 41
0
  0
VERTEX
  8
0
 10
0.874729
 20
6.3814
 30
0.0
 40
0
 41
0
  0
VERTEX
  8
0
 10
0.845053
 20
6.36187
 30
0.0
 40
0
 41
0
  0
VERTEX
  8
0
 10
0.81071
 20
6.3526
 30
0.0
 40
0
 41
0
  0
VERTEX
  8
0
 10
0.803494
 20
6.35243
 30
0.0
 40
0
 41
0
  0
VERTEX
  8
0
 10
0.796224
 20
6.35226
 30
0.0
 40
0
 41
0
  0
VERTEX
  8
0
 10
0.761556
 20
6.35997
 30
0.0
 40
0
 41
0
  0
VERTEX
  8
0
 10
0.731011
 20
6.37815
 30
0.0
 40
0
 41
0
  0
VERTEX
  8
0
 10
0.725857
 20
6.38319
 30
0.0
 40
0
 41
0
  0
VERTEX
  8
0
 10
0.720649
 20
6.38829
 30
0.0
 40
0
 41
0
  0
VERTEX
  8
0
 10
0.701986
 20
6.41857
 30
0.0
 40
0
 41
0
  0
VERTEX
  8
0
 10
0.693739
 20
6.45313
 30
0.0
 40
0
 41
0
  0
VERTEX
  8
0
 10
0.693793
 20
6.46035
 30
0.0
 40
0
 41
0
  0
VERTEX
  8
0
 10
0.693793
 20
6.46761
 30
0.0
 40
0
 41
0
  0
VERTEX
  8
0
 10
0.702474
 20
6.50206
 30
0.0
 40
0
 41
0
  0
VERTEX
  8
0
 10
0.721517
 20
6.53212
 30
0.0
 40
0
 41
0
  0
VERTEX
  8
0
 10
0.726779
 20
6.53711
 30
0.0
 40
0
 41
0
  0
VERTEX
  8
0
 10
0.78711
 20
6.59853
 30
0.0
 40
0
 41
0
  0
VERTEX
  8
0
 10
0.979981
 20
6.77111
 30
0.0
 40
0
 41
0
  0
VERTEX
  8
0
 10
1.25054
 20
6.9764
 30
0.0
 40
0
 41
0
  0
VERTEX
  8
0
 10
1.53657
 20
7.15224
 30
0.0
 40
0
 41
0
  0
VERTEX
  8
0
 10
1.83626
 20
7.29785
 30
0.0
 40
0
 41
0
  0
VERTEX
  8
0
 10
2.14779
 20
7.41249
 30
0.0
 40
0
 41
0
  0
VERTEX
  8
0
 10
2.46924
 20
7.49533
 30
0.0
 40
0
 41
0
  0
VERTEX
  8
0
 10
2.79878
 20
7.54557
 30
0.0
 40
0
 41
0
  0
VERTEX
  8
0
 10
3.05063
 20
7.5625
 30
0.0
 40
0
 41
0
  0
VERTEX
  8
0
 10
3.1346
 20
7.5625
 30
0.0
 40
0
 41
0
  0
VERTEX
  8
0
 10
3.21853
 20
7.5625
 30
0.0
 40
0
 41
0
  0
VERTEX
  8
0
 10
3.47038
 20
7.54557
 30
0.0
 40
0
 41
0
  0
VERTEX
  8
0
 10
3.79992
 20
7.49522
 30
0.0
 40
0
 41
0
  0
VERTEX
  8
0
 10
4.12136
 20
7.41233
 30
0.0
 40
0
 41
0
  0
VERTEX
  8
0
 10
4.43283
 20
7.29758
 30
0.0
 40
0
 41
0
  0
VERTEX
  8
0
 10
4.73253
 20
7.15192
 30
0.0
 40
0
 41
0
  0
VERTEX
  8
0
 10
5.01856
 20
6.97601
 30
0.0
 40
0
 41
0
  0
VERTEX
  8
0
 10
5.28911
 20
6.77072
 30
0.0
 40
0
 41
0
  0
VERTEX
  8
0
 10
5.48199
 20
6.59814
 30
0.0
 40
0
 41
0
  0
VERTEX
  8
0
 10
5.54237
 20
6.53678
 30
0.0
 40
0
 41
0
  0
VERTEX
  8
0
 10
5.54785
 20
6.53125
 30
0.0
 40
0
 41
0
  0
VERTEX
  8
0
 10
5.56104
 20
6.51118
 30
0.0
 40
0
 41
0
  0
VERTEX
  8
0
 10
5.57129
 20
6.48182
 30
0.0
 40
0
 41
0
  0
VERTEX
  8
0
 10
5.57269
 20
6.45079
 30
0.0
 40
0
 41
0
  0
VERTEX
  8
0
 10
5.56793
 20
6.42731
 30
0.0
 40
0
 41
0
  0
VERTEX
  8
0
 10
5.56494
 20
6.42003
 30
0.0
 40
0
 41
0
  0
VERTEX
  8
0
 10
5.5619
 20
6.41282
 30
0.0
 40
0
 41
0
  0
VERTEX
  8
0
 10
5.5485
 20
6.3929
 30
0.0
 40
0
 41
0
  0
VERTEX
  8
0
 10
5.52539
 20
6.37213
 30
0.0
 40
0
 41
0
  0
VERTEX
  8
0
 10
5.49729
 20
6.35889
 30
0.0
 40
0
 41
0
  0
VERTEX
  8
0
 10
5.47374
 20
6.35417
 30
0.0
 40
0
 41
0
  0
VERTEX
  8
0
 10
5.46593
 20
6.35417
 30
0.0
 40
0
 41
0
  0
SEQEND
 8
0
  0
POLYLINE
  8
0
 62
     140
 66
     1
 10
0
 20
0
 30
0.0
 70
     1
 40
0
 41
0
  0
VERTEX
  8
0
 10
5.05208
 20
5.95324
 30
0.0
 40
0
 41
0
  0
VERTEX
  8
0
 10
5.04183
 20
5.95324
 30
0.0
 40
0
 41
0
  0
VERTEX
  8
0
 10
5.01118
 20
5.96137
 30
0.0
 40
0
 41
0
  0
VERTEX
  8
0
 10
4.98156
 20
5.97949
 30
0.0
 40
0
 41
0
  0
VERTEX
  8
0
 10
4.97657
 20
5.98449
 30
0.0
 40
0
 41
0
  0
VERTEX
  8
0
 10
4.92996
 20
6.03071
 30
0.0
 40
0
 41
0
  0
VERTEX
  8
0
 10
4.78153
 20
6.16043
 30
0.0
 40
0
 41
0
  0
VERTEX
  8
0
 10
4.57368
 20
6.31472
 30
0.0
 40
0
 41
0
  0
VERTEX
  8
0
 10
4.35428
 20
6.44694
 30
0.0
 40
0
 41
0
  0
VERTEX
  8
0
 10
4.12489
 20
6.55643
 30
0.0
 40
0
 41
0
  0
VERTEX
  8
0
 10
3.88683
 20
6.64258
 30
0.0
 40
0
 41
0
  0
VERTEX
  8
0
 10
3.64154
 20
6.70481
 30
0.0
 40
0
 41
0
  0
VERTEX
  8
0
 10
3.3904
 20
6.74262
 30
0.0
 40
0
 41
0
  0
VERTEX
  8
0
 10
3.19874
 20
6.75532
 30
0.0
 40
0
 41
0
  0
VERTEX
  8
0
 10
3.13488
 20
6.75532
 30
0.0
 40
0
 41
0
  0
VERTEX
  8
0
 10
3.07096
 20
6.75532
 30
0.0
 40
0
 41
0
  0
VERTEX
  8
0
 10
2.87935
 20
6.74262
 30
0.0
 40
0
 41
0
  0
VERTEX
  8
0
 10
2.62819
 20
6.70481
 30
0.0
 40
0
 41
0
  0
VERTEX
  8
0
 10
2.38292
 20
6.64247
 30
0.0
 40
0
 41
0
  0
VERTEX
  8
0
 10
2.14486
 20
6.55626
 30
0.0
 40
0
 41
0
  0
VERTEX
  8
0
 10
1.91547
 20
6.44678
 30
0.0
 40
0
 41
0
  0
VERTEX
  8
0
 10
1.69607
 20
6.31461
 30
0.0
 40
0
 41
0
  0
VERTEX
  8
0
 10
1.48822
 20
6.16032
 30
0.0
 40
0
 41
0
  0
VERTEX
  8
0
 10
1.33979
 20
6.03065
 30
0.0
 40
0
 41
0
  0
VERTEX
  8
0
 10
1.29324
 20
5.98449
 30
0.0
 40
0
 41
0
  0
VERTEX
  8
0
 10
1.28575
 20
5.97732
 30
0.0
 40
0
 41
0
  0
VERTEX
  8
0
 10
1.25765
 20
5.96169
 30
0.0
 40
0
 41
0
  0
VERTEX
  8
0
 10
1.2175
 20
5.95443
 30
0.0
 40
0
 41
0
  0
VERTEX
  8
0
 10
1.17752
 20
5.96257
 30
0.0
 40
0
 41
0
  0
VERTEX
  8
0
 10
1.14979
 20
5.97885
 30
0.0
 40
0
 41
0
  0
VERTEX
  8
0
 10
1.14252
 20
5.98617
 30
0.0
 40
0
 41
0
  0
VERTEX
  8
0
 10
1.1352
 20
5.99354
 30
0.0
 40
0
 41
0
  0
VERTEX
  8
0
 10
1.11919
 20
6.02143
 30
0.0
 40
0
 41
0
  0
VERTEX
  8
0
 10
1.11138
 20
6.06147
 30
0.0
 40
0
 41
0
  0
VERTEX
  8
0
 10
1.11903
 20
6.10157
 30
0.0
 40
0
 41
0
  0
VERTEX
  8
0
 10
1.13493
 20
6.1295
 30
0.0
 40
0
 41
0
  0
VERTEX
  8
0
 10
1.1422
 20
6.13688
 30
0.0
 40
0
 41
0
  0
VERTEX
  8
0
 10
1.19249
 20
6.18679
 30
0.0
 40
0
 41
0
  0
VERTEX
  8
0
 10
1.35287
 20
6.32699
 30
0.0
 40
0
 41
0
  0
VERTEX
  8
0
 10
1.57758
 20
6.49382
 30
0.0
 40
0
 41
0
  0
VERTEX
  8
0
 10
1.81489
 20
6.63672
 30
0.0
 40
0
 41
0
  0
VERTEX
  8
0
 10
2.06315
 20
6.7551
 30
0.0
 40
0
 41
0
  0
VERTEX
  8
0
 10
2.32081
 20
6.84825
 30
0.0
 40
0
 41
0
  0
VERTEX
  8
0
 10
2.58637
 20
6.91558
 30
0.0
 40
0
 41
0
  0
VERTEX
  8
0
 10
2.85824
 20
6.95649
 30
0.0
 40
0
 41
0
  0
VERTEX
  8
0
 10
3.06569
 20
6.97021
 30
0.0
 40
0
 41
0
  0
VERTEX
  8
0
 10
3.13488
 20
6.97021
 30
0.0
 40
0
 41
0
  0
VERTEX
  8
0
 10
3.204
 20
6.97021
 30
0.0
 40
0
 41
0
  0
VERTEX
  8
0
 10
3.41151
 20
6.95649
 30
0.0
 40
0
 41
0
  0
VERTEX
  8
0
 10
3.68332
 20
6.91558
 30
0.0
 40
0
 41
0
  0
VERTEX
  8
0
 10
3.94883
 20
6.84825
 30
0.0
 40
0
 41
0
  0
VERTEX
  8
0
 10
4.20649
 20
6.7551
 30
0.0
 40
0
 41
0
  0
VERTEX
  8
0
 10
4.45469
 20
6.63672
 30
0.0
 40
0
 41
0
  0
VERTEX
  8
0
 10
4.692
 20
6.49382
 30
0.0
 40
0
 41
0
  0
VERTEX
  8
0
 10
4.91683
 20
6.32699
 30
0.0
 40
0
 41
0
  0
VERTEX
  8
0
 10
5.07726
 20
6.18679
 30
0.0
 40
0
 41
0
  0
VERTEX
  8
0
 10
5.12761
 20
6.13688
 30
0.0
 40
0
 41
0
  0
VERTEX
  8
0
 10
5.13319
 20
6.13135
 30
0.0
 40
0
 41
0
  0
VERTEX
  8
0
 10
5.14671
 20
6.11139
 30
0.0
 40
0
 41
0
  0
VERTEX
  8
0
 10
5.15733
 20
6.08197
 30
0.0
 40
0
 41
0
  0
VERTEX
  8
0
 10
5.15907
 20
6.05072
 30
0.0
 40
0
 41
0
  0
VERTEX
  8
0
 10
5.15446
 20
6.02701
 30
0.0
 40
0
 41
0
  0
VERTEX
  8
0
 10
5.15147
 20
6.01969
 30
0.0
 40
0
 41
0
  0
VERTEX
  8
0
 10
5.14844
 20
6.01243
 30
0.0
 40
0
 41
0
  0
VERTEX
  8
0
 10
5.13504
 20
5.99235
 30
0.0
 40
0
 41
0
  0
VERTEX
  8
0
 10
5.11187
 20
5.97136
 30
0.0
 40
0
 41
0
  0
VERTEX
  8
0
 10
5.08361
 20
5.95796
 30
0.0
 40
0
 41
0
  0
VERTEX
  8
0
 10
5.05994
 20
5.95324
 30
0.0
 40
0
 41
0
  0
VERTEX
  8
0
 10
5.05208
 20
5.95324
 30
0.0
 40
0
 41
0
  0
SEQEND
 8
0
  0
POLYLINE
  8
0
 62
     140
 66
     1
 10
0
 20
0
 30
0.0
 70
     1
 40
0
 41
0
  0
VERTEX
  8
0
 10
5.05208
 20
5.95324
 30
0.0
 40
0
 41
0
  0
VERTEX
  8
0
 10
5.04183
 20
5.95324
 30
0.0
 40
0
 41
0
  0
VERTEX
  8
0
 10
5.01118
 20
5.96137
 30
0.0
 40
0
 41
0
  0
VERTEX
  8
0
 10
4.98156
 20
5.97949
 30
0.0
 40
0
 41
0
  0
VERTEX
  8
0
 10
4.97657
 20
5.98449
 30
0.0
 40
0
 41
0
  0
VERTEX
  8
0
 10
4.92996
 20
6.03071
 30
0.0
 40
0
 41
0
  0
VERTEX
  8
0
 10
4.78153
 20
6.16043
 30
0.0
 40
0
 41
0
  0
VERTEX
  8
0
 10
4.57368
 20
6.31472
 30
0.0
 40
0
 41
0
  0
VERTEX
  8
0
 10
4.35428
 20
6.44694
 30
0.0
 40
0
 41
0
  0
VERTEX
  8
0
 10
4.12489
 20
6.55643
 30
0.0
 40
0
 41
0
  0
VERTEX
  8
0
 10
3.88683
 20
6.64258
 30
0.0
 40
0
 41
0
  0
VERTEX
  8
0
 10
3.64154
 20
6.70481
 30
0.0
 40
0
 41
0
  0
VERTEX
  8
0
 10
3.3904
 20
6.74262
 30
0.0
 40
0
 41
0
  0
VERTEX
  8
0
 10
3.19874
 20
6.75532
 30
0.0
 40
0
 41
0
  0
VERTEX
  8
0
 10
3.13488
 20
6.75532
 30
0.0
 40
0
 41
0
  0
VERTEX
  8
0
 10
3.07096
 20
6.75532
 30
0.0
 40
0
 41
0
  0
VERTEX
  8
0
 10
2.87935
 20
6.74262
 30
0.0
 40
0
 41
0
  0
VERTEX
  8
0
 10
2.62819
 20
6.70481
 30
0.0
 40
0
 41
0
  0
VERTEX
  8
0
 10
2.38292
 20
6.64247
 30
0.0
 40
0
 41
0
  0
VERTEX
  8
0
 10
2.14486
 20
6.55626
 30
0.0
 40
0
 41
0
  0
VERTEX
  8
0
 10
1.91547
 20
6.44678
 30
0.0
 40
0
 41
0
  0
VERTEX
  8
0
 10
1.69607
 20
6.31461
 30
0.0
 40
0
 41
0
  0
VERTEX
  8
0
 10
1.48822
 20
6.16032
 30
0.0
 40
0
 41
0
  0
VERTEX
  8
0
 10
1.33979
 20
6.03065
 30
0.0
 40
0
 41
0
  0
VERTEX
  8
0
 10
1.29324
 20
5.98449
 30
0.0
 40
0
 41
0
  0
VERTEX
  8
0
 10
1.28575
 20
5.97732
 30
0.0
 40
0
 41
0
  0
VERTEX
  8
0
 10
1.25765
 20
5.96169
 30
0.0
 40
0
 41
0
  0
VERTEX
  8
0
 10
1.2175
 20
5.95443
 30
0.0
 40
0
 41
0
  0
VERTEX
  8
0
 10
1.17752
 20
5.96257
 30
0.0
 40
0
 41
0
  0
VERTEX
  8
0
 10
1.14979
 20
5.97885
 30
0.0
 40
0
 41
0
  0
VERTEX
  8
0
 10
1.14252
 20
5.98617
 30
0.0
 40
0
 41
0
  0
VERTEX
  8
0
 10
1.1352
 20
5.99354
 30
0.0
 40
0
 41
0
  0
VERTEX
  8
0
 10
1.11919
 20
6.02143
 30
0.0
 40
0
 41
0
  0
VERTEX
  8
0
 10
1.11138
 20
6.06147
 30
0.0
 40
0
 41
0
  0
VERTEX
  8
0
 10
1.11903
 20
6.10157
 30
0.0
 40
0
 41
0
  0
VERTEX
  8
0
 10
1.13493
 20
6.1295
 30
0.0
 40
0
 41
0
  0
VERTEX
  8
0
 10
1.1422
 20
6.13688
 30
0.0
 40
0
 41
0
  0
VERTEX
  8
0
 10
1.19249
 20
6.18679
 30
0.0
 40
0
 41
0
  0
VERTEX
  8
0
 10
1.35287
 20
6.32699
 30
0.0
 40
0
 41
0
  0
VERTEX
  8
0
 10
1.57758
 20
6.49382
 30
0.0
 40
0
 41
0
  0
VERTEX
  8
0
 10
1.81489
 20
6.63672
 30
0.0
 40
0
 41
0
  0
VERTEX
  8
0
 10
2.06315
 20
6.7551
 30
0.0
 40
0
 41
0
  0
VERTEX
  8
0
 10
2.32081
 20
6.84825
 30
0.0
 40
0
 41
0
  0
VERTEX
  8
0
 10
2.58637
 20
6.91558
 30
0.0
 40
0
 41
0
  0
VERTEX
  8
0
 10
2.85824
 20
6.95649
 30
0.0
 40
0
 41
0
  0
VERTEX
  8
0
 10
3.06569
 20
6.97021
 30
0.0
 40
0
 41
0
  0
VERTEX
  8
0
 10
3.13488
 20
6.97021
 30
0.0
 40
0
 41
0
  0
VERTEX
  8
0
 10
3.204
 20
6.97021
 30
0.0
 40
0
 41
0
  0
VERTEX
  8
0
 10
3.41151
 20
6.95649
 30
0.0
 40
0
 41
0
  0
VERTEX
  8
0
 10
3.68332
 20
6.91558
 30
0.0
 40
0
 41
0
  0
VERTEX
  8
0
 10
3.94883
 20
6.84825
 30
0.0
 40
0
 41
0
  0
VERTEX
  8
0
 10
4.20649
 20
6.7551
 30
0.0
 40
0
 41
0
  0
VERTEX
  8
0
 10
4.45469
 20
6.63672
 30
0.0
 40
0
 41
0
  0
VERTEX
  8
0
 10
4.692
 20
6.49382
 30
0.0
 40
0
 41
0
  0
VERTEX
  8
0
 10
4.91683
 20
6.32699
 30
0.0
 40
0
 41
0
  0
VERTEX
  8
0
 10
5.07726
 20
6.18679
 30
0.0
 40
0
 41
0
  0
VERTEX
  8
0
 10
5.12761
 20
6.13688
 30
0.0
 40
0
 41
0
  0
VERTEX
  8
0
 10
5.13319
 20
6.13135
 30
0.0
 40
0
 41
0
  0
VERTEX
  8
0
 10
5.14671
 20
6.11139
 30
0.0
 40
0
 41
0
  0
VERTEX
  8
0
 10
5.15733
 20
6.08197
 30
0.0
 40
0
 41
0
  0
VERTEX
  8
0
 10
5.15907
 20
6.05072
 30
0.0
 40
0
 41
0
  0
VERTEX
  8
0
 10
5.15446
 20
6.02701
 30
0.0
 40
0
 41
0
  0
VERTEX
  8
0
 10
5.15147
 20
6.01969
 30
0.0
 40
0
 41
0
  0
VERTEX
  8
0
 10
5.14844
 20
6.01243
 30
0.0
 40
0
 41
0
  0
VERTEX
  8
0
 10
5.13504
 20
5.99235
 30
0.0
 40
0
 41
0
  0
VERTEX
  8
0
 10
5.11187
 20
5.97136
 30
0.0
 40
0
 41
0
  0
VERTEX
  8
0
 10
5.08361
 20
5.95796
 30
0.0
 40
0
 41
0
  0
VERTEX
  8
0
 10
5.05994
 20
5.95324
 30
0.0
 40
0
 41
0
  0
VERTEX
  8
0
 10
5.05208
 20
5.95324
 30
0.0
 40
0
 41
0
  0
SEQEND
 8
0
  0
POLYLINE
  8
0
 62
     140
 66
     1
 10
0
 20
0
 30
0.0
 70
     1
 40
0
 41
0
  0
VERTEX
  8
0
 10
4.64393
 20
5.55794
 30
0.0
 40
0
 41
0
  0
VERTEX
  8
0
 10
4.63699
 20
5.55794
 30
0.0
 40
0
 41
0
  0
VERTEX
  8
0
 10
4.604
 20
5.56565
 30
0.0
 40
0
 41
0
  0
VERTEX
  8
0
 10
4.57476
 20
5.58285
 30
0.0
 40
0
 41
0
  0
VERTEX
  8
0
 10
4.56976
 20
5.58762
 30
0.0
 40
0
 41
0
  0
VERTEX
  8
0
 10
4.5331
 20
5.62267
 30
0.0
 40
0
 41
0
  0
VERTEX
  8
0
 10
4.41661
 20
5.72097
 30
0.0
 40
0
 41
0
  0
VERTEX
  8
0
 10
4.25379
 20
5.83794
 30
0.0
 40
0
 41
0
  0
VERTEX
  8
0
 10
4.08242
 20
5.93815
 30
0.0
 40
0
 41
0
  0
VERTEX
  8
0
 10
3.90343
 20
6.02115
 30
0.0
 40
0
 41
0
  0
VERTEX
  8
0
 10
3.7181
 20
6.08649
 30
0.0
 40
0
 41
0
  0
VERTEX
  8
0
 10
3.52746
 20
6.13368
 30
0.0
 40
0
 41
0
  0
VERTEX
  8
0
 10
3.33257
 20
6.16238
 30
0.0
 40
0
 41
0
  0
VERTEX
  8
0
 10
3.18408
 20
6.17199
 30
0.0
 40
0
 41
0
  0
VERTEX
  8
0
 10
3.1346
 20
6.17199
 30
0.0
 40
0
 41
0
  0
VERTEX
  8
0
 10
3.08507
 20
6.17199
 30
0.0
 40
0
 41
0
  0
VERTEX
  8
0
 10
2.93658
 20
6.16238
 30
0.0
 40
0
 41
0
  0
VERTEX
  8
0
 10
2.74169
 20
6.13368
 30
0.0
 40
0
 41
0
  0
VERTEX
  8
0
 10
2.55106
 20
6.08649
 30
0.0
 40
0
 41
0
  0
VERTEX
  8
0
 10
2.36567
 20
6.02115
 30
0.0
 40
0
 41
0
  0
VERTEX
  8
0
 10
2.18674
 20
5.93815
 30
0.0
 40
0
 41
0
  0
VERTEX
  8
0
 10
2.01531
 20
5.83794
 30
0.0
 40
0
 41
0
  0
VERTEX
  8
0
 10
1.85249
 20
5.72097
 30
0.0
 40
0
 41
0
  0
VERTEX
  8
0
 10
1.736
 20
5.62267
 30
0.0
 40
0
 41
0
  0
VERTEX
  8
0
 10
1.69938
 20
5.58762
 30
0.0
 40
0
 41
0
  0
VERTEX
  8
0
 10
1.69422
 20
5.58257
 30
0.0
 40
0
 41
0
  0
VERTEX
  8
0
 10
1.66401
 20
5.56435
 30
0.0
 40
0
 41
0
  0
VERTEX
  8
0
 10
1.62956
 20
5.55643
 30
0.0
 40
0
 41
0
  0
VERTEX
  8
0
 10
1.6224
 20
5.55647
 30
0.0
 40
0
 41
0
  0
VERTEX
  8
0
 10
1.61518
 20
5.55658
 30
0.0
 40
0
 41
0
  0
VERTEX
  8
0
 10
1.58094
 20
5.56543
 30
0.0
 40
0
 41
0
  0
VERTEX
  8
0
 10
1.55117
 20
5.58442
 30
0.0
 40
0
 41
0
  0
VERTEX
  8
0
 10
1.54622
 20
5.58963
 30
0.0
 40
0
 41
0
  0
VERTEX
  8
0
 10
1.54124
 20
5.59483
 30
0.0
 40
0
 41
0
  0
VERTEX
  8
0
 10
1.52354
 20
5.62543
 30
0.0
 40
0
 41
0
  0
VERTEX
  8
0
 10
1.51628
 20
5.66004
 30
0.0
 40
0
 41
0
  0
VERTEX
  8
0
 10
1.51654
 20
5.66721
 30
0.0
 40
0
 41
0
  0
VERTEX
  8
0
 10
1.51676
 20
5.67443
 30
0.0
 40
0
 41
0
  0
VERTEX
  8
0
 10
1.52621
 20
5.7085
 30
0.0
 40
0
 41
0
  0
VERTEX
  8
0
 10
1.54585
 20
5.73785
 30
0.0
 40
0
 41
0
  0
VERTEX
  8
0
 10
1.55117
 20
5.74274
 30
0.0
 40
0
 41
0
  0
VERTEX
  8
0
 10
1.59153
 20
5.78136
 30
0.0
 40
0
 41
0
  0
VERTEX
  8
0
 10
1.71983
 20
5.88965
 30
0.0
 40
0
 41
0
  0
VERTEX
  8
0
 10
1.89931
 20
6.0185
 30
0.0
 40
0
 41
0
  0
VERTEX
  8
0
 10
2.08838
 20
6.1289
 30
0.0
 40
0
 41
0
  0
VERTEX
  8
0
 10
2.28575
 20
6.22038
 30
0.0
 40
0
 41
0
  0
VERTEX
  8
0
 10
2.49029
 20
6.29237
 30
0.0
 40
0
 41
0
  0
VERTEX
  8
0
 10
2.70068
 20
6.34435
 30
0.0
 40
0
 41
0
  0
VERTEX
  8
0
 10
2.91585
 20
6.37592
 30
0.0
 40
0
 41
0
  0
VERTEX
  8
0
 10
3.07981
 20
6.38656
 30
0.0
 40
0
 41
0
  0
VERTEX
  8
0
 10
3.1345
 20
6.38656
 30
0.0
 40
0
 41
0
  0
VERTEX
  8
0
 10
3.18913
 20
6.38656
 30
0.0
 40
0
 41
0
  0
VERTEX
  8
0
 10
3.35308
 20
6.37592
 30
0.0
 40
0
 41
0
  0
VERTEX
  8
0
 10
3.56819
 20
6.34435
 30
0.0
 40
0
 41
0
  0
VERTEX
  8
0
 10
3.77865
 20
6.29237
 30
0.0
 40
0
 41
0
  0
VERTEX
  8
0
 10
3.98318
 20
6.22038
 30
0.0
 40
0
 41
0
  0
VERTEX
  8
0
 10
4.18056
 20
6.1289
 30
0.0
 40
0
 41
0
  0
VERTEX
  8
0
 10
4.36963
 20
6.0185
 30
0.0
 40
0
 41
0
  0
VERTEX
  8
0
 10
4.5491
 20
5.88965
 30
0.0
 40
0
 41
0
  0
VERTEX
  8
0
 10
4.6774
 20
5.78136
 30
0.0
 40
0
 41
0
  0
VERTEX
  8
0
 10
4.71783
 20
5.74274
 30
0.0
 40
0
 41
0
  0
VERTEX
  8
0
 10
4.72353
 20
5.73725
 30
0.0
 40
0
 41
0
  0
VERTEX
  8
0
 10
4.73742
 20
5.71733
 30
0.0
 40
0
 41
0
  0
VERTEX
  8
0
 10
4.74849
 20
5.68793
 30
0.0
 40
0
 41
0
  0
VERTEX
  8
0
 10
4.75054
 20
5.65657
 30
0.0
 40
0
 41
0
  0
VERTEX
  8
0
 10
4.74615
 20
5.63265
 30
0.0
 40
0
 41
0
  0
VERTEX
  8
0
 10
4.74322
 20
5.62528
 30
0.0
 40
0
 41
0
  0
VERTEX
  8
0
 10
4.74024
 20
5.61794
 30
0.0
 40
0
 41
0
  0
VERTEX
  8
0
 10
4.72694
 20
5.59765
 30
0.0
 40
0
 41
0
  0
VERTEX
  8
0
 10
4.70378
 20
5.57639
 30
0.0
 40
0
 41
0
  0
VERTEX
  8
0
 10
4.67546
 20
5.56278
 30
0.0
 40
0
 41
0
  0
VERTEX
  8
0
 10
4.65169
 20
5.55794
 30
0.0
 40
0
 41
0
  0
VERTEX
  8
0
 10
4.64378
 20
5.55794
 30
0.0
 40
0
 41
0
  0
VERTEX
  8
0
 10
4.64393
 20
5.55794
 30
0.0
 40
0
 41
0
  0
SEQEND
 8
0
  0
ENDSEC
  0
EOF
